<?xml version="1.0" encoding="UTF-8"?>
<svg version="1.1" xmlns="http://www.w3.org/2000/svg" width="512" height="512">
<path d="M0 0 C1.16732666 -0.00983414 2.33465332 -0.01966827 3.53735352 -0.02980042 C4.81471878 -0.02013245 6.09208405 -0.01046448 7.40815735 -0.00050354 C8.77031512 -0.00428791 10.13246905 -0.00978892 11.49461365 -0.01687622 C15.19597666 -0.03085032 18.89687564 -0.01964002 22.59821296 -0.00316501 C26.48602119 0.01071103 30.37380312 0.00422112 34.2616272 0.0007019 C40.80452404 -0.00200239 47.34723773 0.01147978 53.89009094 0.03465271 C61.41415017 0.06111945 68.93790039 0.06305664 76.46199006 0.05126435 C83.72991613 0.04040345 90.99773234 0.04674748 98.2656498 0.06081963 C101.34135909 0.06652258 104.41698646 0.06654189 107.49269676 0.06175423 C143.83257781 0.01960915 143.83257781 0.01960915 161.3429718 6.18870544 C162.44838318 6.56998596 162.44838318 6.56998596 163.5761261 6.95896912 C182.02871708 13.55326866 197.22126967 23.97100368 211.2804718 37.50120544 C211.97527649 38.12124451 212.67008118 38.74128357 213.38594055 39.38011169 C236.16969703 60.37874911 247.54151068 93.13344088 249.1632843 123.39573669 C249.44166587 131.42643971 249.35387586 139.46753902 249.2804718 147.50120544 C249.90566711 147.78351013 250.53086243 148.06581482 251.17500305 148.35667419 C254.02678077 149.90689845 254.86863493 151.61030137 256.2804718 154.50120544 C257.37992759 158.71022842 257.44152823 162.85803146 257.44844055 167.18089294 C257.45176895 167.91188202 257.45509735 168.64287109 257.45852661 169.39601135 C257.46357221 170.93741734 257.46593567 172.47883417 257.46577454 174.02024841 C257.46795831 176.36174269 257.48613135 178.70276328 257.50508118 181.04417419 C257.50801626 182.54807885 257.51000029 184.05198572 257.51094055 185.55589294 C257.51812607 186.24778717 257.52531158 186.9396814 257.53271484 187.65254211 C257.50530917 193.5675926 256.83442275 198.60193207 253.0304718 203.25120544 C247.77402217 207.55193696 243.69329431 208.87822391 236.9132843 208.79417419 C236.23369659 208.78992935 235.55410889 208.78568451 234.85392761 208.78131104 C232.70402256 208.7646481 230.55508882 208.72702261 228.4054718 208.68870544 C226.9393396 208.67364244 225.47319256 208.65995687 224.0070343 208.64768982 C220.43120305 208.61478625 216.85593239 208.56309208 213.2804718 208.50120544 C212.97464172 209.07548279 212.66881165 209.64976013 212.35371399 210.24143982 C201.17950575 230.84575646 184.82021419 244.71917841 164.2804718 255.50120544 C165.36802765 255.50667389 165.36802765 255.50667389 166.47755432 255.51225281 C173.36121397 255.55035847 180.244492 255.60746312 187.12781143 255.68510818 C190.6653688 255.72436386 194.20268542 255.75665801 197.74043274 255.77220154 C201.82187959 255.79045598 205.90243082 255.84050092 209.9835968 255.89183044 C211.23408813 255.89305908 212.48457947 255.89428772 213.77296448 255.89555359 C226.87744311 256.1108281 237.50746574 259.60078921 247.2804718 268.50120544 C256.29728256 278.75973802 259.7409154 293.44644213 263.95698547 306.17430115 C264.50581338 307.81999225 265.05503426 309.46555234 265.60461426 311.11099243 C267.08369582 315.54314256 268.55721751 319.9771224 270.02960753 324.41149926 C271.57640846 329.06703344 273.12812893 333.72092759 274.67922974 338.37503052 C277.28036556 346.1821192 279.8781292 353.99032309 282.47358704 361.79930115 C285.80167853 371.81250233 289.13535469 381.82383487 292.47078991 391.83459187 C295.34544372 400.4625369 298.21754344 409.09133176 301.08923173 417.7202642 C302.00952917 420.48524629 302.93017448 423.25011237 303.85086632 426.01496315 C305.29779751 430.36066331 306.74313152 434.70689162 308.18724251 439.05352974 C308.7164266 440.64558888 309.24610764 442.23748295 309.77632904 443.82919693 C310.50148444 446.00642079 311.22478985 448.18425083 311.94763184 450.36224365 C312.35225741 451.57909505 312.75688299 452.79594645 313.17376995 454.04967213 C317.33723035 467.03449029 318.46356323 479.9520909 312.2804718 492.50120544 C305.98060364 502.9139409 296.94968275 509.35903032 285.2804718 512.50120544 C281.27999006 513.01690473 277.34651519 513.04723967 273.31674194 513.01586914 C272.16268732 513.02281467 271.0086327 513.0297602 269.81960672 513.0369162 C265.97961959 513.05511057 262.14025552 513.04494265 258.30024719 513.03465271 C255.53666171 513.039524 252.77310605 513.05032474 250.00953674 513.0607605 C243.30062474 513.08232992 236.59188281 513.08229279 229.88294757 513.07413495 C224.43175917 513.06782267 218.98062019 513.06898318 213.5294323 513.07540703 C212.75220107 513.07630868 211.97496984 513.07721034 211.17418615 513.07813932 C209.59510894 513.07999057 208.01603174 513.08185313 206.43695455 513.08372688 C191.6544985 513.10027841 176.8721381 513.09160621 162.08968782 513.0747413 C148.5617994 513.060022 135.03413264 513.07470866 121.50627274 513.10351146 C107.60672842 513.13288508 93.7072865 513.14388528 79.8077125 513.13432926 C78.236742 513.13330672 76.66577148 513.13231211 75.09480095 513.13134575 C74.32189368 513.13086936 73.5489864 513.13039297 72.7526577 513.12990214 C67.30414182 513.12773666 61.85572285 513.13754829 56.40722847 513.15211678 C49.77342769 513.16960812 43.13991029 513.16956794 36.50612081 513.14676512 C33.12115475 513.13559777 29.73668857 513.13251618 26.3517437 513.15106583 C22.68578456 513.16688873 19.02120868 513.15214536 15.35531616 513.12939453 C13.74401348 513.14714812 13.74401348 513.14714812 12.10015923 513.16526037 C4.91613741 513.07420032 4.91613741 513.07420032 1.61835766 510.10155106 C0.25101631 507.44395508 -0.20854001 505.94495678 -0.17362976 502.98631287 C-0.17332764 502.12579819 -0.17302551 501.26528351 -0.17271423 500.37869263 C-0.15206909 499.46392654 -0.13142395 498.54916046 -0.1101532 497.60667419 C-0.10449341 496.659319 -0.09883362 495.71196381 -0.09300232 494.73590088 C-0.07066904 491.7196481 -0.020478 488.70459722 0.0304718 485.68870544 C0.05054073 483.63989451 0.06879081 481.5910649 0.0851593 479.54222107 C0.12577902 474.52771726 0.20407508 469.51580146 0.2804718 464.50120544 C-10.2795282 464.50120544 -20.8395282 464.50120544 -31.7195282 464.50120544 C-31.7195282 475.06120544 -31.7195282 485.62120544 -31.7195282 496.50120544 C-29.0795282 496.50120544 -26.4395282 496.50120544 -23.7195282 496.50120544 C-20.7157163 497.30222195 -19.14361836 498.1195243 -16.8445282 500.18870544 C-15.18369065 503.60264929 -15.80000113 505.88877767 -16.7195282 509.50120544 C-17.75201416 511.1907959 -17.75201416 511.1907959 -19.7195282 512.50120544 C-22.57645725 512.80261352 -25.21631047 512.92122713 -28.07475281 512.90525818 C-28.92707993 512.91212143 -29.77940704 512.91898468 -30.65756226 512.92605591 C-33.47916758 512.94437926 -36.30021981 512.94047849 -39.12187195 512.93479919 C-41.08098533 512.93935845 -43.04009711 512.94466326 -44.99920654 512.95068359 C-49.10746249 512.95962566 -53.21552416 512.95717925 -57.32377625 512.94725037 C-62.5911415 512.93576133 -67.85783633 512.95596567 -73.12511349 512.9851675 C-77.17172513 513.0035054 -81.21817543 513.00324182 -85.26481819 512.99752998 C-87.20690921 512.99737646 -89.14901095 513.00344615 -91.09106255 513.01582146 C-93.80610691 513.03068362 -96.51990398 513.0200898 -99.23490906 513.00291443 C-100.03867981 513.0125824 -100.84245056 513.02225037 -101.670578 513.0322113 C-105.21238409 512.98524502 -107.31371499 512.79555054 -110.21856689 510.68859863 C-112.42248361 507.47676872 -112.2624575 505.30171057 -111.7195282 501.50120544 C-109.5008979 498.59403471 -108.20007891 497.66138902 -104.7195282 496.50120544 C-101.7495282 496.50120544 -98.7795282 496.50120544 -95.7195282 496.50120544 C-95.7195282 485.94120544 -95.7195282 475.38120544 -95.7195282 464.50120544 C-98.48553406 464.52215271 -101.25153992 464.54309998 -104.10136414 464.56468201 C-113.23358406 464.6309194 -122.36581451 464.67512783 -131.49821091 464.70845413 C-137.03597963 464.7293413 -142.57350253 464.75767988 -148.11112976 464.80296326 C-153.45386933 464.84638024 -158.79637225 464.87033404 -164.1392746 464.88071442 C-166.179082 464.88811321 -168.21887624 464.90256112 -170.25858307 464.92412567 C-173.11271293 464.95310432 -175.96586117 464.95716374 -178.82011414 464.95530701 C-179.66600098 464.96968811 -180.51188782 464.98406921 -181.38340759 464.99888611 C-182.16300842 464.99338745 -182.94260925 464.98788879 -183.74583435 464.98222351 C-184.42058681 464.98591068 -185.09533928 464.98959785 -185.79053879 464.99339676 C-188.81080474 464.22276077 -189.90163081 463.02132541 -191.7195282 460.50120544 C-192.11450889 457.68843719 -192.2645303 455.26629832 -192.23419189 452.45433044 C-192.24113742 451.63702454 -192.24808295 450.81971863 -192.25523895 449.97764587 C-192.2735555 447.2352226 -192.26323194 444.49365984 -192.25297546 441.75120544 C-192.26003155 439.78668061 -192.26877525 437.82216122 -192.27908325 435.85765076 C-192.30162063 430.51885756 -192.29862752 425.18036019 -192.28976178 419.84153748 C-192.28465893 415.38798501 -192.29193866 410.93448848 -192.29923385 406.48094177 C-192.31624635 395.97723012 -192.31265298 385.4736637 -192.29594421 374.96995544 C-192.27901574 364.124836 -192.29486451 353.28011884 -192.32716709 342.43504333 C-192.35383374 333.13048824 -192.36114707 323.8260586 -192.35265201 314.52146912 C-192.34771497 308.96123833 -192.34998063 303.40124974 -192.37043953 297.84104919 C-192.38875102 292.61407928 -192.38289342 287.38768977 -192.35824013 282.16075134 C-192.35321808 280.24026278 -192.35675794 278.31973033 -192.36938858 276.39927673 C-192.3852459 273.78153773 -192.37043901 271.16572721 -192.34771729 268.54808044 C-192.35955301 267.78427063 -192.37138874 267.02046082 -192.38358313 266.23350525 C-192.31661951 262.44827433 -192.0272977 260.82755886 -189.38963223 258.03062439 C-185.95087446 256.06092537 -183.54311861 255.98425481 -179.59062195 255.96995544 C-178.91910599 255.96612854 -178.24759003 255.96230164 -177.5557251 255.95835876 C-176.14294425 255.95564853 -174.73011246 255.96294757 -173.31742859 255.97972107 C-171.15930728 256.00118278 -169.00450113 255.97987786 -166.84648132 255.95433044 C-165.46952088 255.95697323 -164.0925625 255.9620972 -162.71562195 255.96995544 C-161.46966248 255.97446716 -160.223703 255.97897888 -158.93998718 255.98362732 C-155.13819841 256.59463423 -153.9731776 257.42727776 -151.7195282 260.50120544 C-151.3895282 261.82120544 -151.0595282 263.14120544 -150.7195282 264.50120544 C-144.4495282 264.50120544 -138.1795282 264.50120544 -131.7195282 264.50120544 C-131.0595282 262.52120544 -130.3995282 260.54120544 -129.7195282 258.50120544 C-125.95145455 255.98915634 -122.97872383 256.21197565 -118.61413574 256.22273254 C-117.77852779 256.21694014 -116.94291983 256.21114774 -116.08199042 256.20517981 C-113.27208476 256.18812651 -110.46234282 256.18529874 -107.65238953 256.18235779 C-105.64211624 256.17306329 -103.63184683 256.16289534 -101.62158203 256.1519165 C-96.15500011 256.12454853 -90.68844405 256.10944698 -85.22181153 256.09648848 C-79.51225447 256.08088762 -73.80275046 256.05408775 -68.0932312 256.02845764 C-57.2773146 255.98161581 -46.46138808 255.94489788 -35.64542168 255.91178477 C-23.33358263 255.87360152 -11.02179679 255.82418145 1.28999746 255.77380061 C26.62011616 255.67040039 51.95026903 255.58116634 77.2804718 255.50120544 C76.44882539 255.09487507 75.61717897 254.68854469 74.76033115 254.26990128 C73.67349505 253.73386654 72.58665895 253.1978318 71.46688843 252.64555359 C70.38774201 252.11547321 69.3085956 251.58539284 68.19674778 251.03924942 C65.10136507 249.40674455 62.66761154 247.52959843 60.08906555 245.17308044 C53.10285013 239.89923422 45.67418805 240.52300296 37.3429718 240.75120544 C35.10381359 240.79028999 32.86602803 240.81753161 30.62652588 240.82194519 C28.61386643 240.82894529 26.60143965 240.8734592 24.58930969 240.92015076 C21.2804718 240.50120544 21.2804718 240.50120544 18.89155579 238.60569763 C16.19498143 235.08327439 16.16143925 233.02191052 16.18281555 228.61839294 C16.18603821 227.45179138 16.18926086 226.28518982 16.19258118 225.08323669 C16.20096008 223.85991638 16.20933899 222.63659607 16.2179718 221.37620544 C16.22248352 220.14515076 16.22699524 218.91409607 16.23164368 217.64573669 C16.2434585 214.59751153 16.25993153 211.5493823 16.2804718 208.50120544 C15.41881409 208.52477112 15.41881409 208.52477112 14.53974915 208.54881287 C11.91175871 208.61156057 9.28392643 208.6503205 6.6554718 208.68870544 C5.75183899 208.71384216 4.84820618 208.73897888 3.91719055 208.76487732 C-2.18995818 208.83174391 -6.6561981 208.29531176 -11.36405945 204.00120544 C-15.63163886 198.52043456 -15.88853781 194.41735156 -15.9226532 187.66917419 C-15.92835327 186.79980728 -15.93405334 185.93044037 -15.93992615 185.034729 C-15.94937098 183.19470942 -15.95590808 181.35467296 -15.95976257 179.51463318 C-15.96945556 176.70972401 -16.0004783 173.90555166 -16.0320282 171.10081482 C-16.03855987 169.31110562 -16.0438097 167.52139119 -16.0476532 165.73167419 C-16.06 164.8971019 -16.0723468 164.0625296 -16.08506775 163.20266724 C-16.0661302 158.21322675 -15.50551047 154.80720769 -12.7195282 150.50120544 C-12.03380737 149.98502655 -11.34808655 149.46884766 -10.6415863 148.93702698 C-7.66642038 145.16660338 -8.17979567 141.52605151 -8.23710632 136.85496521 C-8.23123756 135.38847031 -8.23123756 135.38847031 -8.22525024 133.89234924 C-8.21927359 131.77034716 -8.22244821 129.64830413 -8.2336731 127.52632332 C-8.25090422 124.16805034 -8.24344358 120.81064054 -8.22941589 117.45236206 C-8.19973365 109.11190773 -8.21296262 100.77161716 -8.22459412 92.43113708 C-8.2327912 85.38402146 -8.22488457 78.33728225 -8.19546509 71.29022026 C-8.18836123 67.98128853 -8.2050623 64.67301552 -8.22257996 61.36413574 C-8.21687273 59.33503361 -8.21005577 57.30593418 -8.20195007 55.27684021 C-8.21892189 53.89659416 -8.21892189 53.89659416 -8.23623657 52.48846436 C-8.19637372 48.31735374 -8.07426903 46.07924715 -5.84971619 42.45439148 C-3.32344461 40.13803331 -1.64530897 39.57010726 1.7023468 38.91917419 C2.72715149 38.70970154 3.75195618 38.50022888 4.80781555 38.28440857 C5.87129211 38.08782654 6.93476868 37.89124451 8.0304718 37.68870544 C9.64888977 37.36482849 9.64888977 37.36482849 11.30000305 37.03440857 C13.95717262 36.50532613 16.61656787 35.9950503 19.2804718 35.50120544 C16.64980087 32.7697411 13.97570903 30.41707215 10.90937805 28.18870544 C10.08760071 27.58800232 9.26582336 26.98729919 8.41914368 26.36839294 C7.56900696 25.75222107 6.71887024 25.13604919 5.8429718 24.50120544 C-8.40740245 14.12545694 -8.40740245 14.12545694 -9.7195282 11.50120544 C-10.2970482 5.26398946 -10.2970482 5.26398946 -8.05746746 2.30596828 C-5.14615459 0.05859199 -3.64981267 0.00075329 0 0 Z M32.2804718 216.50120544 C32.2804718 219.14120544 32.2804718 221.78120544 32.2804718 224.50120544 C34.2604718 224.50120544 36.2404718 224.50120544 38.2804718 224.50120544 C37.47232529 223.16522893 36.65883999 221.83248045 35.8429718 220.50120544 C35.39051086 219.75870544 34.93804993 219.01620544 34.47187805 218.25120544 C33.88213196 217.38495544 33.88213196 217.38495544 33.2804718 216.50120544 C32.9504718 216.50120544 32.6204718 216.50120544 32.2804718 216.50120544 Z " fill="#010101" transform="translate(193.7195281982422,-0.5012054443359375)"/>
<path d="M0 0 C6.93 0 13.86 0 21 0 C21.66 1.65 22.32 3.3 23 5 C25.95945335 6.47972667 28.6179564 6.14176792 31.92214966 6.15821838 C33.00015839 6.16561287 33.00015839 6.16561287 34.09994507 6.17315674 C36.52772778 6.18859382 38.95548427 6.19691006 41.38330078 6.20532227 C43.14571301 6.21503328 44.90812289 6.22517851 46.67053032 6.23572445 C51.40254643 6.26283467 56.13457187 6.28397918 60.86662292 6.30391693 C65.30229685 6.32350146 69.73793435 6.34842741 74.17358398 6.3729248 C87.15736199 6.4415026 100.14118431 6.50147189 113.125 6.5625 C142.12375 6.706875 171.1225 6.85125 201 7 C201 65.74 201 124.48 201 185 C126.42 185 51.84 185 -25 185 C-25 126.26 -25 67.52 -25 7 C-14.605 6.505 -14.605 6.505 -4 6 C-0.8509288 3.2981424 -0.8509288 3.2981424 0 0 Z " fill="#B1A2AA" transform="translate(42,264)"/>
<path d="M0 0 C8.58 0 17.16 0 26 0 C26.99 3.96 27.98 7.92 29 12 C29.31324219 13.12148438 29.62648438 14.24296875 29.94921875 15.3984375 C37.33372736 45.17090078 30.91392564 80.7297782 29.21862793 110.9151001 C28.64102952 121.21173498 28.07364394 131.50891784 27.51309204 141.80649376 C27.31790317 145.3586999 27.11667093 148.91052511 26.91479492 152.46235657 C26.3861276 161.91947577 25.87458645 171.38287477 25.703125 180.85424805 C25.67508789 182.15661911 25.64705078 183.45899017 25.61816406 184.80082703 C26.04818664 188.40372678 26.71512215 189.55357951 29.4375 191.875 C31.27315164 192.94895835 33.13133384 193.98457386 35 195 C36.38769261 195.92444465 37.76590225 196.86321035 39.13671875 197.8125 C40.63185277 198.83473846 42.12795471 199.8555626 43.625 200.875 C44.34099365 201.36468262 45.0569873 201.85436523 45.79467773 202.35888672 C46.49407471 202.81537598 47.19347168 203.27186523 47.9140625 203.7421875 C48.5323291 204.1532373 49.1505957 204.56428711 49.78759766 204.98779297 C52.96016632 206.43929039 55.50559658 206.88210357 59 207 C62.3689664 205.55148742 62.3689664 205.55148742 65.5546875 203.23046875 C66.14170441 202.83426834 66.72872131 202.43806793 67.33352661 202.02986145 C69.1936961 200.76699111 71.03357835 199.47750692 72.875 198.1875 C74.13426472 197.33098622 75.39467201 196.47614973 76.65625 195.62304688 C82.64796383 192.07060326 82.64796383 192.07060326 87 187 C87.61292938 176.18919394 86.62812459 165.27359392 85.94595337 154.48648071 C85.59670759 148.94091902 85.26528865 143.39429127 84.93359375 137.84765625 C84.82424751 136.02179237 84.82424751 136.02179237 84.71269226 134.15904236 C83.77686061 118.41241891 82.92385136 102.66128294 82.08483887 86.90924072 C81.904913 83.53310518 81.72280934 80.1570987 81.53869629 76.78118896 C81.31874865 72.74640452 81.10313871 68.71140979 80.89065361 64.67622566 C80.81168571 63.18863405 80.73134458 61.70111451 80.64943123 60.21368217 C80.38932487 55.47676162 80.17492167 50.74089863 80 46 C79.97353268 45.33879025 79.94706535 44.67758049 79.91979599 43.99633408 C79.54567314 33.59853799 80.76819274 24.10055052 83 14 C83.29053616 12.62791538 83.57960386 11.25551899 83.8671875 9.8828125 C84.56386501 6.58520561 85.27485433 3.29144132 86 0 C95.60593112 -0.13950982 105.21150929 -0.24587753 114.8182354 -0.31087303 C119.27990583 -0.34208051 123.74087913 -0.38435669 128.20214844 -0.45263672 C132.51402686 -0.51821132 136.82523818 -0.55378549 141.13757706 -0.56926346 C142.77615983 -0.58028204 144.41470936 -0.60179838 146.05300522 -0.63438034 C155.38555167 -0.81246735 163.82590133 -0.86425141 171 6 C175.06348847 10.75452732 177.26473334 15.64746152 179.18188477 21.55004883 C179.46700109 22.39481215 179.75211742 23.23957546 180.04587364 24.10993767 C181.00158544 26.95113185 181.94012431 29.79770238 182.87890625 32.64453125 C183.56988556 34.710376 184.26194135 36.77586095 184.95497131 38.84101868 C186.48235991 43.40006131 188.00204122 47.96158253 189.51641846 52.52496338 C191.90209563 59.71203225 194.30452852 66.89340489 196.71022487 74.07378936 C202.05461421 90.02674629 207.37623093 105.98725117 212.69270194 121.94952977 C214.71735663 128.02790811 216.74429754 134.10552235 218.77172464 140.18297642 C220.75531514 146.12921741 222.73774263 152.07584517 224.71918684 158.0228017 C225.89040413 161.53800281 227.06201304 165.05307198 228.23469353 168.56778526 C229.52528344 172.43614052 230.81343035 176.30530491 232.10131836 180.17456055 C232.48401886 181.32063782 232.86671936 182.46671509 233.26101685 183.64752197 C233.60949173 184.69576645 233.95796661 185.74401093 234.31700134 186.82402039 C234.7711537 188.187043 234.7711537 188.187043 235.23448086 189.57760143 C237.73708418 197.49680601 238.04245853 203.45937231 234.5 211.1875 C230.85203932 217.90968106 226.94783366 221.61778486 219.7421875 224.140625 C212.9941938 225.70967069 205.88667501 225.20782137 199 225.125 C197.54297489 225.11495155 196.08594309 225.10582899 194.62890625 225.09765625 C191.08579671 225.07578711 187.54294188 225.04135977 184 225 C183.99589111 223.90123535 183.99178223 222.8024707 183.98754883 221.67041016 C183.96559689 217.55113312 183.91114415 213.43278966 183.84741211 209.31396484 C183.82437101 207.53931704 183.80986934 205.76453518 183.80444336 203.98974609 C184.01528573 189.66771 184.01528573 189.66771 178 177 C175.08632378 174.29856275 172.44924416 172.37439293 168.56933594 171.37207031 C164.96697162 169.44834478 164.28206623 166.79036845 163.046875 163.109375 C162.78918839 162.39298859 162.53150177 161.67660217 162.26600647 160.93850708 C161.70546584 159.37276684 161.15366942 157.80387539 160.60952759 156.23236084 C159.74023119 153.72178717 158.84922859 151.21992098 157.9519043 148.71923828 C156.65544188 145.10162548 155.36771574 141.48106637 154.08544922 137.85839844 C150.77613385 128.53381253 147.36530048 119.24631714 143.94616699 109.96154785 C142.82347455 106.90487957 141.71061223 103.84475884 140.59863281 100.78417969 C139.90599258 98.89503793 139.21297724 97.00603364 138.51953125 95.1171875 C138.20758316 94.25215607 137.89563507 93.38712463 137.57423401 92.49588013 C135.57164482 86.78620819 135.57164482 86.78620819 132 82 C127.35605455 81.3598707 127.35605455 81.3598707 123.27922058 83.28404236 C121.60923367 85.16348071 121.60923367 85.16348071 122.0324707 88.89282227 C122.96742978 95.11582779 125.25160707 100.85869729 127.48046875 106.71484375 C128.16930822 108.56473358 128.8581448 110.41462448 129.54682636 112.2645731 C130.50952896 114.84269563 131.48166677 117.41721855 132.45373535 119.99182129 C134.60118311 125.6860768 136.72720746 131.38839718 138.85546875 137.08984375 C139.30767792 138.29885345 139.75988708 139.50786316 140.22579956 140.75350952 C143.70582033 150.09972519 146.96259788 159.50125856 150 169 C148.46460571 169.02187378 148.46460571 169.02187378 146.89819336 169.04418945 C143.07542189 169.10246505 139.25322155 169.17969421 135.4309082 169.26245117 C133.7812634 169.2955636 132.13150904 169.32363756 130.48168945 169.34643555 C128.10060232 169.38023533 125.72050694 169.43256004 123.33984375 169.48828125 C122.61039047 169.49467117 121.88093719 169.5010611 121.12937927 169.50764465 C113.27371551 169.72971947 107.65439545 172.60262253 102 178 C92.74778159 191.08072258 97.36049263 211.30127993 97 225 C49.15 225 1.3 225 -48 225 C-48 214.11 -48 203.22 -48 192 C-44.93074219 191.93941406 -41.86148438 191.87882813 -38.69921875 191.81640625 C-35.730525 191.75461907 -32.76186947 191.69123044 -29.79321289 191.62768555 C-27.72814324 191.58434197 -25.66303788 191.54266648 -23.59790039 191.50268555 C-20.63156365 191.44496917 -17.66540655 191.38127849 -14.69921875 191.31640625 C-13.31158577 191.29133751 -13.31158577 191.29133751 -11.8959198 191.26576233 C-11.03525406 191.24581711 -10.17458832 191.22587189 -9.2878418 191.20532227 C-8.53061325 191.18977798 -7.7733847 191.1742337 -6.99320984 191.15821838 C-4.79075185 191.06367677 -4.79075185 191.06367677 -2 190 C-0.81703944 186.45111832 -0.84680692 183.23338941 -0.84178162 179.53999329 C-0.83684364 178.77380572 -0.83190566 178.00761815 -0.82681805 177.21821278 C-0.81142386 174.64328014 -0.80307723 172.06837247 -0.79467773 169.4934082 C-0.78510072 167.65062235 -0.77509075 165.8078387 -0.76467896 163.96505737 C-0.73760468 158.95507831 -0.71660877 153.9450898 -0.69667697 148.93507791 C-0.67483298 143.70199623 -0.64743653 138.46894375 -0.62062073 133.23588562 C-0.57067237 123.32307224 -0.52574149 113.41024268 -0.48259836 103.4973976 C-0.4332443 92.21336384 -0.37831939 80.92935936 -0.32291877 69.64535391 C-0.20906582 46.43026306 -0.1024316 23.21514381 0 0 Z " fill="#EEEBEC" transform="translate(258,272)"/>
<path d="M0 0 C5.86432114 3.15969411 11.68851253 6.32654964 17.33203125 9.8671875 C18.39744141 10.52460938 19.46285156 11.18203125 20.56054688 11.859375 C22.75313635 13.21838541 24.94055274 14.58577305 27.12304688 15.9609375 C28.18201172 16.610625 29.24097656 17.2603125 30.33203125 17.9296875 C31.27796143 18.51991699 32.2238916 19.11014648 33.19848633 19.71826172 C36.42291456 21.19349032 38.491108 21.35654725 42 21 C44.56612191 19.8243446 46.84691732 18.63121831 49.25 17.1875 C49.93167236 16.79385254 50.61334473 16.40020508 51.31567383 15.99462891 C55.22182839 13.71946519 59.0566358 11.34328082 62.87109375 8.91796875 C64.07620605 8.15867065 64.07620605 8.15867065 65.30566406 7.3840332 C66.87009696 6.39287292 68.42584659 5.38784593 69.97167969 4.36791992 C70.68614258 3.91392822 71.40060547 3.45993652 72.13671875 2.9921875 C72.76280029 2.58339355 73.38888184 2.17459961 74.03393555 1.75341797 C76.77178558 0.7042431 78.20082112 1.15716597 81 2 C83.3543396 3.7858429 83.3543396 3.7858429 85.80615234 6.14575195 C86.72995697 7.02789871 87.6537616 7.91004547 88.6055603 8.81892395 C89.60019394 9.79084248 90.59362442 10.76399359 91.5859375 11.73828125 C92.09009815 12.22988424 92.5942588 12.72148724 93.11369705 13.22798729 C95.78212859 15.83069564 98.43850847 18.44502504 101.08544922 21.06958008 C103.81129132 23.76793043 106.57429714 26.42450662 109.34822655 29.07326984 C111.48408429 31.1267759 113.59006136 33.20907125 115.68919754 35.30003929 C116.69512449 36.29208578 117.7118478 37.27331498 118.73954391 38.24279213 C126.71244539 45.79415576 126.71244539 45.79415576 127.41941833 51.21737671 C126.99619737 57.06941212 125.55158732 62.58952121 123.3125 68 C123.0441333 68.67442139 122.7757666 69.34884277 122.49926758 70.04370117 C121.69042073 72.04040144 120.85247566 74.02158428 120 76 C119.30003906 77.63388672 119.30003906 77.63388672 118.5859375 79.30078125 C115.1003965 86.80735139 110.52467535 92.86780021 105 99 C104.37351562 99.70898438 103.74703125 100.41796875 103.1015625 101.1484375 C94.12121703 110.73505102 83.02905195 117.01469772 71 122 C70.28328125 122.31710938 69.5665625 122.63421875 68.828125 122.9609375 C49.91614274 130.85395489 24.72034996 128.90596077 6.125 121.3125 C4.41114655 120.55401917 2.70050112 119.78796114 1 119 C1 118.67 1 118.34 1 118 C1.69867188 117.95101562 2.39734375 117.90203125 3.1171875 117.8515625 C4.48230469 117.73941406 4.48230469 117.73941406 5.875 117.625 C6.77992188 117.55539063 7.68484375 117.48578125 8.6171875 117.4140625 C11.17941903 117.20431868 11.17941903 117.20431868 13 115 C13.57471477 110.91740162 13.57471477 110.91740162 13 107 C9.03519886 103.98040084 6.10706337 103.65830659 1.1953125 103.734375 C-0.76341797 103.72857422 -0.76341797 103.72857422 -2.76171875 103.72265625 C-4.81818782 103.73098997 -6.87310188 103.74996255 -8.92919922 103.79052734 C-20.3899476 103.98021111 -20.3899476 103.98021111 -24.3840332 101.54858398 C-26.16229936 99.79759257 -27.58819294 98.05328509 -29 96 C-29.63808594 95.23816406 -30.27617187 94.47632813 -30.93359375 93.69140625 C-38.55000994 82.90972619 -45.54457368 70.06868348 -48 57 C-48.14095093 56.38048462 -48.28190186 55.76096924 -48.42712402 55.12268066 C-48.94121889 51.05022904 -48.52475664 48.74691466 -46.13439941 45.34458923 C-43.35759825 42.31431307 -40.47110869 39.45815675 -37.5 36.62109375 C-36.42187163 35.55976885 -35.3457261 34.49642627 -34.27148438 33.4311676 C-31.45011292 30.64402344 -28.60277435 27.88497207 -25.74902344 25.13104248 C-22.83723391 22.31161814 -19.95101864 19.46627319 -17.0625 16.62304688 C-11.39961557 11.05644436 -5.70901572 5.51927929 0 0 Z " fill="#FDEDCE" transform="translate(275,121)"/>
<path d="M0 0 C14.06584975 -0.07044566 28.13167168 -0.12296054 42.19766235 -0.15543652 C48.73047036 -0.17103061 55.26315907 -0.19215367 61.79589844 -0.22631836 C68.11125852 -0.25913603 74.42650452 -0.27689995 80.74194336 -0.28463173 C83.14023634 -0.29013525 85.53852374 -0.30088117 87.93676758 -0.31719017 C104.31700185 -0.42405831 119.51465454 0.29304536 135.125 5.75 C135.87015869 6.00604004 136.61531738 6.26208008 137.38305664 6.52587891 C153.57277635 12.2655402 166.54831766 21.27824387 179 33 C179.60328125 33.53882813 180.2065625 34.07765625 180.828125 34.6328125 C193.68542411 46.58889905 203.16818688 64.23964824 208 81 C208.18046875 81.6098877 208.3609375 82.21977539 208.546875 82.84814453 C212.87702632 98.05853248 212.42130394 113.33235449 212 129 C208.7 129 205.4 129 202 129 C201.85304688 127.92685547 201.85304688 127.92685547 201.703125 126.83203125 C198.08633812 102.73051181 187.25116884 82.10556048 168 67 C147.77699051 52.56237253 127.04364581 49.45051632 102.75024414 49.49902344 C99.33588619 49.49999336 95.92379976 49.45829529 92.50976562 49.4140625 C64.85183812 49.26216948 41.39472063 56.37394422 20.9375 75.5625 C6.2927607 90.78930366 -0.03153453 108.6207626 -4 129 C-6.97 129 -9.94 129 -13 129 C-13 98.97 -13 68.94 -13 38 C-2.77 36.02 7.46 34.04 18 32 C22.97621743 29.49943407 22.97621743 29.49943407 25 26 C25.45837699 23.52387256 25.45837699 23.52387256 25 21 C23.60961939 19.06951118 23.60961939 19.06951118 21.5 17.4375 C20.29537109 16.42816406 20.29537109 16.42816406 19.06640625 15.3984375 C14.51391491 11.83763536 9.89724729 8.3639705 5.234375 4.94897461 C4.55761719 4.45147705 3.88085938 3.95397949 3.18359375 3.44140625 C2.57056396 2.99482666 1.95753418 2.54824707 1.32592773 2.08813477 C0.88837158 1.72905029 0.45081543 1.36996582 0 1 C0 0.67 0 0.34 0 0 Z " fill="#745966" transform="translate(215,15)"/>
<path d="M0 0 C3.28029074 0.01606196 6.55934656 0.00009818 9.83959961 -0.01904297 C33.73472861 -0.04486697 54.06181693 4.66011471 71.85327148 21.39111328 C83.14447268 32.68231448 92.98879936 50.95383545 93.10327148 67.26611328 C93.02077148 68.29736328 92.93827148 69.32861328 92.85327148 70.39111328 C87.41188518 65.86146406 82.40110278 61.04315285 77.43530273 56.00048828 C75.83582581 54.38837769 74.23621245 52.77640246 72.63647461 51.16455078 C70.13950929 48.64268238 67.64418027 46.11923485 65.15136719 43.59326172 C62.72954529 41.14130054 60.30159406 38.69554324 57.87280273 36.25048828 C57.1279512 35.49217712 56.38309967 34.73386597 55.61567688 33.95257568 C54.91782578 33.25134583 54.21997467 32.55011597 53.50097656 31.82763672 C52.89143631 31.21063904 52.28189606 30.59364136 51.65388489 29.95794678 C48.81666121 27.48908973 46.85847175 26.35016557 43.06640625 26.50463867 C39.11618596 27.59446846 35.89662483 29.43820682 32.44311523 31.57470703 C31.40822716 32.19805687 31.40822716 32.19805687 30.35243225 32.83399963 C28.15965829 34.15661215 25.97491724 35.49180908 23.79077148 36.82861328 C21.60188841 38.15977223 19.411388 39.48813112 17.21839905 40.81251526 C15.85784949 41.63504988 14.49982887 42.46178676 13.14476013 43.2933197 C11.3977316 44.35409504 9.6263113 45.37441135 7.85327148 46.39111328 C7.00877441 46.87918457 6.16427734 47.36725586 5.29418945 47.87011719 C1.51658617 48.67641899 -0.2743939 47.06341125 -3.47875977 45.04345703 C-4.0742009 44.67515274 -4.66964203 44.30684845 -5.28312683 43.92738342 C-7.18633999 42.74466427 -9.07247537 41.53737851 -10.95922852 40.32861328 C-12.21664377 39.54112965 -13.47509882 38.75530374 -14.73461914 37.97119141 C-24.2391864 32.03167746 -24.2391864 32.03167746 -27.57006836 29.68066406 C-28.2386084 29.21515137 -28.90714844 28.74963867 -29.59594727 28.27001953 C-30.12921631 27.87500244 -30.66248535 27.47998535 -31.21191406 27.07299805 C-34.52290337 25.90610932 -36.97963628 26.04628355 -40.14672852 27.39111328 C-43.81963802 30.24318214 -46.97908826 33.55076128 -50.20141602 36.89501953 C-51.15169078 37.85903859 -52.10338458 38.82166072 -53.056427 39.78294373 C-55.55175428 42.30673896 -58.02894805 44.84759204 -60.5022583 47.39294434 C-63.52077905 50.49330889 -66.55874506 53.57459797 -69.59549141 56.65709591 C-71.95525959 59.05267043 -74.31019866 61.45236338 -76.6569519 63.86073303 C-77.49517487 64.71839767 -78.33339783 65.57606232 -79.19702148 66.4597168 C-79.93757782 67.22059097 -80.67813416 67.98146515 -81.44113159 68.76539612 C-83.14672852 70.39111328 -83.14672852 70.39111328 -84.14672852 70.39111328 C-85.1164877 53.90520712 -77.68950614 37.79875119 -67.06469727 25.48876953 C-66.43176758 24.79654297 -65.79883789 24.10431641 -65.14672852 23.39111328 C-64.60661133 22.77107422 -64.06649414 22.15103516 -63.51000977 21.51220703 C-46.46200441 3.06073392 -23.67324225 -0.13787149 0 0 Z " fill="#735865" transform="translate(310.146728515625,78.60888671875)"/>
<path d="M0 0 C0.33 0 0.66 0 1 0 C1 59.73 1 119.46 1 181 C67 181 133 181 201 181 C201 122.92 201 64.84 201 5 C143.91 5 86.82 5 28 5 C28 4.67 28 4.34 28 4 C85.42 4 142.84 4 202 4 C202 62.74 202 121.48 202 182 C127.42 182 52.84 182 -24 182 C-24 123.26 -24 64.52 -24 4 C-13.605 3.505 -13.605 3.505 -3 3 C-2.01 2.01 -1.02 1.02 0 0 Z " fill="#9C8B94" transform="translate(41,267)"/>
<path d="M0 0 C5.94 0 11.88 0 18 0 C19.98281152 22.77288475 21.12055331 45.58927972 22.28710938 68.41552734 C22.56855771 73.91966718 22.85724986 79.42340062 23.1478672 84.92706299 C23.37421064 89.23219221 23.59618952 93.53753863 23.81696701 97.84295654 C23.92157157 99.87123044 24.02758214 101.89943242 24.13515091 103.92755127 C24.42563758 109.4246025 24.68819276 114.92130146 24.89798737 120.42205811 C24.96652461 122.15404986 25.04336781 123.8857311 25.12813568 125.61700439 C25.24494562 128.10003656 25.32536442 130.58168562 25.39599609 133.06640625 C25.4366601 133.79834702 25.4773241 134.53028778 25.51922035 135.28440857 C25.58836675 139.30081163 25.1675052 140.80589064 22.50576782 143.89038086 C19.76208552 145.94416888 17.07729659 147.50365897 14 149 C12.515 149.99 12.515 149.99 11 151 C4.61537739 150.45874307 -1.31319216 147.57134776 -5.75768852 143.00452805 C-8.33832615 138.84054776 -7.37697476 134.04756001 -6.97094727 129.35205078 C-6.8626967 127.63415942 -6.8626967 127.63415942 -6.75225925 125.88156319 C-6.59923119 123.46279901 -6.43366908 121.04479921 -6.25636673 118.62769318 C-5.93261973 114.04654185 -5.71153363 109.46382248 -5.4958334 104.87652397 C-5.21865827 99.0179688 -4.90004066 93.16157031 -4.58984375 87.3046875 C-4.45659409 84.76352754 -4.32350506 82.22235915 -4.19056702 79.68118286 C-3.88026735 73.75688697 -3.56839045 67.83267589 -3.25568539 61.90850651 C-2.89871126 55.14390057 -2.54384934 48.37918428 -2.18913066 41.61445975 C-1.46170604 27.74285254 -0.73166508 13.87138413 0 0 Z " fill="#58D2FB" transform="translate(305,312)"/>
<path d="M0 0 C0.08975098 0.58265625 0.17950195 1.1653125 0.27197266 1.765625 C4.25876293 27.0268814 12.58113965 52.02847971 33 69 C35.93364489 71.11297896 38.92631353 73.09724171 42 75 C41.86980469 74.40832031 41.73960937 73.81664062 41.60546875 73.20703125 C41.46753906 72.41683594 41.32960938 71.62664062 41.1875 70.8125 C41.03667969 70.03519531 40.88585937 69.25789063 40.73046875 68.45703125 C41 66 41 66 43.01879883 63.38354492 C46.70676394 60.43492455 49.44275409 60.30376987 53.96875 60.40625 C54.72667847 60.40620972 55.48460693 60.40616943 56.26550293 60.40612793 C57.86247076 60.41147171 59.45943894 60.42900595 61.05615234 60.45800781 C63.49268443 60.4998743 65.9264499 60.49907259 68.36328125 60.4921875 C69.91928993 60.50268105 71.47528444 60.51562005 73.03125 60.53125 C73.75534058 60.53145142 74.47943115 60.53165283 75.22546387 60.53186035 C80.84648305 60.66258173 84.06293861 62.06293861 88 66 C88.44560279 69.41628806 88.49476478 71.27186183 86.53417969 74.15722656 C82.82136127 76.85706793 79.56520942 76.60275224 75.078125 76.609375 C74.21813904 76.62591125 73.35815308 76.64244751 72.47210693 76.65948486 C69.73133212 76.70798368 66.9911122 76.72933956 64.25 76.75 C62.38929497 76.77815817 60.52861581 76.80808539 58.66796875 76.83984375 C54.11202485 76.91374297 49.55638933 76.96330595 45 77 C46.27728662 77.8043003 47.55535006 78.60736702 48.83374023 79.40991211 C49.90119728 80.08092201 49.90119728 80.08092201 50.99021912 80.76548767 C64.0920314 88.81330469 79.70153693 92.23222367 94.9375 92.0625 C96.10635742 92.05573242 96.10635742 92.05573242 97.29882812 92.04882812 C99.19925268 92.03716908 101.09963706 92.01923877 103 92 C89.13619493 103.26434162 66.5445935 102.42999884 49.73535156 100.77734375 C41.33865871 99.59973349 33.65231343 96.5458522 26 93 C26 92.67 26 92.34 26 92 C26.69867188 91.95101562 27.39734375 91.90203125 28.1171875 91.8515625 C29.48230469 91.73941406 29.48230469 91.73941406 30.875 91.625 C31.77992188 91.55539063 32.68484375 91.48578125 33.6171875 91.4140625 C36.17941903 91.20431868 36.17941903 91.20431868 38 89 C38.57471477 84.91740162 38.57471477 84.91740162 38 81 C34.03519886 77.98040084 31.10706337 77.65830659 26.1953125 77.734375 C24.23658203 77.72857422 24.23658203 77.72857422 22.23828125 77.72265625 C20.18181218 77.73098997 18.12689812 77.74996255 16.07080078 77.79052734 C4.6100524 77.98021111 4.6100524 77.98021111 0.6159668 75.54858398 C-1.16229936 73.79759257 -2.58819294 72.05328509 -4 70 C-4.63808594 69.23816406 -5.27617187 68.47632813 -5.93359375 67.69140625 C-13.55000994 56.90972619 -20.54457368 44.06868348 -23 31 C-23.15654053 30.34894287 -23.31308105 29.69788574 -23.47436523 29.02709961 C-24.05898823 24.81413951 -23.50391072 22.68297107 -20.94775391 19.21850586 C-18.08675141 16.16347192 -15.12299406 13.28880167 -12.0625 10.4375 C-11.00907266 9.42068262 -9.95761724 8.40181812 -8.90820312 7.38085938 C-1.26174653 0 -1.26174653 0 0 0 Z " fill="#FCE5B6" transform="translate(250,147)"/>
<path d="M0 0 C1.53642151 -0.00717545 1.53642151 -0.00717545 3.10388184 -0.01449585 C5.26572204 -0.01789264 7.42761375 -0.00870578 9.58935547 0.01220703 C12.8953726 0.03897443 16.19799453 0.01245033 19.50390625 -0.01953125 C21.60677832 -0.01622711 23.70964827 -0.00982081 25.8125 0 C27.29236389 -0.01518173 27.29236389 -0.01518173 28.80212402 -0.03067017 C33.25238701 0.04520091 35.73508494 0.23139205 39.5378418 2.68286133 C41.9376006 6.51187672 42.04282291 9.65067083 41.89453125 14.02734375 C41.88745651 14.81932663 41.88038177 15.61130951 41.87309265 16.42729187 C41.84521244 18.94469639 41.782492 21.45983606 41.71875 23.9765625 C41.69365861 25.6881188 41.67084691 27.39971015 41.65039062 29.11132812 C41.59540747 33.29643904 41.50918418 37.47986746 41.40625 41.6640625 C38.43625 41.6640625 35.46625 41.6640625 32.40625 41.6640625 C32.28507812 40.74882812 32.16390625 39.83359375 32.0390625 38.890625 C31.78769531 37.10785156 31.78769531 37.10785156 31.53125 35.2890625 C31.36882812 34.10570312 31.20640625 32.92234375 31.0390625 31.703125 C30.6759915 28.56839591 30.6759915 28.56839591 28.40625 26.6640625 C23.83739218 26.1365511 23.83739218 26.1365511 19.7265625 27.796875 C17.85588954 30.44238291 17.89121126 32.64378303 17.71875 35.8515625 C17.65300781 36.93824219 17.58726562 38.02492188 17.51953125 39.14453125 C17.48214844 39.97597656 17.44476563 40.80742187 17.40625 41.6640625 C14.43625 41.6640625 11.46625 41.6640625 8.40625 41.6640625 C8.33277344 40.52517578 8.33277344 40.52517578 8.2578125 39.36328125 C8.18304688 38.36941406 8.10828125 37.37554687 8.03125 36.3515625 C7.96164062 35.36542969 7.89203125 34.37929688 7.8203125 33.36328125 C7.56759528 30.44877817 7.56759528 30.44877817 5.40625 27.6640625 C3.55347391 26.9743038 3.55347391 26.9743038 1.46875 26.7890625 C0.77910156 26.68851562 0.08945312 26.58796875 -0.62109375 26.484375 C-2.65455805 26.51569609 -2.65455805 26.51569609 -4.3046875 27.76953125 C-6.12034041 30.43799083 -6.10928468 32.65300752 -6.28125 35.8515625 C-6.34699219 36.93824219 -6.41273438 38.02492188 -6.48046875 39.14453125 C-6.51785156 39.97597656 -6.55523437 40.80742187 -6.59375 41.6640625 C-9.56375 41.6640625 -12.53375 41.6640625 -15.59375 41.6640625 C-15.7176222 36.62875287 -15.80821514 31.59433553 -15.8684082 26.55786133 C-15.89350714 24.84579005 -15.92759429 23.13382546 -15.97094727 21.42211914 C-16.03180739 18.95692605 -16.06000432 16.49315265 -16.08203125 14.02734375 C-16.10783768 13.26569412 -16.1336441 12.50404449 -16.16023254 11.71931458 C-16.16217255 8.01879043 -15.69979677 5.83326897 -13.7253418 2.68286133 C-9.18402559 -0.24472452 -5.30189061 -0.05439141 0 0 Z " fill="#FDEDCE" transform="translate(385.59375,455.3359375)"/>
<path d="M0 0 C0.34858132 7.30832948 0.6299212 14.61713364 0.86669922 21.92993164 C0.9547614 24.41228531 1.05767691 26.89416162 1.17626953 29.37524414 C2.34724792 54.26103703 2.34724792 54.26103703 -7 66 C-8.42577315 68.96587718 -9.43373188 71.97617409 -10.375 75.125 C-10.61557129 75.88345215 -10.85614258 76.6419043 -11.10400391 77.42333984 C-12.89287325 83.21898062 -14.1415576 88.99090322 -15 95 C-17.97 95 -20.94 95 -24 95 C-24 64.97 -24 34.94 -24 4 C-3 0 -3 0 0 0 Z " fill="#654655" transform="translate(226,49)"/>
<path d="M0 0 C2.27332729 2.09299123 2.89408526 3.05195433 4 6.0625 C3.85098672 9.56431197 3.00114404 11.24388736 0.875 14 C-2.16132717 15.51816358 -3.71447399 15.49607651 -7.125 15 C-9.16796875 13.578125 -9.16796875 13.578125 -11.375 11.75 C-18.32904117 6.01698613 -25.24789973 3.2242921 -34.3359375 3.62109375 C-41.7119057 4.62315105 -47.47564636 7.35005398 -53.375 11.8125 C-56.76039622 14.32059958 -57.71408324 14.98043254 -62.0625 15.1875 C-65.125 14 -65.125 14 -67.125 12.375 C-68.67664303 8.68984781 -68.35238072 6.81134012 -67.125 3 C-60.93527667 -4.73715416 -50.11635336 -10.06333705 -40.4609375 -11.75390625 C-25.12194046 -13.36988754 -12.20580765 -9.49063819 0 0 Z " fill="#040404" transform="translate(162.125,349)"/>
<path d="M0 0 C11.22 0 22.44 0 34 0 C34 10.89 34 21.78 34 33 C22.78 33 11.56 33 0 33 C0 22.11 0 11.22 0 0 Z " fill="#937D88" transform="translate(113,464)"/>
<path d="M0 0 C0.75792847 -0.00004028 1.51585693 -0.00008057 2.29675293 -0.00012207 C3.89372076 0.00522171 5.49068894 0.02275595 7.08740234 0.05175781 C9.52393443 0.0936243 11.9576999 0.09282259 14.39453125 0.0859375 C15.95053993 0.09643105 17.50653444 0.10937005 19.0625 0.125 C19.78659058 0.12520142 20.51068115 0.12540283 21.25671387 0.12561035 C26.87773305 0.25633173 30.09418861 1.65668861 34.03125 5.59375 C34.4777797 9.01714439 34.52633776 10.86783987 32.55664062 13.75585938 C28.87135076 16.43788394 25.7028167 16.16897466 21.25 16.125 C19.9742511 16.13074036 19.9742511 16.13074036 18.67272949 16.13659668 C16.87734796 16.13931458 15.08192676 16.13196182 13.28662109 16.11523438 C10.54044207 16.09382167 7.79687903 16.11503871 5.05078125 16.140625 C3.30468173 16.1379817 1.55858384 16.13285667 -0.1875 16.125 C-1.00738403 16.13309692 -1.82726807 16.14119385 -2.67199707 16.14953613 C-6.45864905 16.08733608 -8.36514185 16.03789679 -11.48242188 13.74414062 C-12.96875 11.59375 -12.96875 11.59375 -13.53125 8.65625 C-12.16264084 1.20493347 -6.74298255 -0.15267838 0 0 Z " fill="#080706" transform="translate(303.96875,207.40625)"/>
<path d="M0 0 C9.57 0 19.14 0 29 0 C27.65196345 8.76223756 26.23643984 16.56252241 24 25 C17.4 25 10.8 25 4 25 C3.34 21.98875 2.68 18.9775 2 15.875 C1.79117187 14.93769043 1.58234375 14.00038086 1.3671875 13.03466797 C1.20476562 12.27814941 1.04234375 11.52163086 0.875 10.7421875 C0.70742188 9.9776123 0.53984375 9.21303711 0.3671875 8.42529297 C0 6 0 6 0 0 Z " fill="#7FD8F6" transform="translate(300,272)"/>
<path d="M0 0 C5.61 0 11.22 0 17 0 C17 11.22 17 22.44 17 34 C11.39 34 5.78 34 0 34 C0 22.78 0 11.56 0 0 Z " fill="#F1B73F" transform="translate(194,159)"/>
<path d="M0 0 C3.72717109 2.08956364 6.62748314 3.91258613 8.625 7.8125 C8.625 11.44325827 8.03676127 13.23298414 5.9375 16.1875 C2.9105819 18.31452353 1.25644937 18.34208637 -2.375 17.8125 C-2.99375 17.3175 -3.6125 16.8225 -4.25 16.3125 C-7.42402015 14.07201519 -10.66367473 14.22375563 -14.375 14.8125 C-15.220625 15.328125 -16.06625 15.84375 -16.9375 16.375 C-19.375 17.8125 -19.375 17.8125 -23 17.75 C-26.375 16.8125 -26.375 16.8125 -28.375 15.1875 C-29.88271908 11.60666719 -29.47803513 9.51091189 -28.375 5.8125 C-20.5397206 -2.39588795 -10.35447113 -4.83411981 0 0 Z " fill="#070606" transform="translate(140.375,363.1875)"/>
<path d="M0 0 C9.17642835 -1.07723289 17.50582908 -1.90714332 25.30078125 3.73583984 C27.93316787 5.86509245 30.49590919 8.0596968 33.02539062 10.31005859 C36.34435852 13.15055016 39.93077308 15.61201622 43.5 18.125 C45.73109352 19.69660691 47.86798298 21.2907105 50 23 C50 23.66 50 24.32 50 25 C46.2532344 25.86879579 42.5021914 26.71747243 38.75 27.5625 C37.68652344 27.80935547 36.62304688 28.05621094 35.52734375 28.31054688 C33.99013672 28.65375977 33.99013672 28.65375977 32.421875 29.00390625 C31.00793457 29.32597046 31.00793457 29.32597046 29.56542969 29.65454102 C27.00668461 29.99909986 25.42256081 29.819982 23 29 C23.66 28.01 24.32 27.02 25 26 C25.45837699 23.52387256 25.45837699 23.52387256 25 21 C23.60961939 19.06951118 23.60961939 19.06951118 21.5 17.4375 C20.29537109 16.42816406 20.29537109 16.42816406 19.06640625 15.3984375 C14.51391491 11.83763536 9.89724729 8.3639705 5.234375 4.94897461 C4.55761719 4.45147705 3.88085938 3.95397949 3.18359375 3.44140625 C2.57056396 2.99482666 1.95753418 2.54824707 1.32592773 2.08813477 C0.88837158 1.72905029 0.45081543 1.36996582 0 1 C0 0.67 0 0.34 0 0 Z " fill="#654655" transform="translate(215,15)"/>
<path d="M0 0 C5.61 0 11.22 0 17 0 C17 10.89 17 21.78 17 33 C11.39 33 5.78 33 0 33 C0 22.11 0 11.22 0 0 Z " fill="#FBBF42" transform="translate(418,159)"/>
<path d="M0 0 C1.25425781 0.04511719 2.50851562 0.09023438 3.80078125 0.13671875 C4.75339844 0.19472656 5.70601563 0.25273437 6.6875 0.3125 C6.36394531 1.10269531 6.04039062 1.89289063 5.70703125 2.70703125 C4.21965824 7.96697487 4.36423595 13.14752645 4.38476562 18.58789062 C4.32776963 20.92840344 4.24239162 23.03704102 3.6875 25.3125 C1.20703125 27.33203125 1.20703125 27.33203125 -1.3125 28.3125 C-3.12365956 30.12365956 -2.69449448 32.92528227 -2.875 35.375 C-2.95878906 36.47972656 -3.04257812 37.58445312 -3.12890625 38.72265625 C-3.18949219 39.57730469 -3.25007813 40.43195313 -3.3125 41.3125 C-6.2825 41.3125 -9.2525 41.3125 -12.3125 41.3125 C-12.4363722 36.27719037 -12.52696514 31.24277303 -12.5871582 26.20629883 C-12.61225714 24.49422755 -12.64634429 22.78226296 -12.68969727 21.07055664 C-12.75055739 18.60536355 -12.77875432 16.14159015 -12.80078125 13.67578125 C-12.82658768 12.91413162 -12.8523941 12.15248199 -12.87898254 11.36775208 C-12.8810815 7.36403225 -12.47785848 5.52682249 -10.00390625 2.3203125 C-6.47821876 -0.30988107 -4.34668195 -0.20311598 0 0 Z " fill="#FDE6B6" transform="translate(382.3125,455.6875)"/>
<path d="M0 0 C11.22 0 22.44 0 34 0 C34 10.89 34 21.78 34 33 C33.67 33 33.34 33 33 33 C33 24.75 33 16.5 33 8 C22.44 8 11.88 8 1 8 C1 16.25 1 24.5 1 33 C0.67 33 0.34 33 0 33 C0 22.11 0 11.22 0 0 Z " fill="#79636D" transform="translate(113,464)"/>
<path d="M0 0 C2.6923481 2.18753283 2.93936827 3.58423955 3.4375 7 C3 10 3 10 1.4375 12.375 C-1.93510779 14.62340519 -4.02512383 14.56783945 -8 14 C-10.4375 12.375 -10.4375 12.375 -12 10 C-12.60024477 6.39853135 -12.45562482 4.72140596 -10.5 1.625 C-6.73102871 -0.82483134 -4.45665069 -0.5659239 0 0 Z " fill="#0A0908" transform="translate(278,161)"/>
<path d="M0 0 C2 1.0625 2 1.0625 3 3 C3.49573337 6.89504791 3.58016848 9.09493717 1.4375 12.4375 C-1.90506283 14.58016848 -4.10495209 14.49573337 -8 14 C-9.9375 13 -9.9375 13 -11 11 C-11.52673518 7.43897344 -11.62932095 4.2586419 -10 1 C-6.7413581 -0.62932095 -3.56102656 -0.52673518 0 0 Z " fill="#060605" transform="translate(359,161)"/>
<path d="M0 0 C2 1.0625 2 1.0625 3 3 C3.50030235 6.93094707 3.5996142 9.1005787 1.375 12.4375 C-1.71685231 14.47161336 -3.36367425 14.60605429 -7 14 C-9.375 12.4375 -9.375 12.4375 -11 10 C-11.42213381 6.56262469 -11.60856522 4.17909511 -10 1.0625 C-6.75978228 -0.65886567 -3.58042244 -0.52960415 0 0 Z " fill="#030303" transform="translate(134,386)"/>
</svg>
