<?xml version="1.0" encoding="utf-8"?>
<!-- Generator: Adobe Illustrator 25.4.1, SVG Export Plug-In . SVG Version: 6.00 Build 0)  -->
<svg version="1.1" id="Layer_1" xmlns="http://www.w3.org/2000/svg" xmlns:xlink="http://www.w3.org/1999/xlink" x="0px" y="0px"
	 viewBox="0 0 500 500" style="enable-background:new 0 0 500 500;" xml:space="preserve">
<style type="text/css">
	.st0{fill:#1B1464;stroke:#000000;stroke-width:0.25;stroke-miterlimit:10;}
	.st1{fill:#1B1464;}
	.st2{fill:#BE1E2D;}
	.st3{fill:#22B573;}
	.st4{fill:#F15A24;}
	.st5{fill:#4D4D4D;}
	.st6{fill:#22B473;}
	.st7{fill:#2BB673;}
	.st8{font-family:'Garamond-Bold';}
	.st9{font-size:27px;}
</style>
<path class="st0" d="M208.91,274.76"/>
<path class="st1" d="M240.78,300.59c29.19-15.41,58.39-30.81,87.58-46.22c20.27,0.41,40.55,0.81,60.82,1.22
	c-27.98,15-55.95,30-83.93,45.01C283.76,300.59,262.27,300.59,240.78,300.59z"/>
<path class="st1" d="M151.91,259.7v51.06h58.72c1.73-5.61,0.85-8.29-0.34-9.71c-1.51-1.81-3.22-1.19-7.3-3.65
	c-2.48-1.5-2.72-2.25-6.08-4.87c-1.6-1.24-4.04-3.01-7.3-4.87c-3.65-1.98-8.53-5.34-12.16-10.95c-4.94-7.62-3.8-13.58-8.51-17.03
	C166.27,257.74,161.43,256.38,151.91,259.7z"/>
<path class="st1" d="M184.82,261.67c-0.14,0.26,0.19,0.68,1.07,1.66c3.76,4.16,7.22,6.93,8.66,8.07c0,0,2.65,2.1,8.51,6.08
	c1.54,1.04,2.16,1.43,2.43,1.22c0.84-0.66-1.61-6.72-6.08-10.95C193.7,262.34,185.39,260.6,184.82,261.67z"/>
<path class="st1" d="M168,244.79l117.78-60.97c10.74-0.55,22.58-0.32,35.28,1.22c2.91,0.35,5.75,0.76,8.51,1.22
	c2.63,0.65,7.41,2.2,12.16,6.08c4.87,3.97,7.36,8.47,8.51,10.95v37.16c-4.46,3.02-8.92,6.04-13.38,9.06c0-8.92,0-17.84,0-26.76
	c0-1.62,0-3.24,0-4.87c-36.9,19.46-73.79,38.92-110.69,58.39c0.41,5.68,0.81,11.35,1.22,17.03c-4.87-3.24-9.73-6.49-14.6-9.73
	c0.43-1.36,1.45-5.2,0-9.73c-1.27-3.97-3.75-6.35-4.87-7.3c17.55-8.26,35.91-17.91,54.74-29.19c6.71-4.03,13.2-8.09,19.46-12.16
	c-7.61,3.08-15.32,6.32-23.11,9.73c-19.77,8.64-38.42,17.63-55.95,26.76c-2.81-1.63-6.92-3.61-12.16-4.87
	c-4.84-1.16-9.06-1.33-12.16-1.22C175.16,251.99,171.58,248.39,168,244.79z"/>
<path class="st2" d="M97.24,140.89c1.09-4.25-0.62-7.56-3.65-14.6c-4.88-11.35-7.29-17.05-6.08-18.25
	c2.03-1.99,11.54,2.64,18.25,9.73c7.21,7.62,13.13,20.32,10.95,32.84c-1.36,7.78-5.21,10.15-4.87,18.25
	c0.28,6.59,3.02,11.45,4.87,14.6c14.91,25.36,34.06,46.22,34.06,46.22c12.05,13.13,18.08,19.7,24.33,25.54
	c20.73,19.4,39.11,31.09,53.52,40.14c14.08,8.85,29.71,18.58,52.3,27.98c13.81,5.75,31.15,12.82,54.74,15.81
	c3.43,0.43,18.01,2.18,36.49,0c13.64-1.61,19.56-4.2,23.11-6.08c7.56-4.01,13.12-9.5,15.81-12.16c2.17-2.14,4.67-4.64,7.3-8.51
	c3.38-4.99,5.09-9.49,6.08-12.16c2.82-7.57,3.01-12.22,3.65-12.16c0.78,0.07,1.34,8.38,0,17.03c-0.71,4.58-2.43,14.89-9.73,25.54
	c-10.81,15.76-26.3,21.29-31.63,23.11c-6.7,2.29-11.98,2.85-19.46,3.65c-12.09,1.29-22.44,0.61-31.63,0
	c-3.6-0.24-8.03-0.53-13.38-1.22c-9.68-1.24-19.98-3.46-35.28-8.51c-9.48-3.13-27.83-9.29-50.74-21.1
	c-19.89-10.25-34.83-20.5-42.92-26.34c-10.55-7.62-26.39-19.2-43.43-37.48c0,0-18.23-19.56-51.45-64.7
	c-0.19-0.26-0.79-1.07-1.67-2.09c-1.25-1.45-3.09-3.34-5.63-5.2c-1.23-0.91-4.27-3.14-12.16-6.08c-7.13-2.65-8.22-2.5-10.95-3.65
	c-12.6-5.32-17.47-20.66-18.25-23.11c-0.57-1.79-3.08-10.14-1.22-20.68c1.3-7.34,4.12-12.33,6.08-15.81
	c2.25-3.98,2.84-4.9,3.65-4.87c2.62,0.11,4.58,9.01,6.08,15.81c0.41,1.88,0.26,1.41,1.22,6.08c2.35,11.47,3.09,13.35,4.87,14.6
	c0.67,0.47,2.89,0.72,7.3,1.22c8.76,0.98,10.1,0.47,10.95,0c1.68-0.92,2.74-2.64,4.87-6.08C95.25,145.51,96.63,143.27,97.24,140.89z
	"/>
<path class="st3" d="M89.95,101.11c1.47,0.46,4.24-21.58,19.46-35.28c7.38-6.64,15.09-8.98,25.54-12.16
	c12.46-3.79,25.29-5.32,38.92-4.87c31,1.04,54.22,11.98,77.85,23.11c5.87,2.76,26.03,12.48,49.87,29.19
	c24.81,17.4,40.73,33.35,45.01,37.71c3.69,3.76,11,11.42,19.46,21.89c15.31,18.95,24.41,34.78,26.76,38.92
	c9.2,16.25,13.88,24.53,17.03,37.71c4.96,20.8,2,36.51,1.22,40.14c-1.57,7.25-3.36,15.55-9.73,24.33
	c-1.44,1.98-7.93,10.63-20.68,17.03c-21.28,10.68-42.55,6.31-42.57,7.3c-0.02,0.77,13,3.27,29.19,1.22
	c7.76-0.98,18.53-2.35,29.19-8.51c22.93-13.25,29.09-39.39,30.41-45.01c4.75-20.17-0.05-36.23-4.87-52.3
	c-7.91-26.43-21.77-44.36-35.28-62.04c-10.18-13.32-19.02-22.5-24.33-27.98c-21.88-22.58-41.71-36.9-49.87-42.57
	c-26.68-18.54-49.89-28.79-59.6-32.84c-13.33-5.56-34.54-14.24-63.25-18.25c-5.62-0.78-22.68-2.97-43.79,0
	c-13.24,1.86-19.59,4.56-24.33,7.3c-9.39,5.43-14.77,12.42-18.25,17.03c0,0-9.07,12.02-12.16,25.54c-0.9,3.95-1.22,8.51-1.22,8.51
	C89.73,99.41,89.62,101,89.95,101.11z"/>
<path class="st3" d="M181.18,232.47l83.93-43.79c-2.51-3.47-5.17-8.39-6.08-14.6c-0.58-3.94-0.27-7.11,0-9.73
	c0.51-4.87,1.56-7.97,3.65-14.6c1.11-3.51,2.8-8.93,4.87-15.81c-28.38,15-56.76,30-85.15,45.01c-0.71,0.94-1.56,2.16-2.43,3.65
	c-0.27,0.45-1.32,2.26-2.43,4.87c-0.59,1.38-1.6,3.94-2.43,7.3c-0.49,1.97-0.96,4.44-1.22,7.3c-0.15,1.73-0.41,4.78,0,8.51
	c0.1,0.9,0.44,3.72,2.43,9.73C177.35,223.45,178.9,227.64,181.18,232.47z"/>
<path class="st4" d="M169.01,204.5c0.14-4.46,0.88-10.96,3.65-18.25c2.19-5.76,4.97-10.22,7.3-13.38
	c23.11-11.35,46.22-22.71,69.33-34.06c-0.62-4.23-1.02-10.13,0-17.03c0.8-5.43,2.26-9.95,3.65-13.38L168,153.64
	c-1.11,3.92-2.06,8.31-2.64,13.15C163.48,182.39,166.21,195.59,169.01,204.5z"/>
<path class="st2" d="M158.06,124.22l84.66-44.23c-1.23,3.36-2.46,7.61-3.16,12.6c-0.96,6.82-0.61,12.69,0,17.03
	c-24.94,13.17-49.88,26.35-74.82,39.52l-5.46,20.08c-1.02-3.67-1.97-8.18-2.43-13.38c-0.46-5.11-0.33-9.64,0-13.38
	C157.25,136.38,157.66,130.3,158.06,124.22z"/>
<path class="st5" d="M252.75,275.77c5.11,2.93,12.96,6.6,23.11,8.46c13.79,2.52,25.19,0.46,31.63-1.22
	c15.41-8.51,30.82-17.03,46.22-25.54c-3.73,1.1-17.55,4.7-31.63-2.43c-6.54-3.32-10.85-7.79-13.38-10.95
	C290.05,254.65,271.4,265.21,252.75,275.77z"/>
<path class="st6" d="M252.75,274.56c5.11,2.93,12.96,6.6,23.11,8.46c13.79,2.52,25.19,0.46,31.63-1.22
	c15.41-8.51,30.82-17.03,46.22-25.54c-3.73,1.1-17.55,4.7-31.63-2.43c-6.54-3.32-10.85-7.79-13.38-10.95
	C290.05,253.44,271.4,264,252.75,274.56z"/>
<g>
	<g>
		<path class="st7" d="M21.61,375.06h25.51c11.46,0,19.09,5.8,19.09,15.5c0,10.08-7.18,16.12-19.28,16.12h-13.3v17.69H21.61V375.06z
			 M33.64,397.39h12.37c5.07,0,8.27-1.74,8.27-6.64c0-3.99-2.46-6.46-8.27-6.46H33.64V397.39z"/>
		<path class="st7" d="M86.93,405.37v19H75.08v-49.31h26.85c11.37,0,17.88,5.61,17.88,14.09c0,6.37-3.7,10.11-8.58,11.66
			c2.02,0.79,7.31,2.73,7.31,11.59v2.46c0,3.38-0.06,7.18,0.62,9.51h-12.28c-0.82-2.17-0.92-5.08-0.92-10.32v-1.62
			c0-4.98-1.83-7.06-9.02-7.06H86.93z M86.93,396.39h12.33c5.81,0,8.33-2.09,8.33-6.25c0-3.9-2.58-6.11-8.22-6.11H86.93V396.39z"/>
		<path class="st7" d="M141.73,375.06v49.31h-11.97v-49.31H141.73z"/>
		<path class="st7" d="M154.61,424.37v-49.31h14.17c13.85,21.14,19.38,28.84,22.47,34.7h0.14c-0.48-5.18-0.41-14.4-0.41-22.52
			v-12.18h10.96v49.31h-13.28c-4.65-7.34-20.42-31.85-23.36-37.48h-0.14c0.41,6.09,0.41,13.1,0.41,21.86v15.63H154.61z"/>
		<path class="st7" d="M226.26,384.59h-17.36v-9.53h46.62v9.53h-17.29v39.78h-11.97V384.59z"/>
		<path class="st2" d="M312.77,399.54c0,13.67-9.11,25.88-27.05,25.88c-16.72,0-26.27-11.43-26.27-25.82
			c0-13.56,10.11-25.59,26.83-25.59C303.5,374.01,312.77,386.1,312.77,399.54z M272.07,399.45c0,9.32,4.73,16.63,14.33,16.63
			c9.93,0,13.75-8.38,13.75-16.39c0-8.74-4.26-16.33-14.24-16.33C276.32,383.36,272.07,391.14,272.07,399.45z"/>
		<path class="st2" d="M322.61,424.37v-49.31h14.17c13.85,21.14,19.38,28.84,22.47,34.7h0.14c-0.48-5.18-0.41-14.4-0.41-22.52
			v-12.18h10.96v49.31h-13.28c-4.65-7.34-20.42-31.85-23.36-37.48h-0.14c0.41,6.09,0.41,13.1,0.41,21.86v15.63H322.61z"/>
		<path class="st2" d="M422.29,403.57h-27.52v11.22h30.6l-1.38,9.58h-41.19v-49.31h40.97v9.58h-29v9.34h27.52V403.57z"/>
		<path class="st2" d="M464.92,424.37l-12.59-17.25h-0.15l-12.21,17.25h-13.36l18.99-25.2l-18.44-24.11h14.12l11.69,15.93l0.07-0.01
			l11.77-15.92h12.88l-18.44,23.56l19.5,25.75H464.92z"/>
	</g>
</g>
<text transform="matrix(1 0 0 1 139.3263 453.1074)" class="st8 st9">Printing and Digital Solutions</text>
</svg>
