<?xml version="1.0" encoding="UTF-8"?>
<svg version="1.1" xmlns="http://www.w3.org/2000/svg" width="512" height="512">
<path d="M0 0 C0.74167923 -0.00817749 1.48335846 -0.01635498 2.24751282 -0.02478027 C4.70764355 -0.04963826 7.1677165 -0.06615255 9.62792969 -0.08056641 C10.46811394 -0.08589008 11.30829819 -0.09121376 12.17394257 -0.09669876 C16.62230009 -0.123434 21.07062953 -0.14280638 25.51904297 -0.15722656 C30.11035266 -0.17386211 34.70094282 -0.21862905 39.29198074 -0.26959801 C42.82479663 -0.30328406 46.35744215 -0.31480551 49.89040375 -0.32045364 C51.58248128 -0.327164 53.27454768 -0.3423806 54.96646881 -0.36634445 C57.33891554 -0.39802569 59.70942784 -0.39802916 62.08203125 -0.390625 C62.77732437 -0.40703033 63.47261749 -0.42343567 64.1889801 -0.44033813 C67.95070611 -0.39243616 70.31948967 0.24500523 73.21966553 2.5418396 C75.88440768 5.27979865 76.73393649 6.66736358 76.89746094 10.45458984 C76.88585937 11.25509766 76.87425781 12.05560547 76.86230469 12.88037109 C76.85328125 13.68861328 76.84425781 14.49685547 76.83496094 15.32958984 C76.82335937 15.94447266 76.81175781 16.55935547 76.79980469 17.19287109 C78.02957031 17.14646484 79.25933594 17.10005859 80.52636719 17.05224609 C82.15915528 17.01471074 83.7919698 16.97831247 85.42480469 16.94287109 C86.23304687 16.90935547 87.04128906 16.87583984 87.87402344 16.84130859 C93.34361385 16.75237216 96.52951402 17.43501531 100.79980469 21.19287109 C102.56185335 24.06558075 103.04296688 26.17151765 102.99511719 29.52099609 C102.98867187 30.32021484 102.98222656 31.11943359 102.97558594 31.94287109 C102.95044922 33.18037109 102.95044922 33.18037109 102.92480469 34.44287109 C102.91578125 35.28333984 102.90675781 36.12380859 102.89746094 36.98974609 C102.87396286 39.05757714 102.83809376 41.12526104 102.79980469 43.19287109 C104.05792969 42.88349609 105.31605469 42.57412109 106.61230469 42.25537109 C128.4674671 37.47031224 150.52488892 40.91153175 172.07104492 45.42797852 C173.59387085 45.74665894 173.59387085 45.74665894 175.14746094 46.07177734 C176.044729 46.26328369 176.94199707 46.45479004 177.86645508 46.65209961 C195.94774564 49.98543782 212.9944078 48.18343276 230.72167969 43.95849609 C232.64589134 43.51770192 234.57056591 43.07892433 236.4956665 42.64202881 C241.50453498 41.4996648 246.50671302 40.33036838 251.50787354 39.15478516 C256.56616598 37.97097482 261.6305066 36.81365886 266.69433594 35.65380859 C274.14386573 33.94393372 281.59051886 32.22234298 289.03320312 30.48291016 C290.27419077 30.19379446 290.27419077 30.19379446 291.54024887 29.89883804 C295.55992243 28.96029235 299.57515032 28.007163 303.58435059 27.02478027 C304.3479401 26.83958706 305.11152962 26.65439384 305.89825821 26.46358871 C307.31353243 26.11966568 308.72767256 25.7710201 310.14028549 25.41632462 C320.34868802 22.94700024 330.50332996 22.79759558 339.79980469 28.19287109 C344.18359424 31.22333167 347.38810921 34.36948014 349.79980469 39.19287109 C353.69619164 38.5556365 356.98933611 37.37977704 360.59667969 35.78662109 C361.71260498 35.29427979 362.82853027 34.80193848 363.97827148 34.29467773 C365.15687744 33.76608154 366.3354834 33.23748535 367.54980469 32.69287109 C368.4528685 32.28970169 368.4528685 32.28970169 369.37417603 31.87838745 C381.67164217 26.3796934 393.68011008 20.53464651 405.03833008 13.27197266 C411.15908293 9.52232226 417.81892999 9.46818108 424.79980469 10.19287109 C431.25523505 11.96307942 434.45622773 15.55058497 437.79980469 21.19287109 C437.79980469 21.85287109 437.79980469 22.51287109 437.79980469 23.19287109 C438.45980469 22.86287109 439.11980469 22.53287109 439.79980469 22.19287109 C447.62123537 21.56674607 455.44791258 20.9790904 461.79980469 26.19287109 C466.68819478 31.15666052 468.69244126 36.92991157 468.86621094 43.82958984 C468.55295205 50.63585106 466.95196779 55.7749816 462.79980469 61.19287109 C456.51963475 66.90090867 449.14400376 71.31441165 441.98730469 75.81787109 C439.76166395 77.23003228 437.53640836 78.64280066 435.31152344 80.05615234 C434.21243652 80.75305176 433.11334961 81.44995117 431.98095703 82.16796875 C427.4007139 85.08343587 422.84777198 88.03989153 418.29980469 91.00537109 C416.6787229 92.06137904 415.05762938 93.11736899 413.43652344 94.17333984 C412.27515869 94.9301001 412.27515869 94.9301001 411.09033203 95.70214844 C407.43539012 98.08086036 403.77419601 100.44987616 400.11230469 102.81787109 C399.42201172 103.26428955 398.73171875 103.71070801 398.02050781 104.1706543 C396.63919779 105.06386029 395.25785029 105.95700832 393.87646484 106.85009766 C390.35032152 109.13011038 386.8251166 111.41157316 383.29980469 113.69287109 C381.88314239 114.60954451 380.46647572 115.52621118 379.04980469 116.44287109 C378.34855469 116.89662109 377.64730469 117.35037109 376.92480469 117.81787109 C369.13313802 122.85953776 361.34147135 127.90120443 353.54980469 132.94287109 C352.84919922 133.39621826 352.14859375 133.84956543 351.42675781 134.31665039 C350.00363308 135.23746698 348.58045561 136.15820208 347.15722656 137.07885742 C343.71394097 139.30638019 340.27144341 141.53509508 336.83105469 143.76708984 C332.49113463 146.58162917 328.14676822 149.38922322 323.79980469 152.19287109 C322.82881836 152.81919434 321.85783203 153.44551758 320.85742188 154.09082031 C314.45783112 158.21445151 308.04681683 162.31940667 301.61962891 166.39990234 C299.9023033 167.4918538 298.18718298 168.58729701 296.47607422 169.68896484 C269.32948877 187.14357833 241.22535647 188.48742141 209.92480469 185.75537109 C209.13286713 185.68631561 208.34092957 185.61726013 207.5249939 185.54611206 C206.33977646 185.4426799 206.33977646 185.4426799 205.13061523 185.3371582 C171.46747413 182.39972989 137.19750152 181.16627463 103.79980469 187.19287109 C103.785625 188.20607422 103.77144531 189.21927734 103.75683594 190.26318359 C103.39521382 202.46413148 103.39521382 202.46413148 100.42480469 206.06787109 C97.07872429 208.77660285 94.74398543 209.32013479 90.56933594 209.29052734 C89.76689453 209.28730469 88.96445313 209.28408203 88.13769531 209.28076172 C87.30431641 209.27238281 86.4709375 209.26400391 85.61230469 209.25537109 C84.34483398 209.24860352 84.34483398 209.24860352 83.05175781 209.24169922 C80.96774314 209.22992512 78.88376492 209.21198999 76.79980469 209.19287109 C76.81430664 209.808479 76.82880859 210.42408691 76.84375 211.05834961 C76.8550293 211.86715576 76.86630859 212.67596191 76.87792969 213.50927734 C76.89243164 214.31051025 76.90693359 215.11174316 76.921875 215.93725586 C76.75234733 219.06978814 75.81477308 220.81808691 73.79980469 223.19287109 C70.18879891 225.63721166 66.48981038 225.49530239 62.28076172 225.49926758 C61.52903687 225.50759109 60.77731201 225.51591461 60.00280762 225.52449036 C57.52102458 225.54855954 55.03950451 225.55735846 52.55761719 225.56396484 C50.82892784 225.5729333 49.10023928 225.58205519 47.37155151 225.59132385 C43.74849563 225.60780785 40.1255321 225.61551292 36.50244141 225.6184082 C31.86630714 225.62379244 27.231044 225.66147612 22.59515572 225.70715237 C19.02457531 225.73693563 15.45420441 225.74413202 11.88351059 225.74513435 C10.17470178 225.74933391 8.46589219 225.76175766 6.75720596 225.7826519 C4.36336955 225.80959511 1.97154877 225.80473388 -0.42236328 225.79223633 C-1.47461594 225.81448776 -1.47461594 225.81448776 -2.54812622 225.83718872 C-6.93548527 225.77216373 -9.65365273 224.72573141 -12.94265437 221.81704575 C-15.35256808 218.7045262 -15.02088292 215.29540888 -14.95536804 211.50097656 C-14.96402242 210.62635206 -14.9726768 209.75172756 -14.98159343 208.85059929 C-15.00318519 205.91977982 -14.98188821 202.99085787 -14.96069336 200.06005859 C-14.96718636 197.95907687 -14.97624723 195.85810173 -14.98768616 193.75714111 C-15.01078647 188.05044213 -14.99603648 182.3444111 -14.97321677 176.63773346 C-14.95431876 170.6689609 -14.96545627 164.7002337 -14.97212219 158.73144531 C-14.9784651 148.70741145 -14.96018065 138.68364561 -14.92749023 128.65966797 C-14.88999504 117.06643095 -14.89177382 105.47370171 -14.91453141 93.88043785 C-14.9354712 82.73339933 -14.92821167 71.58654869 -14.90821266 60.43951416 C-14.90022072 55.69316247 -14.90222534 50.94696944 -14.91223717 46.20062256 C-14.922778 40.61247003 -14.9086905 35.02491008 -14.875494 29.4368515 C-14.8672768 27.38456585 -14.86758245 25.332226 -14.8769722 23.27994537 C-14.88837329 20.48088589 -14.86906141 17.68367734 -14.84184265 14.88476562 C-14.85231414 14.0700775 -14.86278563 13.25538937 -14.87357444 12.41601372 C-14.79907674 8.31171495 -14.40395336 6.44435124 -11.78509235 3.21212769 C-7.75544428 0.0642679 -4.95287495 0.02999615 0 0 Z " fill="#F9BCAA" transform="translate(29.2001953125,241.80712890625)"/>
<path d="M0 0 C1.95839822 1.23686176 1.95839822 1.23686176 4.125 0.5625 C8.60729129 -0.31447004 13.06587624 -0.69430084 17.4375 0.875 C19 2 19 2 20 4 C20.07065617 6.04055005 20.08421976 8.08334257 20.0625 10.125 C20.05347656 11.22070312 20.04445313 12.31640625 20.03515625 13.4453125 C20.01775391 14.70988281 20.01775391 14.70988281 20 16 C21.3921875 16.0928125 21.3921875 16.0928125 22.8125 16.1875 C26 17 26 17 27.671875 19.1328125 C32.57587587 29.71968496 27.89007346 44.28699676 25 55 C24.67 55.66 24.34 56.32 24 57 C24.598125 57.061875 25.19625 57.12375 25.8125 57.1875 C28 58 28 58 29.75 59.9375 C31.9068947 65.221892 31.95526038 70.63698749 29.8125 75.9375 C26.95729147 79.18653039 24.55955213 80.89602986 20.1875 81.1875 C19.465625 81.125625 18.74375 81.06375 18 81 C18.103125 82.2375 18.20625 83.475 18.3125 84.75 C18.24754185 95.09458614 12.87846586 102.87596959 5.98828125 110.13671875 C4 112 4 112 2 113 C1.53248212 115.35599235 1.53248212 115.35599235 1.375 118.0625 C1.30023438 118.98160156 1.22546875 119.90070313 1.1484375 120.84765625 C1.07496094 121.91306641 1.07496094 121.91306641 1 123 C1.61407715 122.98952637 2.2281543 122.97905273 2.86083984 122.96826172 C5.69884997 122.92615791 8.53679401 122.90050378 11.375 122.875 C12.34050781 122.85824219 13.30601562 122.84148437 14.30078125 122.82421875 C20.77738043 122.78075164 26.706577 123.46767329 33 125 C33.49777954 124.05640625 33.49777954 124.05640625 34.00561523 123.09375 C39.0667991 113.59239925 44.35914346 108.04428717 54 103 C54.99 103 55.98 103 57 103 C56.98525131 102.35314743 56.97050262 101.70629486 56.95530701 101.0398407 C56.80095842 94.20844772 56.6566767 87.37689107 56.51782227 80.54516602 C56.46498126 78.00735237 56.40971042 75.46958795 56.35180664 72.93188477 C55.145108 19.76369355 55.145108 19.76369355 67.3125 3.625 C76.097036 -4.95524447 86.2565378 -9.3493609 98.5 -9.5 C110.48118925 -9.35245814 119.16236437 -5.36656679 127.87109375 2.7421875 C137.55947634 12.78476902 139.12925567 25.07164113 139.5625 38.375 C139.6049585 39.64037598 139.64741699 40.90575195 139.69116211 42.20947266 C140.30819648 62.46293246 140.08376156 82.74001228 140 103 C140.82648293 103.40824509 140.82648293 103.40824509 141.66966248 103.82473755 C142.39154251 104.18308685 143.11342255 104.54143616 143.85717773 104.91064453 C144.57316635 105.26530792 145.28915497 105.61997131 146.02684021 105.98538208 C155.12027416 110.6613141 159.35475549 118.79707836 163 128 C164.26113183 133.97571185 165.16359341 139.47044912 162.5625 145.125 C150.83910763 158.27807437 130.35672532 160.77226327 113.5859375 161.875 C97.24594582 162.44458577 81.23938332 161.89459472 65 160 C65.14074951 160.67909424 65.28149902 161.35818848 65.42651367 162.05786133 C65.70072144 163.40013794 65.70072144 163.40013794 65.98046875 164.76953125 C66.25346802 166.09754761 66.25346802 166.09754761 66.53198242 167.45239258 C67.92461298 175.03303937 66.34196462 179.99914377 62.5 186.5625 C42.24926411 206.30696749 1.43953261 206.40588437 -24.71655273 206.23193359 C-50.24937996 205.78026739 -83.28170774 204.90648525 -104 188 C-108.60039429 183.16368805 -110.35704424 178.92426502 -110.203125 172.203125 C-109.85069532 168.38061852 -108.93779322 164.71381843 -108 161 C-109.25039062 161.16113281 -110.50078125 161.32226562 -111.7890625 161.48828125 C-136.91744575 164.26015484 -169.1407773 163.38342834 -191 149 C-194.82228669 145.24195342 -195.7298632 142.32226979 -196 137 C-194.73501149 124.52067511 -190.13214877 115.74764361 -180.51171875 107.796875 C-169.60940482 99.99739692 -158.85540496 100.42836638 -146 101 C-146 97.37 -146 93.74 -146 90 C-147.46759766 89.81824219 -147.46759766 89.81824219 -148.96484375 89.6328125 C-150.28909036 89.46375974 -151.61330754 89.2944764 -152.9375 89.125 C-154.22527344 88.96257812 -155.51304687 88.80015625 -156.83984375 88.6328125 C-161.28502231 88.01335814 -165.63446187 87.03083111 -170 86 C-171.28566063 49.98984098 -171.28566063 49.98984098 -170.75 35.3125 C-170.71048218 33.93868164 -170.71048218 33.93868164 -170.67016602 32.53710938 C-170.08439111 20.13028092 -165.80820794 9.17488325 -156.625 0.625 C-146.27983127 -7.98440217 -135.15615079 -9.89351552 -122.03710938 -9.19091797 C-111.70532649 -8.22262288 -103.6095398 -2.0881231 -96.75 5.3125 C-91.32062015 11.99714037 -88.01051126 19.552291 -87.71875 28.140625 C-87.66267578 29.62369141 -87.66267578 29.62369141 -87.60546875 31.13671875 C-87.55326172 32.67779297 -87.55326172 32.67779297 -87.5 34.25 C-87.24565837 42.42166368 -87.24565837 42.42166368 -86.40625 50.546875 C-86 54 -86 54 -87 57 C-87.15109093 59.20959253 -87.24873801 61.42300047 -87.31640625 63.63671875 C-87.35830078 64.93544922 -87.40019531 66.23417969 -87.44335938 67.57226562 C-87.48316987 68.94400761 -87.52288216 70.31575244 -87.5625 71.6875 C-87.60570835 73.07097645 -87.64932339 74.45444027 -87.69335938 75.83789062 C-87.79958028 79.22515719 -87.90162358 82.61249799 -88 86 C-90.87333181 86.67466072 -93.74831482 87.3399234 -96.625 88 C-97.43324219 88.19078125 -98.24148437 88.3815625 -99.07421875 88.578125 C-103.47204169 89.57925543 -107.45561039 90.2353082 -112 90 C-112 93.63 -112 97.26 -112 101 C-110.77925781 100.94199219 -109.55851562 100.88398438 -108.30078125 100.82421875 C-95.15074406 100.3835177 -84.85352604 101.51834995 -74.4375 110.375 C-70.74800915 113.96850409 -68.10805526 117.30478601 -66 122 C-66 122.66 -66 123.32 -66 124 C-65.34 123.67 -64.68 123.34 -64 123 C-62.33434251 122.84777027 -60.66343504 122.75082785 -58.9921875 122.68359375 C-57.51298828 122.62075195 -57.51298828 122.62075195 -56.00390625 122.55664062 C-54.97136719 122.51732422 -53.93882812 122.47800781 -52.875 122.4375 C-51.83472656 122.39431641 -50.79445312 122.35113281 -49.72265625 122.30664062 C-47.14857472 122.2003712 -44.57439492 122.09833417 -42 122 C-42.12888693 116.03635292 -42.12888693 116.03635292 -44.671875 110.87109375 C-45.35765625 110.39800781 -46.0434375 109.92492187 -46.75 109.4375 C-53.48164968 104.1990964 -57.18319068 97.31983314 -59 89 C-59.20871255 86.2731251 -59.14946791 83.74024498 -59 81 C-60.051875 80.938125 -61.10375 80.87625 -62.1875 80.8125 C-66.67775398 79.85556063 -68.14983129 78.52079664 -71 75 C-72.69938759 69.90183724 -72.63928388 65.61343074 -70.6875 60.6875 C-69 58 -69 58 -67.3581543 56.58374023 C-65.78957323 55.10800667 -65.78957323 55.10800667 -66.02661133 53.10571289 C-66.2098999 52.4018042 -66.39318848 51.69789551 -66.58203125 50.97265625 C-66.7725708 50.18576416 -66.96311035 49.39887207 -67.15942383 48.58813477 C-67.37493896 47.75467529 -67.5904541 46.92121582 -67.8125 46.0625 C-71.60757407 29.9726657 -71.60757407 29.9726657 -69.46484375 22.01171875 C-68.88520034 19.50317793 -69.08871182 17.31594829 -69.25 14.75 C-69.26565007 8.86557485 -68.04705094 5.29205179 -64 1 C-45.02843972 -15.42659488 -20.19689035 -11.91647086 0 0 Z " fill="#F7BBA9" transform="translate(299,54)"/>
<path d="M0 0 C0.74167923 -0.00817749 1.48335846 -0.01635498 2.24751282 -0.02478027 C4.70764355 -0.04963826 7.1677165 -0.06615255 9.62792969 -0.08056641 C10.46811394 -0.08589008 11.30829819 -0.09121376 12.17394257 -0.09669876 C16.62230009 -0.123434 21.07062953 -0.14280638 25.51904297 -0.15722656 C30.11035266 -0.17386211 34.70094282 -0.21862905 39.29198074 -0.26959801 C42.82479663 -0.30328406 46.35744215 -0.31480551 49.89040375 -0.32045364 C51.58248128 -0.327164 53.27454768 -0.3423806 54.96646881 -0.36634445 C57.33891554 -0.39802569 59.70942784 -0.39802916 62.08203125 -0.390625 C62.77732437 -0.40703033 63.47261749 -0.42343567 64.1889801 -0.44033813 C67.95070611 -0.39243616 70.31948967 0.24500523 73.21966553 2.5418396 C77.39219915 6.82901845 76.94633673 10.83473979 76.94024658 16.49240112 C76.9432177 17.34898256 76.94618883 18.20556401 76.94924998 19.08810246 C76.95794783 21.96922654 76.95944614 24.85030913 76.9609375 27.73144531 C76.96556486 29.79271534 76.97058941 31.85398452 76.97598267 33.91525269 C76.98911548 39.52266962 76.99555319 45.13007457 76.99999332 50.73750448 C77.00292226 54.23868185 77.0070267 57.73985593 77.0114975 61.24103165 C77.02517394 72.18938872 77.03484022 83.13773829 77.03869939 94.08610332 C77.04318248 106.73586375 77.06074144 119.38551626 77.08969998 132.03524387 C77.1112936 141.80600453 77.12140241 151.57673477 77.12274051 161.34751904 C77.12379008 167.18664579 77.12973036 173.02567111 77.14756012 178.8647728 C77.16400097 184.35587254 77.1662157 189.84679416 77.15742111 195.3379097 C77.15664863 197.35473863 77.16102109 199.37157698 77.17087936 201.38838196 C77.18353716 204.13892646 77.17775573 206.88883418 77.16729736 209.63937378 C77.17938197 210.84010664 77.17938197 210.84010664 77.19171071 212.06509674 C77.15110673 216.62232775 76.61238379 219.56039842 73.79980469 223.19287109 C70.34621827 225.79347732 66.43438173 225.49535461 62.28076172 225.49926758 C61.52903687 225.50759109 60.77731201 225.51591461 60.00280762 225.52449036 C57.52102458 225.54855954 55.03950451 225.55735846 52.55761719 225.56396484 C50.82892784 225.5729333 49.10023928 225.58205519 47.37155151 225.59132385 C43.74849563 225.60780785 40.1255321 225.61551292 36.50244141 225.6184082 C31.86630714 225.62379244 27.231044 225.66147612 22.59515572 225.70715237 C19.02457531 225.73693563 15.45420441 225.74413202 11.88351059 225.74513435 C10.17470178 225.74933391 8.46589219 225.76175766 6.75720596 225.7826519 C4.36336955 225.80959511 1.97154877 225.80473388 -0.42236328 225.79223633 C-1.47461594 225.81448776 -1.47461594 225.81448776 -2.54812622 225.83718872 C-6.93548527 225.77216373 -9.65365273 224.72573141 -12.94265437 221.81704575 C-15.35256808 218.7045262 -15.02088292 215.29540888 -14.95536804 211.50097656 C-14.96402242 210.62635206 -14.9726768 209.75172756 -14.98159343 208.85059929 C-15.00318519 205.91977982 -14.98188821 202.99085787 -14.96069336 200.06005859 C-14.96718636 197.95907687 -14.97624723 195.85810173 -14.98768616 193.75714111 C-15.01078647 188.05044213 -14.99603648 182.3444111 -14.97321677 176.63773346 C-14.95431876 170.6689609 -14.96545627 164.7002337 -14.97212219 158.73144531 C-14.9784651 148.70741145 -14.96018065 138.68364561 -14.92749023 128.65966797 C-14.88999504 117.06643095 -14.89177382 105.47370171 -14.91453141 93.88043785 C-14.9354712 82.73339933 -14.92821167 71.58654869 -14.90821266 60.43951416 C-14.90022072 55.69316247 -14.90222534 50.94696944 -14.91223717 46.20062256 C-14.922778 40.61247003 -14.9086905 35.02491008 -14.875494 29.4368515 C-14.8672768 27.38456585 -14.86758245 25.332226 -14.8769722 23.27994537 C-14.88837329 20.48088589 -14.86906141 17.68367734 -14.84184265 14.88476562 C-14.85231414 14.0700775 -14.86278563 13.25538937 -14.87357444 12.41601372 C-14.79907674 8.31171495 -14.40395336 6.44435124 -11.78509235 3.21212769 C-7.75544428 0.0642679 -4.95287495 0.02999615 0 0 Z " fill="#4C5C75" transform="translate(29.2001953125,241.80712890625)"/>
<path d="M0 0 C9.60172022 6.69377067 15.69532477 15.54587605 18.34008789 27.01928711 C19.20068337 31.98903218 19.19937356 37.02167816 19.36328125 42.0546875 C19.40573975 43.32006348 19.44819824 44.58543945 19.49194336 45.88916016 C20.10897773 66.14261996 19.88454281 86.41969978 19.80078125 106.6796875 C20.62726418 107.08793259 20.62726418 107.08793259 21.47044373 107.50442505 C22.19232376 107.86277435 22.9142038 108.22112366 23.65795898 108.59033203 C24.3739476 108.94499542 25.08993622 109.29965881 25.82762146 109.66506958 C34.92105541 114.3410016 39.15553674 122.47676586 42.80078125 131.6796875 C44.06191308 137.65539935 44.96437466 143.15013662 42.36328125 148.8046875 C30.64054152 161.95702964 10.16385195 164.449018 -6.60546875 165.5546875 C-19.40871857 166.00001793 -32.19215502 166.11255874 -44.94921875 164.8046875 C-45.7285376 164.72629639 -46.50785645 164.64790527 -47.31079102 164.56713867 C-54.5466369 163.72399408 -54.5466369 163.72399408 -57.19921875 161.6796875 C-58.5859375 159.2109375 -58.5859375 159.2109375 -59.88671875 156.1796875 C-65.7987579 143.74350414 -75.06504427 136.42745436 -87.19921875 130.6796875 C-84.6830678 120.8666988 -78.93455167 114.96707444 -70.8828125 109.2109375 C-68.21271376 107.68738771 -66.1928169 107.19862381 -63.19921875 106.6796875 C-63.21396744 106.03283493 -63.22871613 105.38598236 -63.24391174 104.7195282 C-63.39826033 97.88813522 -63.54254205 91.05657857 -63.68139648 84.22485352 C-63.73423749 81.68703987 -63.78950833 79.14927545 -63.84741211 76.61157227 C-65.05411075 23.44338105 -65.05411075 23.44338105 -52.88671875 7.3046875 C-38.68179485 -6.56988933 -17.34176189 -10.41121762 0 0 Z " fill="#F7BAA9" transform="translate(419.19921875,50.3203125)"/>
<path d="M0 0 C9.64714779 6.19626027 17.21684012 14.66073022 20.54370117 25.82446289 C21.06124957 28.29202512 21.19564311 30.62068597 21.28125 33.140625 C21.33732422 34.62369141 21.33732422 34.62369141 21.39453125 36.13671875 C21.44673828 37.67779297 21.44673828 37.67779297 21.5 39.25 C21.75434163 47.42166368 21.75434163 47.42166368 22.59375 55.546875 C23 59 23 59 22 62 C21.84890907 64.20959253 21.75126199 66.42300047 21.68359375 68.63671875 C21.64169922 69.93544922 21.59980469 71.23417969 21.55664062 72.57226562 C21.51683013 73.94400761 21.47711784 75.31575244 21.4375 76.6875 C21.39429165 78.07097645 21.35067661 79.45444027 21.30664062 80.83789062 C21.20041972 84.22515719 21.09837642 87.61249799 21 91 C18.12666819 91.67466072 15.25168518 92.3399234 12.375 93 C11.56675781 93.19078125 10.75851563 93.3815625 9.92578125 93.578125 C5.52795831 94.57925543 1.54438961 95.2353082 -3 95 C-3 98.63 -3 102.26 -3 106 C-1.77925781 105.94199219 -0.55851562 105.88398438 0.69921875 105.82421875 C13.84925594 105.3835177 24.14647396 106.51834995 34.5625 115.375 C38.25380447 118.97627265 40.92315021 122.27988684 43 127 C43 127.99 43 128.98 43 130 C42.24976563 130.14695313 41.49953125 130.29390625 40.7265625 130.4453125 C27.55083619 133.33268829 16.72060834 140.00254527 9.25 151.375 C6.40104342 156.0884911 4.07093771 160.90400131 2 166 C-24.60847771 169.16187162 -58.69570709 169.3342885 -82 154 C-85.82228669 150.24195342 -86.7298632 147.32226979 -87 142 C-85.73501149 129.52067511 -81.13214877 120.74764361 -71.51171875 112.796875 C-60.60940482 104.99739692 -49.85540496 105.42836638 -37 106 C-37 102.37 -37 98.74 -37 95 C-38.46759766 94.81824219 -38.46759766 94.81824219 -39.96484375 94.6328125 C-41.28909036 94.46375974 -42.61330754 94.2944764 -43.9375 94.125 C-45.22527344 93.96257812 -46.51304687 93.80015625 -47.83984375 93.6328125 C-52.28502231 93.01335814 -56.63446187 92.03083111 -61 91 C-62.28566063 54.98984098 -62.28566063 54.98984098 -61.75 40.3125 C-61.71048218 38.93868164 -61.71048218 38.93868164 -61.67016602 37.53710938 C-61.08439111 25.13028092 -56.80820794 14.17488325 -47.625 5.625 C-34.67856693 -5.14921276 -15.11421727 -8.2750948 0 0 Z " fill="#F6BAA9" transform="translate(190,49)"/>
<path d="M0 0 C-0.99 0.33 -1.98 0.66 -3 1 C-1.76227486 5.93150166 -0.51698321 10.86100645 0.73535156 15.78881836 C1.16028886 17.46537442 1.58315581 19.14245666 2.00390625 20.82006836 C2.60913912 23.23172152 3.22179895 25.64138273 3.8359375 28.05078125 C4.02247894 28.80087967 4.20902039 29.55097809 4.4012146 30.32380676 C5.26169271 33.67183529 6.06336115 36.09504173 8 39 C11.24479512 39.83777623 11.24479512 39.83777623 15 39 C17.98536294 36.99943062 20.42362038 34.55581873 22.9375 32 C23.62134766 31.33226562 24.30519531 30.66453125 25.00976562 29.9765625 C26.6890306 28.33252686 28.3509121 26.67421383 30 25 C34.11674485 28.42134876 37.90760983 31.89388104 41.5 35.875 C44.38901359 38.93153734 44.38901359 38.93153734 48.12890625 40.57421875 C50.24444876 40.62008931 50.24444876 40.62008931 53 40 C55.77625149 33.07640348 57.71948177 26.01875007 59.625 18.8125 C60.09292969 17.06936523 60.09292969 17.06936523 60.5703125 15.29101562 C61.83710125 10.54328797 63.08289838 5.82944163 64 1 C62.68 0.67 61.36 0.34 60 0 C76.45275713 -0.64009286 88.75813145 3.04088624 101.25 14.125 C106.86541711 19.32479204 110.66960146 25.0950388 114 32 C114.34675781 32.67417969 114.69351563 33.34835938 115.05078125 34.04296875 C118.00774827 40.6155637 118.98446282 49.24854309 117.52734375 56.28125 C116.8125 58.0625 116.8125 58.0625 115 61 C114.2575 62.2684375 114.2575 62.2684375 113.5 63.5625 C93.24926411 83.30696749 52.43953261 83.40588437 26.28344727 83.23193359 C0.75062004 82.78026739 -32.28170774 81.90648525 -53 65 C-57.00122505 60.79358392 -58.80465631 57.22691807 -59.3125 51.4375 C-58.83447717 37.25615611 -52.12665459 24.35352227 -42.45703125 14.22265625 C-36.15235047 8.51937586 -29.08987641 4.51979757 -21 2 C-19.1746875 1.4121875 -19.1746875 1.4121875 -17.3125 0.8125 C-11.65119976 -0.56028022 -5.78190683 -0.15864988 0 0 Z " fill="#E11327" transform="translate(248,177)"/>
<path d="M0 0 C4.44784203 0.5083248 6.83569223 1.83569223 10 5 C14.20868766 11.09485537 15.53294378 17.80379814 14.78125 25.1328125 C12.95513208 34.08781385 8.03704574 39.55175689 0.65625 44.62109375 C-5.92387795 48.93552971 -12.57251179 53.14462973 -19.2265625 57.34375 C-24.61696985 60.74859747 -29.97157243 64.20567021 -35.3125 67.6875 C-36.13459961 68.22318604 -36.95669922 68.75887207 -37.80371094 69.31079102 C-39.42294671 70.36606495 -41.04208935 71.42148181 -42.66113281 72.47705078 C-46.331758 74.86717186 -50.00924062 77.24665015 -53.6875 79.625 C-54.37755127 80.07125732 -55.06760254 80.51751465 -55.77856445 80.97729492 C-57.16011639 81.87066711 -58.54170801 82.76397793 -59.92333984 83.65722656 C-63.44948316 85.93723929 -66.97468809 88.21870206 -70.5 90.5 C-71.9166623 91.41667341 -73.33332897 92.33334008 -74.75 93.25 C-75.45125 93.70375 -76.1525 94.1575 -76.875 94.625 C-84.66666667 99.66666667 -92.45833333 104.70833333 -100.25 109.75 C-100.95060547 110.20334717 -101.65121094 110.65669434 -102.37304688 111.1237793 C-103.79617161 112.04459589 -105.21934907 112.96533098 -106.64257812 113.88598633 C-110.08586371 116.11350909 -113.52836128 118.34222399 -116.96875 120.57421875 C-121.30867006 123.38875807 -125.65303646 126.19635212 -130 129 C-130.97098633 129.62632324 -131.94197266 130.25264648 -132.94238281 130.89794922 C-139.34197356 135.02158042 -145.75298786 139.12653557 -152.18017578 143.20703125 C-153.89750139 144.2989827 -155.61262171 145.39442591 -157.32373047 146.49609375 C-184.47031591 163.95070724 -212.57444822 165.29455031 -243.875 162.5625 C-244.66693756 162.49344452 -245.45887512 162.42438904 -246.27481079 162.35324097 C-247.06495575 162.28428619 -247.85510071 162.21533142 -248.66918945 162.14428711 C-282.4970546 159.19248506 -317.46171182 157.61822047 -351 164 C-351 161.36 -351 158.72 -351 156 C-348.58473713 155.22454124 -346.16790772 154.45463618 -343.75 153.6875 C-343.08742188 153.47416016 -342.42484375 153.26082031 -341.7421875 153.04101562 C-331.4097007 149.77555989 -320.89712844 147.47169045 -310.25 145.5 C-309.21746094 145.30019531 -308.18492187 145.10039062 -307.12109375 144.89453125 C-287.49108213 141.23864534 -267.63527654 139.49208804 -247.73461914 138.11962891 C-244.1722039 137.8739451 -240.61050617 137.61941179 -237.04882812 137.36328125 C-226.83566776 136.63626578 -216.62550727 135.95456264 -206.3984375 135.45703125 C-200.36962882 135.1590909 -194.39811446 134.79813575 -188.4375 133.8125 C-187.66486816 133.68504395 -186.89223633 133.55758789 -186.09619141 133.42626953 C-161.4054082 129.00950202 -141.65586458 115.73890041 -121.13720703 102.08203125 C-116.65353083 99.10640552 -112.14127038 96.17581851 -107.625 93.25 C-106.01293021 92.20326456 -104.40095021 91.15639081 -102.7890625 90.109375 C-102.00176758 89.59826172 -101.21447266 89.08714844 -100.40332031 88.56054688 C-96.26785875 85.87526952 -92.13402981 83.18748081 -88 80.5 C-86.33334077 79.41665523 -84.66667411 78.33332188 -83 77.25 C-81.7625 76.445625 -81.7625 76.445625 -80.5 75.625 C-53 57.75 -53 57.75 -50.49804688 56.1237793 C-48.83783108 55.04460658 -47.17767445 53.96534282 -45.51757812 52.88598633 C-40.37728266 49.54408763 -35.2348555 46.20550394 -30.09033203 42.87011719 C-27.56476274 41.22956831 -25.04403208 39.58177163 -22.5234375 37.93359375 C-19.80104576 36.15671354 -17.06533168 34.41399068 -14.2890625 32.72265625 C-6.91824408 28.12726945 -1.79879413 23.3963824 1 15 C1.09398229 13.18945873 1.12991987 11.37547219 1.125 9.5625 C1.12886719 8.14130859 1.12886719 8.14130859 1.1328125 6.69140625 C1.01473475 4.29859541 0.68112635 2.28663847 0 0 Z " fill="#F2A496" transform="translate(483,265)"/>
<path d="M0 0 C0.66 0 1.32 0 2 0 C3.59880135 3.1976027 3.14420901 6.66701507 3.14044189 10.17927551 C3.14341302 11.03500253 3.14638414 11.89072955 3.1494453 12.77238768 C3.15815751 15.65661781 3.15964267 18.54080656 3.16113281 21.42504883 C3.16575921 23.48617136 3.17078362 25.54729303 3.17617798 27.6084137 C3.18932128 33.22002194 3.1957507 38.83161821 3.20018864 44.44323945 C3.20311627 47.94658905 3.20722049 51.44993536 3.21169281 54.95328331 C3.22537287 65.90698317 3.23503702 76.86067552 3.2388947 87.81438333 C3.24337676 100.47264385 3.26092943 113.13079647 3.2898953 125.78902417 C3.31148943 135.56401092 3.32159777 145.33896726 3.32293582 155.11397761 C3.32398548 160.95647269 3.32992749 166.7988664 3.34775543 172.64133644 C3.36419688 178.13652677 3.36641071 183.63153911 3.35761642 189.12674522 C3.35684394 191.14518586 3.36121647 193.16363591 3.37107468 195.18205261 C3.3837325 197.93483998 3.37795099 200.68699109 3.36749268 203.43977356 C3.37957728 204.6415296 3.37957728 204.6415296 3.39190602 205.86756355 C3.35132201 210.42635211 2.81402736 213.36640386 0 217 C-3.45358641 219.60060623 -7.36542296 219.30248351 -11.51904297 219.30639648 C-12.27076782 219.31472 -13.02249268 219.32304352 -13.79699707 219.33161926 C-16.2787801 219.35568845 -18.76030017 219.36448736 -21.2421875 219.37109375 C-22.97087685 219.38006221 -24.69956541 219.38918409 -26.42825317 219.39845276 C-30.05130905 219.41493676 -33.67427258 219.42264183 -37.29736328 219.42553711 C-41.93349755 219.43092135 -46.56876069 219.46860503 -51.20464897 219.51428127 C-54.77522938 219.54406454 -58.34560028 219.55126093 -61.9162941 219.55226326 C-63.62510291 219.55646281 -65.3339125 219.56888657 -67.04259872 219.58978081 C-69.43643514 219.61672402 -71.82825592 219.61186279 -74.22216797 219.59936523 C-75.27442062 219.62161667 -75.27442062 219.62161667 -76.34793091 219.64431763 C-81.91572624 219.56179741 -84.18552657 217.73656324 -88 214 C-85.79170286 211.5923427 -83.32020496 209.74549267 -80.67333984 207.84375 C-62.30423601 194.46491044 -51.38272683 174.27115127 -42 154 C-41.65791504 153.27135742 -41.31583008 152.54271484 -40.96337891 151.79199219 C-35.55594772 140.15699862 -31.22996112 128.22400703 -27.1875 116.0625 C-26.95670746 115.36875275 -26.72591492 114.67500549 -26.48812866 113.9602356 C-23.42179259 104.70091769 -20.63021841 95.39320615 -18 86 C-17.58963632 84.59435016 -17.17730023 83.18927229 -16.76171875 81.78515625 C-9.04473223 55.04229023 -3.63310437 27.58291078 0 0 Z " fill="#202C46" transform="translate(103,248)"/>
<path d="M0 0 C2.64 1.65 5.28 3.3 8 5 C8.99 5.33 9.98 5.66 11 6 C11.08636719 6.76183594 11.17273438 7.52367188 11.26171875 8.30859375 C12.28433859 15.82344234 13.63024577 23.51870203 19.8828125 28.5 C20.51960938 28.95375 21.15640625 29.4075 21.8125 29.875 C24.37127516 31.82454298 24.93216792 32.57158686 25.4453125 35.8125 C25.43826454 38.57530219 25.30766216 41.25545823 25 44 C22.36 44 19.72 44 17 44 C19.22155126 52.99649483 21.03701662 59.53483923 29 65 C35.47971344 68.61368634 41.47899583 69.07289502 48.6171875 67.37890625 C55.01883159 65.18989421 59.59058723 61.9096488 63 56 C64.35563842 52.04928233 65.28051634 48.11133517 66 44 C63.36 44 60.72 44 58 44 C57.65068982 39.94412066 57.48359754 36.04603986 58 32 C60.6875 29.3125 60.6875 29.3125 62.34375 28.2421875 C67.51009313 24.36743015 69.14164314 17.7747255 70.3125 11.75 C71.456482 6.52891938 71.456482 6.52891938 73.890625 4.16015625 C75.88965135 2.91975321 77.83213307 1.90672991 80 1 C80.66 0.67 81.32 0.34 82 0 C82.33 15.18 82.66 30.36 83 46 C85.64 47.32 88.28 48.64 91 50 C98.86537674 54.92090237 102.67044242 62.59407347 106 71 C107.26113183 76.97571185 108.16359341 82.47044912 105.5625 88.125 C93.83976027 101.27734214 73.3630707 103.7693305 56.59375 104.875 C43.79050018 105.32033043 31.00706373 105.43287124 18.25 104.125 C17.47068115 104.04660889 16.6913623 103.96821777 15.88842773 103.88745117 C8.65258185 103.04430658 8.65258185 103.04430658 6 101 C4.61328125 98.53125 4.61328125 98.53125 3.3125 95.5 C-2.59953915 83.06381664 -11.86582552 75.74776686 -24 70 C-21.48384905 60.1870113 -15.73533292 54.28738694 -7.68359375 48.53125 C-5 47 -5 47 0 46 C0 30.82 0 15.64 0 0 Z " fill="#57B2FC" transform="translate(356,111)"/>
<path d="M0 0 C-0.99 0.33 -1.98 0.66 -3 1 C-1.76227486 5.93150166 -0.51698321 10.86100645 0.73535156 15.78881836 C1.16028886 17.46537442 1.58315581 19.14245666 2.00390625 20.82006836 C2.60913912 23.23172152 3.22179895 25.64138273 3.8359375 28.05078125 C4.02247894 28.80087967 4.20902039 29.55097809 4.4012146 30.32380676 C5.26169271 33.67183529 6.06336115 36.09504173 8 39 C11.24479512 39.83777623 11.24479512 39.83777623 15 39 C17.98536294 36.99943062 20.42362038 34.55581873 22.9375 32 C23.62134766 31.33226562 24.30519531 30.66453125 25.00976562 29.9765625 C26.6890306 28.33252686 28.3509121 26.67421383 30 25 C34.11674485 28.42134876 37.90760983 31.89388104 41.5 35.875 C44.38901359 38.93153734 44.38901359 38.93153734 48.12890625 40.57421875 C50.24444876 40.62008931 50.24444876 40.62008931 53 40 C55.77625149 33.07640348 57.71948177 26.01875007 59.625 18.8125 C60.09292969 17.06936523 60.09292969 17.06936523 60.5703125 15.29101562 C61.83710125 10.54328797 63.08289838 5.82944163 64 1 C62.68 0.67 61.36 0.34 60 0 C72.33809635 -0.48001239 81.17801683 1.18819423 92 7 C91.34 7.33 90.68 7.66 90 8 C89.65741108 9.99843537 89.32556691 11.99872108 89 14 C85.57448369 22.27017508 80.26376038 28.7152555 74 35 C73.32324219 35.69996094 72.64648438 36.39992187 71.94921875 37.12109375 C56.30362463 52.23632874 33.89977671 57.43686417 13 60 C12.34 60.09498779 11.68 60.18997559 11 60.2878418 C3.40884209 61.29682722 -4.23173443 61.19522069 -11.875 61.1875 C-12.60555603 61.1882251 -13.33611206 61.1889502 -14.08880615 61.18969727 C-24.24707378 61.1885837 -34.24425073 60.80773703 -44.3203125 59.4375 C-47.91919618 59.00960725 -51.37979251 58.92477491 -55 59 C-51.65996398 63.32239956 -48.67248931 66.17477391 -44 69 C-44.99 69.495 -44.99 69.495 -46 70 C-52.1293038 65.80469982 -56.58495745 62.24512766 -59 55 C-60.04321155 40.6558412 -53.87909886 27.42285886 -44.75 16.625 C-38.08527224 9.64236359 -30.18487955 4.86086412 -21 2 C-19.1746875 1.4121875 -19.1746875 1.4121875 -17.3125 0.8125 C-11.65119976 -0.56028022 -5.78190683 -0.15864988 0 0 Z " fill="#F24B58" transform="translate(248,177)"/>
<path d="M0 0 C0.17015625 0.65226563 0.3403125 1.30453125 0.515625 1.9765625 C2.02094628 7.40532755 3.70367371 11.45334305 7 16 C7 16.66 7 17.32 7 18 C7.86431641 18.42925781 7.86431641 18.42925781 8.74609375 18.8671875 C10.16564986 19.58065591 11.57619839 20.31263041 12.97265625 21.0703125 C19.84186282 24.53701488 26.27344685 25.47789918 33.7109375 23.15234375 C39.79360319 20.45806991 43.97696004 16.96626369 47 11 C48.25684267 7.37761695 49.21391812 3.75112758 50 0 C60.01895709 -0.90351316 68.66748563 1.16546346 76.90625 7.08984375 C81.70337345 11.21678084 85.4429367 15.1884925 88 21 C88 21.99 88 22.98 88 24 C87.24976563 24.14695313 86.49953125 24.29390625 85.7265625 24.4453125 C72.55083619 27.33268829 61.72060834 34.00254527 54.25 45.375 C51.40104342 50.0884911 49.07093771 54.90400131 47 60 C20.39152229 63.16187162 -13.69570709 63.3342885 -37 48 C-40.82228669 44.24195342 -41.7298632 41.32226979 -42 36 C-40.73240207 23.49493273 -36.11458944 14.81330774 -26.54296875 6.796875 C-18.14494689 0.86278889 -10.1448286 -0.80942781 0 0 Z " fill="#78E75A" transform="translate(145,155)"/>
<path d="M0 0 C18 0 18 0 24 4 C26.58243328 7.42802476 26.25911388 10.97587556 26.27415466 15.1602478 C26.28200968 16.24320741 26.28200968 16.24320741 26.29002339 17.34804499 C26.30502752 19.76773054 26.30572862 22.18720471 26.30639648 24.60693359 C26.31401766 26.34161232 26.32244508 28.07628766 26.33161926 29.81095886 C26.35357431 34.52379098 26.36236442 39.23655822 26.36744571 43.94943571 C26.37108784 46.89366266 26.37732713 49.83787258 26.3844471 52.78209305 C26.40894431 63.05297849 26.42199425 73.3238134 26.42553711 83.59472656 C26.42917343 93.16966565 26.459075 102.74428438 26.50094169 112.31912553 C26.53562499 120.53920065 26.5510852 128.7591695 26.55178314 136.97931731 C26.55257658 141.88907963 26.56134572 146.79851562 26.58978081 151.70820236 C26.61592814 156.32614473 26.61818543 160.94348943 26.60212517 165.56147194 C26.60030806 167.25537861 26.60702508 168.94931939 26.62294388 170.64315224 C26.64337173 172.95807124 26.63287489 175.27089254 26.61473083 177.58578491 C26.61674216 178.88031775 26.61875349 180.17485058 26.62082577 181.50861168 C25.79916262 186.1294655 24.32731976 187.73544119 21 191 C14.35169194 193.21610269 7.00793201 192 0 192 C0 128.64 0 65.28 0 0 Z " fill="#E9E6FB" transform="translate(106,259)"/>
<path d="M0 0 C1.95839822 1.23686176 1.95839822 1.23686176 4.125 0.5625 C8.60729129 -0.31447004 13.06587624 -0.69430084 17.4375 0.875 C19 2 19 2 20 4 C20.07065617 6.04055005 20.08421976 8.08334257 20.0625 10.125 C20.05347656 11.22070312 20.04445313 12.31640625 20.03515625 13.4453125 C20.02355469 14.28835937 20.01195312 15.13140625 20 16 C20.928125 16.061875 21.85625 16.12375 22.8125 16.1875 C26 17 26 17 27.671875 19.1328125 C34.42745304 33.71691332 25.03277131 56.0154961 20 70 C15.59752719 63.39629078 14.29309818 55.37854504 12.8125 47.6875 C12.54663086 46.36782227 12.54663086 46.36782227 12.27539062 45.02148438 C11.52748922 41.21844907 11 37.90201283 11 34 C9.89205078 34.39832031 9.89205078 34.39832031 8.76171875 34.8046875 C-8.91180945 40.95785996 -31.42588928 43.80758372 -49.25 36.375 C-50.61125 35.694375 -50.61125 35.694375 -52 35 C-52.03085693 35.64686768 -52.06171387 36.29373535 -52.09350586 36.96020508 C-52.60279135 44.56972845 -54.31505886 51.42003192 -56.5625 58.6875 C-57.0565332 60.33008789 -57.0565332 60.33008789 -57.56054688 62.00585938 C-58.3643537 64.67356607 -59.17759043 67.33798163 -60 70 C-62.29804009 66.55293987 -63.30906179 63.12164396 -64.4375 59.1875 C-64.65559326 58.42993408 -64.87368652 57.67236816 -65.09838867 56.8918457 C-72.13044682 32.05183578 -72.13044682 32.05183578 -69.46875 21.9921875 C-68.88031373 19.49133336 -69.08907013 17.31024795 -69.25 14.75 C-69.26565007 8.86557485 -68.04705094 5.29205179 -64 1 C-45.02843972 -15.42659488 -20.19689035 -11.91647086 0 0 Z " fill="#1D2943" transform="translate(299,54)"/>
<path d="M0 0 C4.33586643 0.26277978 7.02130169 1.96739034 10.15625 4.79296875 C16.75873932 12.69637228 20.5003128 22.76753905 20.265625 33.0546875 C19.68356133 37.31744792 17.34667021 39.86116684 14.15234375 42.5625 C-7.5830836 58.34139463 -43.45050177 56.71873841 -68.75 54.125 C-69.52931885 54.04660889 -70.3086377 53.96821777 -71.11157227 53.88745117 C-78.35912284 53.04294271 -78.35912284 53.04294271 -81 51 C-82.484375 48.3984375 -82.484375 48.3984375 -83.75 45.375 C-84.17796875 44.37210938 -84.6059375 43.36921875 -85.046875 42.3359375 C-85.51867187 41.17964844 -85.51867187 41.17964844 -86 40 C-84.39380428 38.39380428 -82.47316564 38.56400645 -80.25 38.25 C-51.47396837 33.55048241 -20.98949289 24.54767204 -1 2 C-0.67 1.34 -0.34 0.68 0 0 Z " fill="#5095FE" transform="translate(443,161)"/>
<path d="M0 0 C9.68204022 6.2186713 17.15053991 14.65592618 20.55517578 25.82055664 C21.06814904 28.33390037 21.1125696 30.63802895 21.09765625 33.203125 C21.09282227 34.67265625 21.09282227 34.67265625 21.08789062 36.171875 C21.07532227 37.69554688 21.07532227 37.69554688 21.0625 39.25 C21.05798828 40.28125 21.05347656 41.3125 21.04882812 42.375 C21.03706088 44.91672573 21.02062011 47.45833319 21 50 C10.75796641 45.3780345 10.75796641 45.3780345 8 40 C-0.09480048 32.75728378 -12.5222596 32.2840246 -22.921875 32.64453125 C-31.84176826 33.23790551 -40.8831114 35.4302611 -48 41 C-48.7003792 42.31593739 -49.37298792 43.64756587 -50 45 C-51.83984375 46.16015625 -51.83984375 46.16015625 -53.9375 47.0625 C-56.91327453 48.35849152 -58.7590858 49.66291605 -61 52 C-61.08847317 48.54183314 -61.14087725 45.08396421 -61.1875 41.625 C-61.21263672 40.65949219 -61.23777344 39.69398437 -61.26367188 38.69921875 C-61.3822988 26.91561084 -58.02597044 16.47233862 -49.890625 7.734375 C-36.70522306 -4.54168888 -16.34055887 -8.94652177 0 0 Z " fill="#1E2944" transform="translate(190,49)"/>
<path d="M0 0 C9.6266227 6.71113125 15.6767094 15.56446526 18.35375977 27.05273438 C18.78924324 29.6118836 18.91516278 31.95055044 18.8984375 34.54296875 C18.89360352 35.87231445 18.89360352 35.87231445 18.88867188 37.22851562 C18.87610352 38.5965332 18.87610352 38.5965332 18.86328125 39.9921875 C18.85876953 40.92353516 18.85425781 41.85488281 18.84960938 42.81445312 C18.83787359 45.10293123 18.82145488 47.39127558 18.80078125 49.6796875 C18.14078125 49.3496875 17.48078125 49.0196875 16.80078125 48.6796875 C16.80078125 48.0196875 16.80078125 47.3596875 16.80078125 46.6796875 C15.87265625 46.4115625 14.94453125 46.1434375 13.98828125 45.8671875 C9.88013367 44.33670115 8.55135636 42.77601365 6.11328125 39.21484375 C3.33842358 36.17281228 1.36443473 35.51304673 -2.57421875 34.4296875 C-4.22550781 33.95789063 -4.22550781 33.95789063 -5.91015625 33.4765625 C-18.68728371 30.38091642 -35.03364876 29.50064051 -46.76171875 36.5546875 C-49.29792726 38.51993336 -49.29792726 38.51993336 -50.57421875 41.1796875 C-52.65233278 44.37678601 -54.84353687 45.26380636 -58.26171875 46.78515625 C-60.44886525 47.73428855 -60.44886525 47.73428855 -63.19921875 49.6796875 C-63.52948032 33.86382784 -62.8663637 20.54157767 -52.88671875 7.3046875 C-38.68179485 -6.56988933 -17.34176189 -10.41121762 0 0 Z " fill="#1E2A43" transform="translate(419.19921875,50.3203125)"/>
<path d="M0 0 C6.52986736 1.78087292 11.05848614 7.10632792 14.4375 12.75 C16 16 16 16 16 19 C15.24976563 19.14695313 14.49953125 19.29390625 13.7265625 19.4453125 C0.55083619 22.33268829 -10.27939166 29.00254527 -17.75 40.375 C-20.59895658 45.0884911 -22.92906229 49.90400131 -25 55 C-51.27145983 58.12182396 -82.07148875 57.61027374 -106 45 C-106 44.34 -106 43.68 -106 43 C-105.28271729 42.91024902 -104.56543457 42.82049805 -103.82641602 42.72802734 C-70.33841164 38.4545482 -27.76531198 32.54555256 -3.859375 5.5859375 C-2.48149736 3.7637909 -1.19147488 1.94770779 0 0 Z " fill="#72D560" transform="translate(217,160)"/>
<path d="M0 0 C2.42822809 0.95761108 4.83877743 1.92733631 7.21875 3 C18.76135273 8.05977106 30.71851385 8.26871074 43.12963867 8.65893555 C44.56786987 8.70594604 44.56786987 8.70594604 46.03515625 8.75390625 C46.8950415 8.77783447 47.75492676 8.8017627 48.64086914 8.82641602 C50.87515351 8.99081384 52.85105018 9.38366343 55 10 C54.45921706 17.59592039 52.67206149 24.63812828 50.61645508 31.95922852 C50.05755802 33.95514867 49.51354437 35.95473865 48.97070312 37.95507812 C46.25408305 47.74591695 46.25408305 47.74591695 44 50 C40.87109375 50.59375 40.87109375 50.59375 37 50 C33.98473982 47.84230455 31.56346207 45.22430608 29.0625 42.5 C28.37865234 41.78457031 27.69480469 41.06914062 26.99023438 40.33203125 C25.30990401 38.56944695 23.6480712 36.79269461 22 35 C18.03686089 38.34442714 14.21617279 41.75589143 10.5 45.375 C7.42150781 48.11727461 6.28663611 48.94452204 2.125 49.75 C-1 49 -1 49 -2.56762695 47.40844727 C-4.40334035 44.32180799 -5.21940986 41.17367671 -6.04296875 37.71484375 C-6.30295403 36.66859581 -6.30295403 36.66859581 -6.56819153 35.60121155 C-6.93132104 34.13228335 -7.28993468 32.66223228 -7.64428711 31.19116211 C-8.1870648 28.93930556 -8.74365473 26.69121803 -9.30273438 24.44335938 C-9.65445657 23.01321998 -10.00539509 21.58288757 -10.35546875 20.15234375 C-10.52104782 19.48041489 -10.68662689 18.80848602 -10.85722351 18.11619568 C-11.52610101 15.32691943 -12 12.88134259 -12 10 C-10.7625 9.67 -9.525 9.34 -8.25 9 C-7.20585937 8.7215625 -7.20585937 8.7215625 -6.140625 8.4375 C-4 8 -4 8 0 8 C0 5.36 0 2.72 0 0 Z " fill="#F9BDAB" transform="translate(257,168)"/>
<path d="M0 0 C3.02588857 2.40393919 4.7467742 5.00141367 6.69140625 8.34375 C6.69140625 9.33375 6.69140625 10.32375 6.69140625 11.34375 C-12.43087002 22.26691204 -32.83099621 30.1078276 -53.74609375 36.84375 C-54.39000061 37.05144012 -55.03390747 37.25913025 -55.69732666 37.47311401 C-63.83604785 40.08226696 -71.9971435 42.35359461 -80.30859375 44.34375 C-80.63859375 38.73375 -80.96859375 33.12375 -81.30859375 27.34375 C-79.36339844 26.52132813 -77.41820312 25.69890625 -75.4140625 24.8515625 C-58.45142254 17.6407143 -41.60775265 10.37892233 -26.04150391 0.4074707 C-18.46459015 -4.24350327 -7.71094017 -4.50743893 0 0 Z " fill="#F2A496" transform="translate(460.30859375,254.65625)"/>
<path d="M0 0 C3.6833498 2.63461826 5.92174288 6.10688337 7.6875 10.20703125 C8.52338843 15.9221754 8.10582156 21.36060406 5.18359375 26.40625 C2.0793998 30.14262966 -2.02283364 32.07585943 -6.3125 34.20703125 C-7.23506592 34.67834473 -7.23506592 34.67834473 -8.17626953 35.15917969 C-10.17110065 36.17353388 -12.17604534 37.16358996 -14.1875 38.14453125 C-14.82985596 38.46365479 -15.47221191 38.78277832 -16.1340332 39.11157227 C-18.68251385 40.30863156 -20.71950757 41.23580731 -23.56640625 41.09765625 C-28.74854625 38.45441706 -32.21015483 32.4075693 -34.3125 27.20703125 C-36.20400187 19.9849332 -36.8387197 9.92628454 -33.3125 3.20703125 C-30.80380069 1.58237902 -28.15412446 0.71725172 -25.3125 -0.16796875 C-24.15826538 -0.54574463 -24.15826538 -0.54574463 -22.98071289 -0.93115234 C-14.6979856 -3.50528979 -7.79237589 -4.44605318 0 0 Z " fill="#F6F6FC" transform="translate(363.3125,276.79296875)"/>
<path d="M0 0 C2.44571662 0.96530054 4.87052517 1.94074123 7.26171875 3.03515625 C15.9722188 6.7241442 24.67982478 6.79493564 34 7 C34 7.99 34 8.98 34 10 C36.64 10 39.28 10 42 10 C41.76208431 17.49434434 40.08297581 22.39083622 35 28 C27.6341133 33.98556722 21.46048362 35.91063479 12 35 C3.58569395 32.62541056 -1.53272192 27.4823934 -5.99609375 20.13671875 C-7.5825832 16.7600272 -7.80141675 13.70688734 -8 10 C-5.36 10 -2.72 10 0 10 C0 6.7 0 3.4 0 0 Z " fill="#F9BDAB" transform="translate(153,145)"/>
<path d="M0 0 C1.093125 0.61875 2.18625 1.2375 3.3125 1.875 C12.47980101 6.41851346 22.96171856 6.44313183 33 7 C33 7.99 33 8.98 33 10 C35.64 10 38.28 10 41 10 C40.62865192 18.18822508 38.82087292 23.60880073 32.75 29.25 C26.95100818 33.85471962 20.98747832 35.66457619 13.5859375 35.4140625 C6.94327633 34.35043397 0.70706847 30.69744476 -3.81640625 25.73828125 C-6.94394753 21.14502756 -8.53668434 15.54573813 -8 10 C-5.36 10 -2.72 10 0 10 C0 6.7 0 3.4 0 0 Z " fill="#F9BDAB" transform="translate(381,145)"/>
<path d="M0 0 C5.15930214 2.7875968 8.51316221 6.96493517 10.79296875 12.28125 C11.78054271 19.03349983 10.77925561 24.70818876 6.79296875 30.28125 C1.27925357 35.51927942 -3.06204462 36.70179749 -10.5234375 36.5234375 C-16.88538351 35.94928808 -20.11021502 32.66484107 -24.0078125 28 C-27.37206569 23.17826904 -26.7347095 16.88504438 -26.20703125 11.28125 C-21.28810825 0.87583597 -11.04708602 -3.59763509 0 0 Z " fill="#E4E3FA" transform="translate(68.20703125,264.71875)"/>
<path d="M0 0 C2.64 1.65 5.28 3.3 8 5 C8.99 5.33 9.98 5.66 11 6 C11.08636719 6.76183594 11.17273438 7.52367188 11.26171875 8.30859375 C12.28433859 15.82344234 13.63024577 23.51870203 19.8828125 28.5 C20.51960938 28.95375 21.15640625 29.4075 21.8125 29.875 C24.37127516 31.82454298 24.93216792 32.57158686 25.4453125 35.8125 C25.43826454 38.57530219 25.30766216 41.25545823 25 44 C24.42032471 44.02505615 23.84064941 44.0501123 23.2434082 44.07592773 C20.59957893 44.19246234 17.95605591 44.31492682 15.3125 44.4375 C14.40048828 44.47681641 13.48847656 44.51613281 12.54882812 44.55664062 C11.66259766 44.59853516 10.77636719 44.64042969 9.86328125 44.68359375 C9.05157471 44.72025146 8.23986816 44.75690918 7.40356445 44.79467773 C4.54749273 44.99348398 4.54749273 44.99348398 0 46 C0 30.82 0 15.64 0 0 Z " fill="#1E2A44" transform="translate(356,111)"/>
<path d="M0 0 C0.33 0 0.66 0 1 0 C1 15.18 1 30.36 1 46 C-6.92 45.34 -14.84 44.68 -23 44 C-23 32 -23 32 -20.3125 29.3125 C-19.7659375 28.95929688 -19.219375 28.60609375 -18.65625 28.2421875 C-13.48990687 24.36743015 -11.85835686 17.7747255 -10.6875 11.75 C-9.54926088 6.52475026 -9.54926088 6.52475026 -7.07421875 4.16015625 C-5.08950514 2.94394631 -3.12641102 1.93924433 -1 1 C-0.67 0.67 -0.34 0.34 0 0 Z " fill="#1F2A44" transform="translate(437,111)"/>
<path d="M0 0 C1.2375 -0.020625 2.475 -0.04125 3.75 -0.0625 C4.44609375 -0.07410156 5.1421875 -0.08570313 5.859375 -0.09765625 C8.03645901 0.00166328 9.89974195 0.44416248 12 1 C11.45921706 8.59592039 9.67206149 15.63812828 7.61645508 22.95922852 C7.05755802 24.95514867 6.51354437 26.95473865 5.97070312 28.95507812 C3.25408305 38.74591695 3.25408305 38.74591695 1 41 C-2.12890625 41.59375 -2.12890625 41.59375 -6 41 C-9.01526018 38.84230455 -11.43653793 36.22430608 -13.9375 33.5 C-14.62134766 32.78457031 -15.30519531 32.06914062 -16.00976562 31.33203125 C-17.69009599 29.56944695 -19.3519288 27.79269461 -21 26 C-19.03825499 25.00995332 -17.09156769 24.0391109 -15.0703125 23.17578125 C-8.83676683 20.4094889 -4.91968474 16.56512879 -1.6875 10.5625 C-0.74627938 7.05431406 -0.3675372 3.61411583 0 0 Z " fill="#E9E4F8" transform="translate(300,177)"/>
<path d="M0 0 C0.14695312 1.30324219 0.14695312 1.30324219 0.296875 2.6328125 C1.54614075 12.62765115 1.54614075 12.62765115 7.60546875 20.390625 C11.18843206 23.14310013 14.59782626 24.818929 19 26 C17.38947264 30.09952418 14.46114474 32.79887172 11.3125 35.75 C10.80783203 36.25660156 10.30316406 36.76320312 9.78320312 37.28515625 C6.94959516 39.94323098 5.15886129 40.975225 1.29296875 41.578125 C-2 41 -2 41 -3.578125 39.41918945 C-5.3967048 36.32504329 -6.21965319 33.17265476 -7.04296875 29.71484375 C-7.30295403 28.66859581 -7.30295403 28.66859581 -7.56819153 27.60121155 C-7.93132104 26.13228335 -8.28993468 24.66223228 -8.64428711 23.19116211 C-9.1870648 20.93930556 -9.74365473 18.69121803 -10.30273438 16.44335938 C-10.65445657 15.01321998 -11.00539509 13.58288757 -11.35546875 12.15234375 C-11.52104782 11.48041489 -11.68662689 10.80848602 -11.85722351 10.11619568 C-12.52610101 7.32691943 -13 4.88134259 -13 2 C-8.47580359 0.77309928 -4.70776045 -0.13191623 0 0 Z " fill="#E9E4F8" transform="translate(258,176)"/>
<path d="M0 0 C2.97 0 5.94 0 9 0 C9.391875 1.381875 9.78375 2.76375 10.1875 4.1875 C11.95750769 9.47259337 14.46297647 12.44959673 19.25 15.375 C24.67059155 16.60695263 29.35488778 15.80703618 34.3125 13.375 C38.37863526 9.78167116 41.12422364 5.47360225 42 0 C44.64 0 47.28 0 50 0 C49.76208431 7.49434434 48.08297581 12.39083622 43 18 C35.6341133 23.98556722 29.46048362 25.91063479 20 25 C11.58569395 22.62541056 6.46727808 17.4823934 2.00390625 10.13671875 C0.4174168 6.7600272 0.19858325 3.70688734 0 0 Z " fill="#FDFDFB" transform="translate(145,155)"/>
<path d="M0 0 C2.64 0 5.28 0 8 0 C8.13535156 0.58007812 8.27070313 1.16015625 8.41015625 1.7578125 C10.11864952 7.95749468 12.54144457 11.52637382 18 15 C22.66252858 16.55417619 26.48753327 16.54448802 31.125 14.875 C37.05432975 11.00804582 39.52853566 6.68847428 41 0 C43.64 0 46.28 0 49 0 C48.62865192 8.18822508 46.82087292 13.60880073 40.75 19.25 C34.95100818 23.85471962 28.98747832 25.66457619 21.5859375 25.4140625 C14.94327633 24.35043397 8.70706847 20.69744476 4.18359375 15.73828125 C1.05605247 11.14502756 -0.53668434 5.54573813 0 0 Z " fill="#FCFCFD" transform="translate(373,155)"/>
<path d="M0 0 C0 3 0 3 -1.4765625 4.578125 C-31.54137112 27.97401243 -77.0686202 37.00528021 -113.0625 47.3125 C-114.08261169 47.60743347 -115.10272339 47.90236694 -116.15374756 48.20623779 C-119.04874671 49.04034841 -121.94733638 49.86039099 -124.84765625 50.67578125 C-125.7157341 50.92718369 -126.58381195 51.17858612 -127.47819519 51.43760681 C-128.68213676 51.77073631 -128.68213676 51.77073631 -129.91040039 52.1105957 C-130.60710342 52.30756546 -131.30380646 52.50453522 -132.0216217 52.70747375 C-134.28522195 53.04217338 -135.83588752 52.68926531 -138 52 C-137.09797852 51.69932617 -136.19595703 51.39865234 -135.26660156 51.08886719 C-134.66052567 50.88683685 -134.05444977 50.68480652 -133.43000793 50.47665405 C-132.04320978 50.01439838 -130.65639901 49.55218054 -129.26957703 49.08999634 C-125.27781523 47.75959987 -121.28629938 46.42847203 -117.29516602 45.09619141 C-109.33022598 42.43818405 -101.36344261 39.78651348 -93.38671875 37.1640625 C-76.31018218 31.54202588 -59.29328984 25.74785761 -42.31887817 19.82452393 C-40.04437086 19.03229905 -37.76857146 18.24377298 -35.49142456 17.45916748 C-32.27937538 16.35100029 -29.07281814 15.22814186 -25.8671875 14.1015625 C-24.91754623 13.77690002 -23.96790497 13.45223755 -22.98948669 13.11773682 C-14.50665311 10.10449892 -6.82902695 5.91849002 0 0 Z " fill="#F2A697" transform="translate(373,309)"/>
<path d="M0 0 C2.64 1.98 5.28 3.96 8 6 C8.99 6.33 9.98 6.66 11 7 C11.07476562 7.75023438 11.14953125 8.50046875 11.2265625 9.2734375 C12.20956045 16.92540195 14.16358661 22.90241661 19 29 C20.3316254 30.00227321 21.66458839 31.00277705 23 32 C23 32.66 23 33.32 23 34 C19.91619904 33.52381168 16.83304954 33.04352732 13.75 32.5625 C12.87730469 32.42779297 12.00460938 32.29308594 11.10546875 32.15429688 C10.26113281 32.02216797 9.41679687 31.89003906 8.546875 31.75390625 C7.77182617 31.63345947 6.99677734 31.5130127 6.19824219 31.38891602 C4.11330394 31.02004589 2.05409952 30.51352488 0 30 C0 20.1 0 10.2 0 0 Z " fill="#1E2943" transform="translate(129,110)"/>
<path d="M0 0 C0.33 0 0.66 0 1 0 C1 9.57 1 19.14 1 29 C-1.866875 29.66 -4.73375 30.32 -7.6875 31 C-8.58170654 31.20882812 -9.47591309 31.41765625 -10.3972168 31.6328125 C-14.32727698 32.52134018 -17.94057895 33.26456512 -22 33 C-21.113125 32.05125 -20.22625 31.1025 -19.3125 30.125 C-14.36830922 24.31586805 -11.16061295 18.21975509 -10.1875 10.625 C-9.52675598 6.40945318 -9.52675598 6.40945318 -7.140625 4.5546875 C-4.9375 3.5 -4.9375 3.5 -2.77734375 2.71875 C-0.79740096 2.14607794 -0.79740096 2.14607794 0 0 Z " fill="#1F2A44" transform="translate(210,111)"/>
<path d="M0 0 C0.33 0 0.66 0 1 0 C2.04952615 6.86621477 2.14516872 13.59283429 2.1328125 20.53125 C2.13376923 21.7217395 2.13472595 22.912229 2.13571167 24.13879395 C2.1363898 26.64672906 2.13456119 29.15466595 2.13037109 31.66259766 C2.12501771 35.48734504 2.13032861 39.31197499 2.13671875 43.13671875 C2.1360579 45.58072942 2.13477661 48.02474003 2.1328125 50.46875 C2.13483673 51.60542114 2.13686096 52.74209229 2.13894653 53.91320801 C2.12195976 59.70477565 1.87540675 65.27290997 1 71 C-4.03495141 62.0076458 -2.18623354 49.01103116 -2.18530273 38.95922852 C-2.18748109 36.33528204 -2.20567244 33.7117627 -2.22460938 31.08789062 C-2.25844439 20.55702013 -1.61092812 10.41490132 0 0 Z " fill="#EAECEE" transform="translate(93,381)"/>
<path d="M0 0 C7.59 0 15.18 0 23 0 C23.33 1.32 23.66 2.64 24 4 C21.59302747 7.88818639 19.43569975 9.86528611 15 11 C9.27449119 11.62460096 6.49245792 10.55217603 2 7 C1.34 6.34 0.68 5.68 0 5 C0 3.35 0 1.7 0 0 Z " fill="#FEFAF9" transform="translate(266,148)"/>
<path d="M0 0 C3.16842693 0.25689948 4.60962957 0.58270747 6.8125 2.9375 C8.87168244 8.24802315 8.95334383 13.64172843 6.8125 18.9375 C4.70322125 21.33771375 2.92999795 22.71365944 0 24 C-2.3125 23.6875 -2.3125 23.6875 -4 23 C-3.34 23 -2.68 23 -2 23 C-2.02320313 22.01 -2.04640625 21.02 -2.0703125 20 C-2.18269259 13.06140739 -2.1774038 6.66829915 0 0 Z " fill="#F8BBAA" transform="translate(322,111)"/>
<path d="M0 0 C2 1 2 1 3.125 4.125 C4.6425044 10.59810471 4.1548323 17.39382183 4 24 C4.99 24.33 5.98 24.66 7 25 C2.68904992 24.7464147 0.50285372 24.4154009 -2.875 21.625 C-5.92722264 17.85460733 -6.28454204 14.86697525 -6.22265625 10.06640625 C-5.88205963 6.9054306 -4.70277003 4.64875337 -3 2 C-2.01 1.34 -1.02 0.68 0 0 Z " fill="#F9BCAB" transform="translate(233,110)"/>
<path d="M0 0 C0.33 0 0.66 0 1 0 C0.75128396 6.96404906 -1.17576699 10.96359007 -6 16 C-11.1702932 20.31272053 -15.54663178 21.1234254 -22.1875 21.0625 C-23.45980469 21.05347656 -24.73210937 21.04445312 -26.04296875 21.03515625 C-27.50669922 21.01775391 -27.50669922 21.01775391 -29 21 C-29.33 20.34 -29.66 19.68 -30 19 C-28.9378125 18.72027344 -27.875625 18.44054687 -26.78125 18.15234375 C-18.42867282 15.83163479 -11.86631792 13.7185675 -6 7 C-5.41605469 6.33871094 -4.83210938 5.67742187 -4.23046875 4.99609375 C-2.80509825 3.34373217 -1.40036463 1.67360651 0 0 Z " fill="#FCECEE" transform="translate(356,223)"/>
<path d="M0 0 C1.17040017 3.67152929 0.68208475 5.684827 -0.99609375 9.19921875 C-3.83059502 14.28367433 -7.27443945 17.89198366 -12.5390625 20.3125 C-17.54870263 21.71201851 -22.8623346 21.62583459 -28 21 C-28.66 20.34 -29.32 19.68 -30 19 C-29.17757813 18.78085938 -28.35515625 18.56171875 -27.5078125 18.3359375 C-15.2820776 14.86303821 -7.17204769 10.68682602 0 0 Z " fill="#F4F8FF" transform="translate(456,182)"/>
<path d="M0 0 C0.66 0 1.32 0 2 0 C2 3.3 2 6.6 2 10 C-11.36707504 10.51855032 -25.24833124 10.09996654 -37 3 C-35 2 -35 2 -33.29296875 2.55859375 C-32.25076172 2.99365234 -32.25076172 2.99365234 -31.1875 3.4375 C-20.84386457 7.01798919 -10.86038716 5.23316621 -1 1 C-0.67 0.67 -0.34 0.34 0 0 Z " fill="#EB8F85" transform="translate(298,167)"/>
<path d="M0 0 C4.69265417 1.17316354 6.1173937 2.15652494 9 6 C9.8483595 9.19902228 9.90657571 11.81019659 9 15 C7.00258355 17.53558047 4.79446854 19.38780661 2 21 C1.34 21 0.68 21 0 21 C0 14.07 0 7.14 0 0 Z " fill="#F7BBA9" transform="translate(430,95)"/>
<path d="M0 0 C5.94 0 11.88 0 18 0 C18.33 0.99 18.66 1.98 19 3 C13.3 8.85 13.3 8.85 8.75 9.375 C3.85162217 8.88516222 2.45922935 7.3748579 -1 4 C-0.67 2.68 -0.34 1.36 0 0 Z " fill="#FEF7F5" transform="translate(388,129)"/>
<path d="M0 0 C0 6.93 0 13.86 0 21 C-4.95452781 19.01818887 -6.3647789 18.39203516 -9 14 C-9.55747889 10.59318457 -9.77411846 8.27686698 -7.94140625 5.25390625 C-3.69544365 0 -3.69544365 0 0 0 Z " fill="#F6BAA9" transform="translate(364,95)"/>
<path d="M0 0 C6.27 0 12.54 0 19 0 C17.83594603 4.65621589 17.01885656 5.55373949 13 8 C9.12693172 8.48413353 6.73191324 8.30231199 3.125 6.8125 C1 5 1 5 0 0 Z " fill="#FEFCFB" transform="translate(160,130)"/>
<path d="M0 0 C0 2.64 0 5.28 0 8 C-23.61707477 8.93532969 -23.61707477 8.93532969 -30.78515625 2.36328125 C-31.18605469 1.91339844 -31.58695313 1.46351563 -32 1 C-30.783125 1.495 -29.56625 1.99 -28.3125 2.5 C-20.53147564 5.06099857 -12.30323964 5.37971392 -4.75 2 C-0.94444444 0 -0.94444444 0 0 0 Z " fill="#EB9086" transform="translate(187,144)"/>
<path d="M0 0 C0 2.64 0 5.28 0 8 C-9.28837372 8.37599114 -18.13462622 8.08237876 -27 5 C-27.33 4.34 -27.66 3.68 -28 3 C-26.93845703 3.23783203 -26.93845703 3.23783203 -25.85546875 3.48046875 C-15.73786557 5.32129122 -8.89769911 0 0 0 Z " fill="#EB8E84" transform="translate(414,144)"/>
<path d="M0 0 C0.66 0.66 1.32 1.32 2 2 C1.38253906 2.23074219 0.76507813 2.46148437 0.12890625 2.69921875 C-10.66003348 6.53015783 -10.66003348 6.53015783 -19.0625 13.8125 C-19.371875 14.534375 -19.68125 15.25625 -20 16 C-20.6640625 14.25390625 -20.6640625 14.25390625 -21 12 C-18.15060145 6.41903517 -13.97257693 2.40962407 -8.0625 0.3125 C-5.31816773 -0.10330792 -2.77031053 -0.18067243 0 0 Z " fill="#EDFBE9" transform="translate(136,169)"/>
<path d="M0 0 C0.90105469 0.00902344 1.80210937 0.01804688 2.73046875 0.02734375 C3.41753906 0.03894531 4.10460937 0.05054688 4.8125 0.0625 C2.38482071 1.68095286 0.40332618 2.71457193 -2.25 3.8125 C-9.02785444 6.76950512 -15.33291349 10.5476358 -21.1875 15.0625 C-19.04708172 8.2520782 -14.11229547 4.66889724 -8.1875 1.0625 C-5.17259443 0.05753148 -3.14568308 -0.04085303 0 0 Z " fill="#E9EAED" transform="translate(165.1875,55.9375)"/>
<path d="M0 0 C-2.23909769 1.49273179 -4.21264563 2.63880554 -6.6171875 3.76953125 C-7.30683594 4.10146484 -7.99648438 4.43339844 -8.70703125 4.77539062 C-10.14143886 5.46158021 -11.5789217 6.14138145 -13.01953125 6.81445312 C-17.49099444 8.98357074 -20.58987472 11.29416275 -24 15 C-24.99 15.495 -24.99 15.495 -26 16 C-24.76794248 9.68570521 -21.06907274 6.54655973 -16 3 C-10.68267618 0.08471049 -5.98850408 -0.32081272 0 0 Z " fill="#F2F3F4" transform="translate(397,56)"/>
<path d="M0 0 C0.33 0.66 0.66 1.32 1 2 C1.66 2 2.32 2 3 2 C3 9.59 3 17.18 3 25 C2.34 25 1.68 25 1 25 C1 26.98 1 28.96 1 31 C0.67 31 0.34 31 0 31 C0 20.77 0 10.54 0 0 Z " fill="#D78C85" transform="translate(427,92)"/>
<path d="M0 0 C0.99 0 1.98 0 3 0 C3 7.59 3 15.18 3 23 C2.01 23 1.02 23 0 23 C0 15.41 0 7.82 0 0 Z " fill="#E49288" transform="translate(364,94)"/>
<path d="M0 0 C2.5625 0.1875 2.5625 0.1875 4.5625 2.1875 C4.00694444 6.74305556 4.00694444 6.74305556 2.5625 8.1875 C0.125 8.375 0.125 8.375 -2.4375 8.1875 C-3.0975 7.5275 -3.7575 6.8675 -4.4375 6.1875 C-3.71780303 0.28598485 -3.71780303 0.28598485 0 0 Z " fill="#283048" transform="translate(259.4375,117.8125)"/>
<path d="M0 0 C3 0.125 3 0.125 4 1.125 C4.125 4.125 4.125 4.125 4 7.125 C3 8.125 3 8.125 0.5625 8.3125 C-2 8.125 -2 8.125 -4 6.125 C-4.1875 3.5625 -4.1875 3.5625 -4 1.125 C-3 0.125 -3 0.125 0 0 Z " fill="#262F47" transform="translate(295,117.875)"/>
<path d="M0 0 C6.27 0 12.54 0 19 0 C18.67 0.99 18.34 1.98 18 3 C12.39 3 6.78 3 1 3 C0.67 2.01 0.34 1.02 0 0 Z " fill="#383B50" transform="translate(287,111)"/>
<path d="M0 0 C5.94 0 11.88 0 18 0 C18 0.99 18 1.98 18 3 C12.06 3 6.12 3 0 3 C0 2.01 0 1.02 0 0 Z " fill="#373A4F" transform="translate(251,111)"/>
<path d="M0 0 C0.93714922 3.11751998 1.05686895 5.74149909 0.87890625 8.984375 C0.83056641 9.91894531 0.78222656 10.85351562 0.73242188 11.81640625 C0.67634766 12.78449219 0.62027344 13.75257812 0.5625 14.75 C0.51029297 15.73355469 0.45808594 16.71710938 0.40429688 17.73046875 C0.27488563 20.15398849 0.13993095 22.57706864 0 25 C-0.99 24.67 -1.98 24.34 -3 24 C-3 16.74 -3 9.48 -3 2 C-2.01 2 -1.02 2 0 2 C0 1.34 0 0.68 0 0 Z " fill="#E18B82" transform="translate(140,92)"/>
<path d="M0 0 C4.62 0 9.24 0 14 0 C14.33 0.99 14.66 1.98 15 3 C9.72 3 4.44 3 -1 3 C-0.67 2.01 -0.34 1.02 0 0 Z " fill="#3D3E52" transform="translate(177,99)"/>
<path d="M0 0 C4.95 0 9.9 0 15 0 C15 0.99 15 1.98 15 3 C10.05 3 5.1 3 0 3 C0 2.01 0 1.02 0 0 Z " fill="#3C3E51" transform="translate(148,99)"/>
<path d="M0 0 C4.62 0 9.24 0 14 0 C14 0.99 14 1.98 14 3 C9.05 3 4.1 3 -1 3 C-0.67 2.01 -0.34 1.02 0 0 Z " fill="#3A3C50" transform="translate(404,99)"/>
<path d="M0 0 C4.62 0 9.24 0 14 0 C14 0.99 14 1.98 14 3 C9.05 3 4.1 3 -1 3 C-0.67 2.01 -0.34 1.02 0 0 Z " fill="#3C3E51" transform="translate(376,99)"/>
<path d="M0 0 C1.16306443 3.54950034 0.92365049 6.55823948 0.5625 10.25 C0.40974609 11.86648437 0.40974609 11.86648437 0.25390625 13.515625 C0.17011719 14.33546875 0.08632812 15.1553125 0 16 C-0.99 16 -1.98 16 -3 16 C-3 11.71 -3 7.42 -3 3 C-2.34 3 -1.68 3 -1 3 C-0.67 2.01 -0.34 1.02 0 0 Z " fill="#DC8981" transform="translate(240,118)"/>
<path d="M0 0 C0.99 0 1.98 0 3 0 C3 4.29 3 8.58 3 13 C2.01 13 1.02 13 0 13 C0 8.71 0 4.42 0 0 Z " fill="#DE857E" transform="translate(317,121)"/>
<path d="M0 0 C2.125 0.375 2.125 0.375 4 1 C4 2.65 4 4.3 4 6 C2.35 6.33 0.7 6.66 -1 7 C-1.625 4.625 -1.625 4.625 -2 2 C-1.34 1.34 -0.68 0.68 0 0 Z " fill="#2E344B" transform="translate(183,105)"/>
<path d="M0 0 C1.2065625 0.0309375 1.2065625 0.0309375 2.4375 0.0625 C3.0625 1.9375 3.0625 1.9375 3.4375 4.0625 C2.7775 4.7225 2.1175 5.3825 1.4375 6.0625 C0.1175 6.0625 -1.2025 6.0625 -2.5625 6.0625 C-2.94468767 4.40635343 -3.27645102 2.73792976 -3.5625 1.0625 C-2.5625 0.0625 -2.5625 0.0625 0 0 Z " fill="#2E344B" transform="translate(155.5625,105.9375)"/>
<path d="M0 0 C1.2065625 0.0309375 1.2065625 0.0309375 2.4375 0.0625 C3.0625 1.9375 3.0625 1.9375 3.4375 4.0625 C2.7775 4.7225 2.1175 5.3825 1.4375 6.0625 C-0.6875 5.6875 -0.6875 5.6875 -2.5625 5.0625 C-3.125 3.125 -3.125 3.125 -3.5625 1.0625 C-2.5625 0.0625 -2.5625 0.0625 0 0 Z " fill="#2B3249" transform="translate(410.5625,105.9375)"/>
<path d="M0 0 C1.65 0 3.3 0 5 0 C5.625 1.875 5.625 1.875 6 4 C5.34 4.66 4.68 5.32 4 6 C1.875 5.625 1.875 5.625 0 5 C0 3.35 0 1.7 0 0 Z " fill="#222C45" transform="translate(380,106)"/>
<path d="M0 0 C0.33 0 0.66 0 1 0 C1.33 5.28 1.66 10.56 2 16 C1.01 15.34 0.02 14.68 -1 14 C-0.67 9.38 -0.34 4.76 0 0 Z " fill="#CBCDD3" transform="translate(93,381)"/>
<path d="M0 0 C0.66 0.33 1.32 0.66 2 1 C-0.82522609 5.67248931 -3.67760044 8.65996398 -8 12 C-6.64994369 6.32976351 -4.1842771 3.82042691 0 0 Z " fill="#E3E4E7" transform="translate(379,60)"/>
<path d="M0 0 C2.97 0 5.94 0 9 0 C8.67 0.99 8.34 1.98 8 3 C5.125 3.1875 5.125 3.1875 2 3 C1.34 2.01 0.68 1.02 0 0 Z " fill="#EA8D84" transform="translate(273,136)"/>
<path d="M0 0 C0.66 0 1.32 0 2 0 C3.26237731 2.52475462 3.09856404 4.31200466 3.0625 7.125 C3.05347656 8.03507812 3.04445313 8.94515625 3.03515625 9.8828125 C3.02355469 10.58148438 3.01195313 11.28015625 3 12 C2.67 12 2.34 12 2 12 C1.67 10.02 1.34 8.04 1 6 C0.67 6 0.34 6 0 6 C0 4.02 0 2.04 0 0 Z " fill="#2D3A55" transform="translate(103,248)"/>
</svg>
