<?xml version="1.0" encoding="UTF-8"?>
<svg version="1.1" xmlns="http://www.w3.org/2000/svg" width="512" height="512">
<path d="M0 0 C0.61665527 0.19335938 1.23331055 0.38671875 1.86865234 0.5859375 C18.57038078 5.90553447 31.74379513 14.56951564 44 27 C44.74894531 27.73863281 45.49789063 28.47726563 46.26953125 29.23828125 C61.64621436 45.34285468 69.78937095 68.05734851 71 90 C71.061875 90.99773437 71.061875 90.99773437 71.125 92.015625 C71.95668809 119.2534098 61.41269148 143.60746685 43.59765625 163.7109375 C34.47118915 173.32553007 23.68421416 179.96918006 11.91186523 185.81860352 C5.22930617 189.1879411 -0.55288564 193.10577128 -4 200 C-3.60271074 205.68367786 -1.90493421 210.76911653 -0.05859375 216.109375 C0.22853989 216.9580011 0.51567352 217.8066272 0.81150818 218.68096924 C1.72273465 221.37264829 2.64184776 224.06153163 3.5625 226.75 C4.48614987 229.45293168 5.40795099 232.15642869 6.32420349 234.86187744 C6.89287327 236.54060046 7.46585685 238.21786969 8.04359436 239.89349365 C10 245.66271915 10 245.66271915 10 249 C10.66 248.67 11.32 248.34 12 248 C15.70228154 247.73023782 19.41400413 247.76832591 23.125 247.75 C24.1459375 247.729375 25.166875 247.70875 26.21875 247.6875 C33.24147308 247.65139345 39.3954987 248.00088791 45.0234375 252.68359375 C45.46945312 253.26238281 45.91546875 253.84117187 46.375 254.4375 C46.83648437 255.01371094 47.29796875 255.58992188 47.7734375 256.18359375 C52.30007888 262.88705949 51.62768448 270.18881539 51 278 C49.55046439 283.39070541 46.66612903 286.93017827 42 290 C41.34 290.33 40.68 290.66 40 291 C40.78503906 291.3403125 41.57007813 291.680625 42.37890625 292.03125 C50.14168021 295.61260339 56.10960169 299.31757463 60.06884766 307.10131836 C61.28523756 310.88794587 61.2403547 314.47475211 61.203125 318.40625 C61.2136693 320.05339335 61.22542496 321.70052932 61.23828125 323.34765625 C61.24860693 325.92858412 61.24993449 328.50847378 61.22998047 331.08935547 C61.21520186 333.59170727 61.23767212 336.09155911 61.265625 338.59375 C61.24257294 339.7455072 61.24257294 339.7455072 61.21905518 340.92053223 C61.20215464 343.41490624 61.20215464 343.41490624 62 347 C63.46315343 348.26070138 64.93529788 349.51818854 66.50334358 350.64576054 C70.11732011 353.91584282 70.84059468 359.28449293 71.27301788 363.93819618 C71.38928259 367.3608901 71.40539841 370.77092172 71.38818359 374.19555664 C71.39606903 376.13872017 71.39606903 376.13872017 71.40411377 378.12113953 C71.41770409 381.65004381 71.41252373 385.17868281 71.40297651 388.7075913 C71.39533825 392.41407141 71.40243688 396.12053003 71.40713501 399.82701111 C71.41257982 406.04820806 71.40543385 412.26929786 71.39111328 418.49047852 C71.37478198 425.66774482 71.38008379 432.84475549 71.3965925 440.02201563 C71.41023525 446.20233559 71.41211365 452.3825789 71.40427649 458.56290907 C71.39961618 462.24631305 71.39892976 465.92959711 71.40888596 469.61299324 C71.4192138 473.72009388 71.40487287 477.82675818 71.38818359 481.93383789 C71.39425629 483.14393524 71.40032898 484.35403259 71.40658569 485.60079956 C71.30231232 499.47381309 71.30231232 499.47381309 66.5481472 504.55027866 C61.75076566 508.68217672 58.54255141 509.15482433 52.43261719 509.17700195 C51.65192368 509.18357315 50.87123016 509.19014435 50.06687927 509.19691467 C47.47687691 509.21666447 44.88693262 509.22831483 42.296875 509.23828125 C41.4125605 509.24235678 40.528246 509.2464323 39.61713409 509.25063133 C34.93535088 509.27150063 30.25359703 509.28579783 25.57177734 509.29516602 C20.7384534 509.30622393 15.90559068 509.3406141 11.07242966 509.38033772 C7.3543208 509.40650081 3.63632178 509.41485764 -0.08187103 509.41844749 C-1.86323914 509.42331535 -3.64460227 509.43493503 -5.42588043 509.45348549 C-7.92263646 509.47786777 -10.4182001 509.47691377 -12.91503906 509.4699707 C-13.64773514 509.48278076 -14.38043121 509.49559082 -15.1353302 509.50878906 C-20.24927192 509.45709295 -23.1267062 508.31013777 -27 505 C-31 499 -31 499 -31 468 C-120.76 468 -210.52 468 -303 468 C-303 478.23 -303 488.46 -303 499 C-307.95080662 506.42620993 -307.95080662 506.42620993 -313 509 C-315.80971572 509.37994303 -318.22080413 509.54879581 -321.02148438 509.51757812 C-322.1934008 509.52809204 -322.1934008 509.52809204 -323.38899231 509.53881836 C-325.95761224 509.55634568 -328.52511992 509.54479495 -331.09375 509.53125 C-332.88684296 509.53394644 -334.67993449 509.53783013 -336.47302246 509.54284668 C-340.22548383 509.54873458 -343.97756356 509.54020174 -347.72998047 509.52148438 C-352.53190237 509.49869511 -357.33292992 509.51182201 -362.13481903 509.53577423 C-365.83582253 509.55025145 -369.53661516 509.54561743 -373.23762512 509.53526306 C-375.00779833 509.53260109 -376.77799088 509.53584688 -378.54814148 509.54518127 C-381.02544623 509.55537884 -383.50131724 509.53980245 -385.97851562 509.51757812 C-386.70492752 509.52567505 -387.43133942 509.53377197 -388.17976379 509.54211426 C-393.24307297 509.45826666 -396.0543584 508.10092526 -400 505 C-400.5775 504.566875 -401.155 504.13375 -401.75 503.6875 C-406.25464367 497.60623105 -405.28924421 489.19308414 -405.2746582 482.04736328 C-405.27976913 480.75381927 -405.28488007 479.46027527 -405.29014587 478.12753296 C-405.30348524 474.59436901 -405.30412017 471.06131236 -405.30158257 467.52812815 C-405.30050932 464.57107595 -405.30540533 461.61404515 -405.310188 458.65699756 C-405.32126589 451.67642595 -405.32173042 444.69590817 -405.31567383 437.71533203 C-405.30963623 430.53132172 -405.32194346 423.34750736 -405.3432439 416.16353047 C-405.36089942 409.97984771 -405.366855 403.79622711 -405.36360615 397.6125201 C-405.36179928 393.92624826 -405.3643695 390.24011619 -405.37832069 386.55386734 C-405.39331047 382.43959216 -405.3838945 378.325712 -405.37231445 374.21142578 C-405.37995819 373.00178162 -405.38760193 371.79213745 -405.39547729 370.5458374 C-405.35530404 364.07537742 -405.15094125 357.8109341 -402 352 C-400.5007925 350.64208889 -400.5007925 350.64208889 -398.85400391 349.45629883 C-395.62116282 347.19286963 -395.62116282 347.19286963 -395.29052734 343.1628418 C-395.27666644 341.67495502 -395.29349523 340.18656466 -395.3359375 338.69921875 C-395.33171783 337.90401321 -395.32749817 337.10880768 -395.32315063 336.289505 C-395.31231065 333.75454709 -395.3402812 331.2222132 -395.375 328.6875 C-395.39915672 326.16384701 -395.41416663 323.64139327 -395.40542603 321.11763 C-395.40090026 319.55146951 -395.41513714 317.98509627 -395.45175171 316.4193573 C-395.44857053 309.88488819 -393.38009442 304.83368844 -389.17578125 299.828125 C-384.45607555 295.83072227 -379.79864655 293.16106966 -374 291 C-375.36125 290.195625 -375.36125 290.195625 -376.75 289.375 C-381.01574909 286.54125179 -383.38759027 282.83722919 -385 278 C-386.27214531 261.66201958 -386.27214531 261.66201958 -381.421875 255.4765625 C-376.02812559 249.87536119 -371.20949837 247.91649818 -363.453125 247.76953125 C-361.38537085 247.77349246 -359.31761397 247.78809959 -357.25 247.8125 C-356.19683594 247.81314453 -355.14367187 247.81378906 -354.05859375 247.81445312 C-346.28123985 247.85938007 -346.28123985 247.85938007 -344 249 C-343.88484417 248.44376229 -343.76968834 247.88752459 -343.65104294 247.31443119 C-342.53304821 242.080417 -341.16219575 237.02386258 -339.48144531 231.94506836 C-339.23719818 231.19582596 -338.99295105 230.44658356 -338.74130249 229.67463684 C-337.94190456 227.22803461 -337.13571615 224.7837529 -336.328125 222.33984375 C-335.91183964 221.07639224 -335.91183964 221.07639224 -335.48714447 219.78741646 C-334.0198832 215.33503867 -332.54732353 210.88445525 -331.0703125 206.43530273 C-329.55304259 201.86142252 -328.05402267 197.28177754 -326.5591011 192.70055294 C-325.39896801 189.15655186 -324.22535517 185.61711998 -323.04811859 182.07876778 C-322.48977322 180.39286648 -321.93641821 178.70530332 -321.38834381 177.01603508 C-314.70138132 156.44322804 -314.70138132 156.44322804 -306.15234375 151.57421875 C-299.29699084 148.96967094 -291.80585138 149.09090813 -284.5625 148.8125 C-282.99887542 148.73986463 -281.43531696 148.66579262 -279.87182617 148.59033203 C-275.97413596 148.40660608 -272.07591289 148.24395339 -268.17700195 148.08856201 C-264.94561042 147.95710667 -261.71506722 147.80768244 -258.484375 147.66015625 C-246.98535179 147.15594999 -235.51028638 146.84351574 -224 147 C-223.78085938 145.96746094 -223.56171875 144.93492187 -223.3359375 143.87109375 C-222.26716404 138.90403392 -221.14375279 133.95029171 -220 129 C-219.65461182 127.50049805 -219.65461182 127.50049805 -219.30224609 125.97070312 C-218.57688424 122.87076635 -217.8234608 119.77887246 -217.0625 116.6875 C-216.72001221 115.21204712 -216.72001221 115.21204712 -216.37060547 113.70678711 C-216.13615723 112.77616455 -215.90170898 111.84554199 -215.66015625 110.88671875 C-215.46043213 110.06389404 -215.26070801 109.24106934 -215.05493164 108.39331055 C-213.57115273 105.02707943 -211.86554117 103.32093814 -209 101 C-206.06933005 100.53038299 -203.73292665 100.36314324 -200.81323242 100.43237305 C-200.00295593 100.43164291 -199.19267944 100.43091278 -198.35784912 100.43016052 C-195.68969899 100.4336335 -193.02331243 100.47247897 -190.35546875 100.51171875 C-188.50174412 100.52104795 -186.64800713 100.52816356 -184.79426575 100.53315735 C-179.92283907 100.55221876 -175.05216159 100.60131215 -170.18103027 100.65667725 C-165.20737848 100.70788823 -160.23360525 100.73067534 -155.25976562 100.75585938 C-145.50618182 100.80943173 -135.75315329 100.89473417 -126 101 C-126.00883713 100.44094467 -126.01767426 99.88188934 -126.02677917 99.30589294 C-126.06229272 96.72349368 -126.08394653 94.14114607 -126.10546875 91.55859375 C-126.11960815 90.67957397 -126.13374756 89.8005542 -126.14831543 88.89489746 C-126.30454576 63.79967807 -113.69907724 41.27933982 -96.8125 23.4375 C-72.43345925 -0.23187689 -32.62819134 -10.7270766 0 0 Z " fill="#FCC93C" transform="translate(423,3)"/>
<path d="M0 0 C0.61665527 0.19335938 1.23331055 0.38671875 1.86865234 0.5859375 C18.57038078 5.90553447 31.74379513 14.56951564 44 27 C44.74894531 27.73863281 45.49789063 28.47726563 46.26953125 29.23828125 C61.64621436 45.34285468 69.78937095 68.05734851 71 90 C71.061875 90.99773437 71.061875 90.99773437 71.125 92.015625 C71.95668809 119.2534098 61.41269148 143.60746685 43.59765625 163.7109375 C34.47118915 173.32553007 23.68421416 179.96918006 11.91186523 185.81860352 C5.02825224 189.28931223 -0.07152719 193.16154733 -4 200 C-4.144375 200.70125 -4.28875 201.4025 -4.4375 202.125 C-5 204 -5 204 -7.22265625 205.6484375 C-10.64160239 208.5432414 -12.65394866 211.72432363 -15 215.5 C-18.38944868 220.95489397 -21.3997899 225.33836457 -27.4375 228.125 C-30.58260495 227.97158025 -31.12841937 227.23119978 -33.3125 225.0625 C-34.21302486 224.04580288 -35.10960734 223.02558225 -36 222 C-34.00959715 229.6150958 -31.72603671 237.083407 -29.20703125 244.5390625 C-28.85613937 245.58653656 -28.5052475 246.63401062 -28.14372253 247.71322632 C-27.03620739 251.01812991 -25.92463625 254.3216489 -24.8125 257.625 C-23.69021715 260.96424159 -22.56882034 264.30377439 -21.44914246 267.64389038 C-20.75524262 269.71331124 -20.05973981 271.78219542 -19.36250305 273.85049438 C-19.0518541 274.77591034 -18.74120514 275.70132629 -18.42114258 276.65478516 C-18.14595291 277.47210114 -17.87076324 278.28941711 -17.5872345 279.13150024 C-17 281 -17 281 -17 282 C-25.87029465 281.62664943 -34.58380595 280.85113406 -43.375 279.625 C-53.1032523 278.28840694 -62.84530225 277.29615718 -72.625 276.4375 C-74.55738525 276.26565186 -74.55738525 276.26565186 -76.52880859 276.09033203 C-80.14816081 275.77468043 -83.76954774 275.48990898 -87.39178467 275.20953369 C-89.21280199 275.06324037 -91.03312886 274.90820513 -92.85284424 274.746521 C-114.90204601 272.79104164 -136.87901677 272.68945026 -158.99902344 272.73925781 C-164.0843602 272.75060562 -169.16948659 272.74389313 -174.25481606 272.7323904 C-206.13453801 272.67100068 -237.70330167 273.73176259 -269.421875 277.12231445 C-272.42877671 277.44323956 -275.43685 277.75072393 -278.4453125 278.05664062 C-291.34696925 279.38958544 -304.17447834 281.07043047 -317 283 C-315.76648515 276.98361977 -314.21073528 271.18576908 -312.26611328 265.36254883 C-311.99914642 264.55157242 -311.73217957 263.74059601 -311.4571228 262.90504456 C-310.58289647 260.2541222 -309.70204436 257.60546584 -308.8203125 254.95703125 C-308.2048564 253.10101057 -307.58953264 251.244946 -306.97433472 249.38883972 C-305.68806907 245.51214419 -304.39812836 241.6366937 -303.10595703 237.76196289 C-301.4536792 232.80543504 -299.81385258 227.84488497 -298.17714119 222.88319874 C-296.91190068 219.05408479 -295.63846607 215.22773321 -294.36272812 211.40210533 C-293.75463551 209.57429645 -293.14944883 207.74551805 -292.54727554 205.9157505 C-291.70429235 203.3573149 -290.84992125 200.80295385 -289.99267578 198.24926758 C-289.62622955 197.12464111 -289.62622955 197.12464111 -289.25238037 195.97729492 C-287.00014356 189.33956177 -283.99448252 183.5452131 -277.74447632 179.98626709 C-271.11719761 177.60465904 -263.76901527 177.89580229 -256.80078125 177.6953125 C-254.8501141 177.62387182 -252.89945627 177.55217597 -250.94880676 177.48025513 C-220.93430734 176.47524471 -190.86891693 176.77500761 -160.84224141 176.85594201 C-152.21993993 176.87879002 -143.5976342 176.88941694 -134.97530973 176.89935279 C-117.31683812 176.9199582 -99.65842569 176.95486468 -82 177 C-82.74113037 176.47035645 -83.48226074 175.94071289 -84.24584961 175.39501953 C-85.22561768 174.68974121 -86.20538574 173.98446289 -87.21484375 173.2578125 C-88.18284912 172.56316895 -89.15085449 171.86852539 -90.14819336 171.15283203 C-109.10017672 156.84595854 -121.57591851 133.17691134 -125.25 110 C-128.50967342 81.25560713 -123.08110898 55.97318727 -105.0625 32.75 C-80.33297199 3.08415147 -37.80696632 -12.42968756 0 0 Z " fill="#FA5732" transform="translate(423,3)"/>
<path d="M0 0 C0.00586624 1.01397858 0.01173248 2.02795715 0.01777649 3.07266235 C0.07503193 12.63644225 0.14780839 22.19999538 0.23571491 31.76354408 C0.28040977 36.68007386 0.31966791 41.59652094 0.34643555 46.51318359 C0.37247725 51.25956494 0.41288596 56.0056279 0.46318626 60.75181198 C0.47984908 62.56101898 0.491367 64.37028104 0.49761391 66.17955399 C0.50726138 68.71720877 0.53532791 71.25405011 0.56762695 73.79150391 C0.56619186 74.53669281 0.56475677 75.28188171 0.5632782 76.0496521 C0.64789797 80.76185183 1.52416336 83.9914583 4 88 C6.93760156 90.78695532 9.08700963 92.16090865 13 93 C12.97381592 92.3294458 12.94763184 91.6588916 12.9206543 90.96801758 C12.81642762 87.91641872 12.75159377 84.86519458 12.6875 81.8125 C12.64560547 80.75740234 12.60371094 79.70230469 12.56054688 78.61523438 C12.43928234 70.92706315 12.43928234 70.92706315 14.10009766 68.18115234 C15.45703125 66.82421875 15.45703125 66.82421875 18 65 C18.33 64.67 18.66 64.34 19 64 C21.2053064 63.89918262 23.41391622 63.87074987 25.62152481 63.86857224 C26.3252325 63.8665196 27.02894019 63.86446697 27.75397235 63.86235213 C30.14184582 63.85664088 32.52966235 63.85814442 34.9175415 63.85955811 C36.63488353 63.85697682 38.35222495 63.85396433 40.06956553 63.8505547 C44.81211239 63.84245349 49.55464414 63.8406934 54.2971971 63.83995724 C59.40298481 63.83811206 64.50876458 63.83056743 69.61454773 63.82382202 C80.79008659 63.81021567 91.96562187 63.8042103 103.14116764 63.79981136 C110.1141397 63.79705262 117.08711036 63.79281593 124.06008148 63.78830719 C143.35112547 63.77611113 162.64216833 63.76581273 181.93321609 63.7624321 C183.16891706 63.76221253 184.40461802 63.76199297 185.67776446 63.76176675 C186.91649238 63.76154847 188.15522029 63.76133019 189.43148541 63.7611053 C191.94179106 63.76066183 194.4520967 63.76021526 196.96240234 63.75976562 C198.20761165 63.7595442 199.45282096 63.75932277 200.73576388 63.75909463 C220.91760148 63.75514571 241.099403 63.73769033 261.28122666 63.7144061 C281.98198108 63.6907152 302.68271736 63.67823127 323.38348556 63.67706418 C335.01408206 63.6761461 346.64463156 63.67036057 358.27521515 63.65224457 C368.17843047 63.636874 378.08158427 63.63170504 387.98480925 63.63998267 C393.04054723 63.64390011 398.09616121 63.64290651 403.15188408 63.62892532 C407.77700231 63.61625158 412.40190254 63.61732611 417.02702019 63.62951604 C418.70338247 63.63148443 420.37975986 63.62834234 422.05610088 63.61967167 C424.32937147 63.60865467 426.60186242 63.61601285 428.87511063 63.6280632 C430.13941697 63.62746611 431.40372332 63.62686903 432.70634198 63.62625384 C436.29816996 64.03383468 438.14516087 64.82025532 441 67 C443.23413013 70.35119519 443.23847762 71.4177755 443.1953125 75.32421875 C443.18886719 76.35224609 443.18242187 77.38027344 443.17578125 78.43945312 C443.15902344 79.51130859 443.14226562 80.58316406 443.125 81.6875 C443.11597656 82.77095703 443.10695313 83.85441406 443.09765625 84.97070312 C443.0740734 87.6473571 443.04116126 90.32356797 443 93 C444.29561329 92.38181436 445.58797043 91.75680114 446.87890625 91.12890625 C447.59892822 90.78158447 448.3189502 90.4342627 449.06079102 90.07641602 C452.62078495 88.10033478 453.74766751 85.75699746 455 82 C455.11980729 79.36954309 455.18528816 76.76354107 455.20532227 74.13208008 C455.21522186 73.33184921 455.22512146 72.53161835 455.23532104 71.70713806 C455.26691603 69.06129925 455.29168558 66.41544248 455.31640625 63.76953125 C455.3369775 61.93535393 455.35797402 60.10118133 455.37937927 58.26701355 C455.43458223 53.4386884 455.48399937 48.61032058 455.53222656 43.78192139 C455.58245452 38.85522666 455.63813384 33.92859391 455.69335938 29.00195312 C455.80091924 19.33468836 455.90236907 9.66736978 456 0 C460.36698664 2.44377729 462.52756814 4.58494311 465 9 C465.91858318 12.58372908 466.12915966 15.9436078 466.14044189 19.63459778 C466.14615204 20.75740646 466.15186218 21.88021515 466.15774536 23.03704834 C466.15886322 24.25950256 466.15998108 25.48195679 466.16113281 26.74145508 C466.16609772 28.03631332 466.17106262 29.33117157 466.17617798 30.66526794 C466.18926363 34.21084999 466.19573932 37.75641314 466.20018864 41.30201554 C466.20312531 43.51976857 466.20723122 45.7375165 466.21169281 47.95526695 C466.22535709 54.90177314 466.23502921 61.84826759 466.2388947 68.79478627 C466.24337422 76.79947219 466.26092158 84.80398725 466.2898953 92.80862123 C466.31154434 99.00582692 466.32160068 105.20298464 466.32293582 111.40022773 C466.32398146 115.09712949 466.32983779 118.79387041 466.34775543 122.49073219 C466.36736827 126.61737998 466.36293435 130.74367201 466.35644531 134.87036133 C466.3656601 136.08674286 466.37487488 137.30312439 466.3843689 138.55636597 C466.31592156 152.46014983 466.31592156 152.46014983 461.54802322 157.55003071 C456.75115026 161.68254729 453.54238653 162.15482493 447.43261719 162.17700195 C446.65192368 162.18357315 445.87123016 162.19014435 445.06687927 162.19691467 C442.47687691 162.21666447 439.88693262 162.22831483 437.296875 162.23828125 C436.4125605 162.24235678 435.528246 162.2464323 434.61713409 162.25063133 C429.93535088 162.27150063 425.25359703 162.28579783 420.57177734 162.29516602 C415.7384534 162.30622393 410.90559068 162.3406141 406.07242966 162.38033772 C402.3543208 162.40650081 398.63632178 162.41485764 394.91812897 162.41844749 C393.13676086 162.42331535 391.35539773 162.43493503 389.57411957 162.45348549 C387.07736354 162.47786777 384.5817999 162.47691377 382.08496094 162.4699707 C380.98591682 162.48918579 380.98591682 162.48918579 379.8646698 162.50878906 C374.75072808 162.45709295 371.8732938 161.31013777 368 158 C364 152 364 152 364 121 C274.24 121 184.48 121 92 121 C92 131.23 92 141.46 92 152 C87.04919338 159.42620993 87.04919338 159.42620993 82 162 C79.19028428 162.37994303 76.77919587 162.54879581 73.97851562 162.51757812 C73.19723801 162.5245874 72.41596039 162.53159668 71.61100769 162.53881836 C69.04238776 162.55634568 66.47488008 162.54479495 63.90625 162.53125 C62.11315704 162.53394644 60.32006551 162.53783013 58.52697754 162.54284668 C54.77451617 162.54873458 51.02243644 162.54020174 47.27001953 162.52148438 C42.46809763 162.49869511 37.66707008 162.51182201 32.86518097 162.53577423 C29.16417747 162.55025145 25.46338484 162.54561743 21.76237488 162.53526306 C19.99220167 162.53260109 18.22200912 162.53584688 16.45185852 162.54518127 C13.97455377 162.55537884 11.49868276 162.53980245 9.02148438 162.51757812 C8.29507248 162.52567505 7.56866058 162.53377197 6.82023621 162.54211426 C1.75692703 162.45826666 -1.0543584 161.10092526 -5 158 C-5.5775 157.566875 -6.155 157.13375 -6.75 156.6875 C-11.25464367 150.60623105 -10.28924421 142.19308414 -10.2746582 135.04736328 C-10.27976913 133.75381927 -10.28488007 132.46027527 -10.29014587 131.12753296 C-10.30348524 127.59436901 -10.30412017 124.06131236 -10.30158257 120.52812815 C-10.30050932 117.57107595 -10.30540533 114.61404515 -10.310188 111.65699756 C-10.32126589 104.67642595 -10.32173042 97.69590817 -10.31567383 90.71533203 C-10.30963623 83.53132172 -10.32194346 76.34750736 -10.3432439 69.16353047 C-10.36089942 62.97984771 -10.366855 56.79622711 -10.36360615 50.6125201 C-10.36179928 46.92624826 -10.3643695 43.24011619 -10.37832069 39.55386734 C-10.39331047 35.43959216 -10.3838945 31.325712 -10.37231445 27.21142578 C-10.37995819 26.00178162 -10.38760193 24.79213745 -10.39547729 23.5458374 C-10.303107 8.66831909 -10.303107 8.66831909 -5.51268482 3.34823799 C-1.62581244 0 -1.62581244 0 0 0 Z " fill="#ADB2C2" transform="translate(28,350)"/>
<path d="M0 0 C5.75505215 0.0134262 11.51006637 0.01570047 17.26513207 0.01505369 C24.30298595 0.01437077 31.34081805 0.0213305 38.37866521 0.03050029 C40.34874684 0.0325912 42.31882988 0.0331798 44.28891253 0.03373921 C56.84593377 0.04123199 69.39587891 0.1151496 81.94560885 0.57437909 C82.87951386 0.60301698 83.81341887 0.63165488 84.77562404 0.66116059 C91.70367221 0.95852032 97.13731575 2.33448312 102.98784518 6.20059979 C103.81228122 6.70405926 104.63671725 7.20751873 105.4861362 7.72623456 C111.51178239 11.53244546 115.97010937 15.34246323 120.05034518 21.20059979 C120.70528964 22.07110219 120.70528964 22.07110219 121.3734653 22.95919049 C132.60935207 37.9443749 138.14493481 54.09318024 143.67778659 71.72000897 C144.836009 75.38558064 146.03025483 79.03939378 147.22026706 82.69474041 C154.05034518 103.74668049 154.05034518 103.74668049 154.05034518 105.20059979 C145.18005054 104.82724922 136.46653923 104.05173385 127.67534518 102.82559979 C117.94709288 101.48900673 108.20504293 100.49675697 98.42534518 99.63809979 C96.49295993 99.46625165 96.49295993 99.46625165 94.52153659 99.29093182 C90.90218437 98.97528022 87.28079745 98.69050877 83.65856051 98.41013348 C81.83754319 98.26384016 80.01721632 98.10880492 78.19750094 97.94712079 C56.14829917 95.99164143 34.17132841 95.89005005 12.05132174 95.9398576 C6.96598498 95.95120541 1.8808586 95.94449292 -3.20447087 95.93299019 C-35.08419283 95.87160047 -66.65295649 96.93236238 -98.37152982 100.32291424 C-101.37843153 100.64383935 -104.38650482 100.95132372 -107.39496732 101.25724041 C-120.29662406 102.59018523 -133.12413316 104.27103026 -145.94965482 106.20059979 C-144.71613996 100.18421956 -143.1603901 94.38636887 -141.2157681 88.56314862 C-140.94880124 87.75217221 -140.68183438 86.9411958 -140.40677762 86.10564435 C-139.53255129 83.45472199 -138.65169917 80.80606563 -137.76996732 78.15763104 C-137.15451121 76.30161036 -136.53918746 74.44554579 -135.92398953 72.58943951 C-134.63772389 68.71274398 -133.34778317 64.83729349 -132.05561185 60.96256268 C-130.40333402 56.00603483 -128.7635074 51.04548476 -127.12679601 46.08379853 C-125.8615555 42.25468458 -124.58812089 38.428333 -123.31238294 34.60270512 C-122.70429033 32.77489624 -122.09910365 30.94611784 -121.49693036 29.11635029 C-120.65394716 26.55791469 -119.79957606 24.00355364 -118.9423306 21.44986737 C-118.69803311 20.70011639 -118.45373563 19.95036541 -118.20203519 19.17789471 C-115.78119522 12.04325876 -112.75379082 6.99547679 -106.10186505 3.16249287 C-102.61906484 1.60591565 -99.40127201 1.37060411 -95.62299466 1.28141034 C-94.4110638 1.22605461 -94.4110638 1.22605461 -93.17464948 1.16958058 C-90.46195667 1.05441599 -87.74964422 0.97593444 -85.03559232 0.89981854 C-83.06139883 0.82893838 -81.08722741 0.75744153 -79.11307645 0.68538678 C-52.75575004 -0.20002617 -26.36891856 -0.06448356 0 0 Z " fill="#747A88" transform="translate(251.94965481758118,179.79940021038055)"/>
<path d="M0 0 C11.12775259 8.45039858 19.94640846 19.87585372 22 34 C23.09166971 49.4151292 19.97688235 63.30216402 9.8125 75.1875 C0.33619968 85.14856156 -11.06551048 91.24589727 -24.9453125 92.203125 C-40.73209692 92.43585401 -53.27274931 87.30266429 -64.77734375 76.41796875 C-74.46838265 65.87534471 -78.40955181 52.5768044 -78.28125 38.51171875 C-77.15393032 24.43587995 -70.15715021 12.49402417 -60 3 C-42.15236969 -10.27204356 -19.05311489 -12.22447852 0 0 Z " fill="#F4EAFA" transform="translate(423,56)"/>
<path d="M0 0 C1.47893486 -0.01029488 1.47893486 -0.01029488 2.98774719 -0.02079773 C6.24336187 -0.03908255 9.49849543 -0.03522571 12.75415039 -0.02954102 C15.01949724 -0.03410201 17.28484271 -0.03940733 19.55018616 -0.04542542 C24.29718651 -0.05435985 29.04401865 -0.05192951 33.79101562 -0.04199219 C39.87194057 -0.03050244 45.95228485 -0.05071291 52.03313351 -0.07990932 C56.71118351 -0.09826213 61.38909413 -0.09798065 66.0671711 -0.0922718 C68.30904518 -0.09211848 70.55092864 -0.09817221 72.79276848 -0.11056328 C75.92862164 -0.12545354 79.06339907 -0.11480987 82.19921875 -0.09765625 C83.1235672 -0.10732422 84.04791565 -0.11699219 85.00027466 -0.12695312 C91.79438159 -0.04919585 95.01417918 1.48047838 100.0144043 6.12109375 C101.77357466 9.61366318 101.59195767 13.10754909 101.56274414 16.93139648 C101.56561432 17.75732803 101.5684845 18.58325958 101.57144165 19.43421936 C101.57348003 21.17832119 101.56796594 22.92244601 101.55541992 24.66650391 C101.5393829 27.32889255 101.55526509 29.9897585 101.57446289 32.65209961 C101.57248002 34.34936857 101.56863543 36.04663659 101.56274414 37.74389648 C101.56881683 38.53674545 101.57488953 39.32959442 101.58114624 40.14646912 C101.52346883 44.70565618 101.20363908 47.77554381 98.16430664 51.40405273 C92.92874307 55.81466587 88.8437083 55.97957548 82.30688477 55.92163086 C81.33053574 55.92864014 80.35418671 55.93564941 79.34825134 55.94287109 C76.13039461 55.96043369 72.91342187 55.94883407 69.69555664 55.93530273 C67.45405916 55.93799814 65.21256282 55.94188096 62.97106934 55.94689941 C58.27706756 55.95279213 53.5833706 55.94423849 48.8894043 55.92553711 C42.87686144 55.90274807 36.86503283 55.91587231 30.85251617 55.93982697 C26.2250634 55.95429083 21.59777956 55.94967617 16.97032166 55.9393158 C14.75357478 55.93665016 12.5368125 55.93991251 10.32008362 55.94923401 C7.22021946 55.95940892 4.12150704 55.94388438 1.02172852 55.92163086 C0.10830185 55.92972778 -0.80512482 55.93782471 -1.74623108 55.94616699 C-7.27181839 55.87279254 -10.46144792 55.10110049 -14.83569336 51.40405273 C-18.75214727 46.83104567 -19.43114739 43.00332757 -19.36694336 37.15405273 C-19.37077026 36.37771484 -19.37459717 35.60137695 -19.37854004 34.80151367 C-19.3812499 33.16771134 -19.37395367 31.53386493 -19.35717773 29.90014648 C-19.33575207 27.41087377 -19.35700802 24.92448655 -19.38256836 22.43530273 C-19.37992492 20.84154642 -19.37479959 19.24779188 -19.36694336 17.65405273 C-19.37504028 16.91638672 -19.38313721 16.1787207 -19.39147949 15.41870117 C-19.29890938 10.2726313 -18.16722487 7.30939558 -14.83569336 3.40405273 C-10.19906723 -0.34997141 -5.69288274 -0.02766419 0 0 Z " fill="#F6F1F9" transform="translate(360.835693359375,347.595947265625)"/>
<path d="M0 0 C0.8452121 -0.00852997 1.69042419 -0.01705994 2.56124878 -0.02584839 C3.48029495 -0.02494202 4.39934113 -0.02403564 5.34623718 -0.02310181 C6.32068787 -0.02981903 7.29513855 -0.03653625 8.29911804 -0.04345703 C11.52280264 -0.06246563 14.74627932 -0.06636282 17.97001648 -0.06851196 C20.21197597 -0.07493835 22.45393462 -0.08166659 24.69589233 -0.08868408 C29.39755701 -0.10066434 34.09914816 -0.10436418 38.80082703 -0.10317993 C44.82000281 -0.10297681 50.83870611 -0.13026929 56.85776997 -0.16472435 C61.48952389 -0.18698377 66.12116399 -0.19101774 70.75296593 -0.18996048 C72.97169306 -0.19231825 75.19042324 -0.20115161 77.40909767 -0.21662521 C80.51608274 -0.23626333 83.6220475 -0.23045497 86.72904968 -0.21841431 C88.0985099 -0.23527283 88.0985099 -0.23527283 89.49563599 -0.25247192 C95.41635202 -0.19428942 98.86824905 0.84072863 103.73173523 4.26742554 C107.16149418 8.28977671 107.18541029 12.33844052 107.16532898 17.41976929 C107.17057083 18.19752213 107.17581268 18.97527496 107.18121338 19.77659607 C107.1876171 21.41634939 107.18631797 23.05614874 107.17778015 24.69589233 C107.16927284 27.19388296 107.19804649 29.68958256 107.2297821 32.18734741 C107.2313945 33.78565402 107.23081585 35.38396465 107.22782898 36.98226929 C107.23906296 37.72307236 107.25029694 38.46387543 107.26187134 39.22712708 C107.19283766 44.40895117 106.09658673 47.34532856 102.73173523 51.26742554 C97.50597967 55.68363378 93.40849757 55.84292489 86.87431335 55.78500366 C85.89796432 55.79201294 84.9216153 55.79902222 83.91567993 55.8062439 C80.69782319 55.8238065 77.48085046 55.81220688 74.26298523 55.79867554 C72.02148775 55.80137094 69.77999141 55.80525376 67.53849792 55.81027222 C62.84449615 55.81616493 58.15079919 55.80761129 53.45683289 55.78890991 C47.44429003 55.76612087 41.43246142 55.77924511 35.41994476 55.80319977 C30.79249199 55.81766363 26.16520815 55.81304897 21.53775024 55.8026886 C19.32100337 55.80002296 17.10424109 55.80328532 14.88751221 55.81260681 C11.78764805 55.82278172 8.68893563 55.80725719 5.5891571 55.78500366 C4.67573044 55.79310059 3.76230377 55.80119751 2.82119751 55.80953979 C-2.70268042 55.73618805 -5.88888944 54.95764389 -10.26826477 51.26742554 C-13.74294043 47.10103203 -13.73567957 42.89184089 -13.73701477 37.67758179 C-13.7446283 36.85543686 -13.75224182 36.03329193 -13.76008606 35.18623352 C-13.77086177 33.452342 -13.77375046 31.7183857 -13.76924133 29.98446655 C-13.76826897 27.34135016 -13.80991537 24.70113881 -13.85420227 22.05844116 C-13.85940991 20.36899406 -13.86209745 18.67953692 -13.86201477 16.99008179 C-13.87841003 16.20553116 -13.8948053 15.42098053 -13.91169739 14.61265564 C-13.86176526 10.619355 -13.49508091 8.0337841 -10.9811554 4.84725952 C-7.42056005 1.46129741 -4.91777433 0.02251663 0 0 Z " fill="#F6F0F9" transform="translate(63.26826477050781,347.7325744628906)"/>
<path d="M0 0 C4.36698664 2.44377729 6.52756814 4.58494311 9 9 C9.91858318 12.58372908 10.12915966 15.9436078 10.14044189 19.63459778 C10.14615204 20.75740646 10.15186218 21.88021515 10.15774536 23.03704834 C10.15942215 24.87072968 10.15942215 24.87072968 10.16113281 26.74145508 C10.16858017 28.68374245 10.16858017 28.68374245 10.17617798 30.66526794 C10.18926363 34.21084999 10.19573932 37.75641314 10.20018864 41.30201554 C10.20312531 43.51976857 10.20723122 45.7375165 10.21169281 47.95526695 C10.22535709 54.90177314 10.23502921 61.84826759 10.2388947 68.79478627 C10.24337422 76.79947219 10.26092158 84.80398725 10.2898953 92.80862123 C10.31154434 99.00582692 10.32160068 105.20298464 10.32293582 111.40022773 C10.32398146 115.09712949 10.32983779 118.79387041 10.34775543 122.49073219 C10.36736827 126.61737998 10.36293435 130.74367201 10.35644531 134.87036133 C10.3656601 136.08674286 10.37487488 137.30312439 10.3843689 138.55636597 C10.31592156 152.46014983 10.31592156 152.46014983 5.54802322 157.55003071 C0.75115026 161.68254729 -2.45761347 162.15482493 -8.56738281 162.17700195 C-9.34807632 162.18357315 -10.12876984 162.19014435 -10.93312073 162.19691467 C-13.52312309 162.21666447 -16.11306738 162.22831483 -18.703125 162.23828125 C-19.5874395 162.24235678 -20.471754 162.2464323 -21.38286591 162.25063133 C-26.06464912 162.27150063 -30.74640297 162.28579783 -35.42822266 162.29516602 C-40.2615466 162.30622393 -45.09440932 162.3406141 -49.92757034 162.38033772 C-53.6456792 162.40650081 -57.36367822 162.41485764 -61.08187103 162.41844749 C-62.86323914 162.42331535 -64.64460227 162.43493503 -66.42588043 162.45348549 C-68.92263646 162.47786777 -71.4182001 162.47691377 -73.91503906 162.4699707 C-75.01408318 162.48918579 -75.01408318 162.48918579 -76.1353302 162.50878906 C-81.24927192 162.45709295 -84.1267062 161.31013777 -88 158 C-91.85022315 153.45315359 -92.484938 150.30862478 -92.390625 144.4140625 C-92.38496521 143.71227875 -92.37930542 143.010495 -92.37347412 142.28744507 C-92.35124483 140.06590913 -92.30108056 137.84604077 -92.25 135.625 C-92.22991731 134.11070053 -92.21166964 132.59637554 -92.1953125 131.08203125 C-92.15142633 127.38748732 -92.08249577 123.69390667 -92 120 C-91.12383026 119.99635437 -90.24766052 119.99270874 -89.34494019 119.98895264 C-81.07611042 119.95104035 -72.80767376 119.89415091 -64.53912163 119.81609726 C-60.28843548 119.77663681 -56.03795604 119.74444146 -51.78710938 119.72900391 C-47.68252767 119.71382765 -43.57851431 119.67936559 -39.47418594 119.63169098 C-37.91060458 119.61688705 -36.34694208 119.60895955 -34.78329086 119.60811615 C-32.5878256 119.6057416 -30.39392482 119.57862684 -28.19873047 119.54589844 C-26.95074677 119.53701599 -25.70276306 119.52813354 -24.41696167 119.51898193 C-20.34757772 118.90090747 -18.15836565 117.60323795 -15 115 C-14.09166031 112.27498092 -13.81640015 110.37766029 -13.68359375 107.55078125 C-13.64169922 106.70322266 -13.59980469 105.85566406 -13.55664062 104.98242188 C-13.51732422 104.10134766 -13.47800781 103.22027344 -13.4375 102.3125 C-13.37272461 100.97348633 -13.37272461 100.97348633 -13.30664062 99.60742188 C-13.20064647 97.40509892 -13.09857949 95.20266527 -13 93 C-12.44497803 92.73517822 -11.88995605 92.47035645 -11.31811523 92.19750977 C-10.59309814 91.84487061 -9.86808105 91.49223145 -9.12109375 91.12890625 C-8.40107178 90.78158447 -7.6810498 90.4342627 -6.93920898 90.07641602 C-3.37921505 88.10033478 -2.25233249 85.75699746 -1 82 C-0.88019271 79.36954309 -0.81471184 76.76354107 -0.79467773 74.13208008 C-0.78477814 73.33184921 -0.77487854 72.53161835 -0.76467896 71.70713806 C-0.73308397 69.06129925 -0.70831442 66.41544248 -0.68359375 63.76953125 C-0.6630225 61.93535393 -0.64202598 60.10118133 -0.62062073 58.26701355 C-0.56541777 53.4386884 -0.51600063 48.61032058 -0.46777344 43.78192139 C-0.41754548 38.85522666 -0.36186616 33.92859391 -0.30664062 29.00195312 C-0.19908076 19.33468836 -0.09763093 9.66736978 0 0 Z " fill="#5F6572" transform="translate(484,350)"/>
<path d="M0 0 C0.00586624 1.01397858 0.01173248 2.02795715 0.01777649 3.07266235 C0.07503193 12.63644225 0.14780839 22.19999538 0.23571491 31.76354408 C0.28040977 36.68007386 0.31966791 41.59652094 0.34643555 46.51318359 C0.37247725 51.25956494 0.41288596 56.0056279 0.46318626 60.75181198 C0.47984908 62.56101898 0.491367 64.37028104 0.49761391 66.17955399 C0.50726138 68.71720877 0.53532791 71.25405011 0.56762695 73.79150391 C0.56619186 74.53669281 0.56475677 75.28188171 0.5632782 76.0496521 C0.64789797 80.76185183 1.52416336 83.9914583 4 88 C6.93760156 90.78695532 9.08700963 92.16090865 13 93 C13.03738281 94.31355469 13.07476562 95.62710938 13.11328125 96.98046875 C13.17895657 98.71617364 13.24540337 100.45184947 13.3125 102.1875 C13.33505859 103.05181641 13.35761719 103.91613281 13.38085938 104.80664062 C13.58260223 109.59344848 13.7737585 113.19790762 17 117 C20.55766663 119.35438599 23.77668169 119.27422002 27.97167969 119.31884766 C29.01131111 119.33391609 29.01131111 119.33391609 30.07194519 119.34928894 C32.35524695 119.38009764 34.63843158 119.39714934 36.921875 119.4140625 C38.50800584 119.43277604 40.09412675 119.4523496 41.68023682 119.4727478 C45.84928528 119.52405546 50.01836602 119.56368842 54.18756104 119.60089111 C58.44413223 119.64093936 62.70056933 119.69202795 66.95703125 119.7421875 C75.30459587 119.83893061 83.6522269 119.92334048 92 120 C92.09932276 124.44736742 92.17168003 128.89413713 92.21972656 133.34228516 C92.23976791 134.85346736 92.26700905 136.36457272 92.30175781 137.87548828 C92.35061109 140.05520643 92.37304224 142.23389431 92.390625 144.4140625 C92.4220459 146.37786865 92.4220459 146.37786865 92.45410156 148.38134766 C91.75580848 153.94591758 89.45209648 156.76239359 85.25134277 160.34265137 C81.39199528 162.30992604 78.21131075 162.56475882 73.97851562 162.51757812 C73.19723801 162.5245874 72.41596039 162.53159668 71.61100769 162.53881836 C69.04238776 162.55634568 66.47488008 162.54479495 63.90625 162.53125 C62.11315704 162.53394644 60.32006551 162.53783013 58.52697754 162.54284668 C54.77451617 162.54873458 51.02243644 162.54020174 47.27001953 162.52148438 C42.46809763 162.49869511 37.66707008 162.51182201 32.86518097 162.53577423 C29.16417747 162.55025145 25.46338484 162.54561743 21.76237488 162.53526306 C19.99220167 162.53260109 18.22200912 162.53584688 16.45185852 162.54518127 C13.97455377 162.55537884 11.49868276 162.53980245 9.02148438 162.51757812 C8.29507248 162.52567505 7.56866058 162.53377197 6.82023621 162.54211426 C1.75692703 162.45826666 -1.0543584 161.10092526 -5 158 C-5.5775 157.566875 -6.155 157.13375 -6.75 156.6875 C-11.25464367 150.60623105 -10.28924421 142.19308414 -10.2746582 135.04736328 C-10.27976913 133.75381927 -10.28488007 132.46027527 -10.29014587 131.12753296 C-10.30348524 127.59436901 -10.30412017 124.06131236 -10.30158257 120.52812815 C-10.30050932 117.57107595 -10.30540533 114.61404515 -10.310188 111.65699756 C-10.32126589 104.67642595 -10.32173042 97.69590817 -10.31567383 90.71533203 C-10.30963623 83.53132172 -10.32194346 76.34750736 -10.3432439 69.16353047 C-10.36089942 62.97984771 -10.366855 56.79622711 -10.36360615 50.6125201 C-10.36179928 46.92624826 -10.3643695 43.24011619 -10.37832069 39.55386734 C-10.39331047 35.43959216 -10.3838945 31.325712 -10.37231445 27.21142578 C-10.37995819 26.00178162 -10.38760193 24.79213745 -10.39547729 23.5458374 C-10.303107 8.66831909 -10.303107 8.66831909 -5.51268482 3.34823799 C-1.62581244 0 -1.62581244 0 0 0 Z " fill="#79808F" transform="translate(28,350)"/>
<path d="M0 0 C0.8086702 -0.00233643 1.61734039 -0.00467285 2.45051575 -0.00708008 C5.11383389 -0.00869043 7.77540527 0.02528542 10.43847656 0.06005859 C12.28980891 0.0668489 14.1411499 0.07157056 15.99249268 0.0743103 C19.86618237 0.08497761 23.73929343 0.11165388 27.61279297 0.15136719 C32.58871769 0.20237615 37.56431072 0.22740099 42.54046249 0.24230385 C47.27734688 0.25705898 52.01415259 0.28230287 56.75097656 0.31005859 C58.11418659 0.31742476 58.11418659 0.31742476 59.50493622 0.32493973 C62.06197291 0.34114209 64.61882854 0.36454233 67.17578125 0.390625 C67.94044205 0.39488495 68.70510284 0.3991449 69.49293518 0.40353394 C74.71397965 0.46837418 74.71397965 0.46837418 75.82910156 1.58349609 C76.16096458 3.67613552 76.48690177 5.7699242 76.77954102 7.8684082 C78.49671709 20.15264355 81.81797005 30.06750611 87.65722656 41.05224609 C88.82910156 43.58349609 88.82910156 43.58349609 88.82910156 46.58349609 C51.86910156 46.58349609 14.90910156 46.58349609 -23.17089844 46.58349609 C-18.09813187 23.75604653 -18.09813187 23.75604653 -16.23339844 16.27099609 C-16.00716797 15.29710938 -15.7809375 14.32322266 -15.54785156 13.31982422 C-15.31130859 12.37945312 -15.07476562 11.43908203 -14.83105469 10.47021484 C-14.63133057 9.64739014 -14.43160645 8.82456543 -14.22583008 7.97680664 C-11.25141032 1.2287768 -6.91894912 -0.15003052 0 0 Z " fill="#F5EFF9" transform="translate(222.1708984375,103.41650390625)"/>
<path d="M0 0 C3.32660088 1.88190564 6.06348478 3.80799614 8.76953125 6.50390625 C9.43017578 7.16197266 10.09082031 7.82003906 10.77148438 8.49804688 C11.78178711 9.51995117 11.78178711 9.51995117 12.8125 10.5625 C13.50537109 11.24763672 14.19824219 11.93277344 14.91210938 12.63867188 C15.56630859 13.29544922 16.22050781 13.95222656 16.89453125 14.62890625 C17.49112549 15.22775635 18.08771973 15.82660645 18.70239258 16.44360352 C20 18 20 18 20 20 C20.66 20 21.32 20 22 20 C22.07613173 27.86533399 22.12863448 35.73057276 22.16479492 43.59619141 C22.17817551 46.27149721 22.20033385 48.94632149 22.22631836 51.62158203 C22.26275084 55.46913751 22.27973828 59.31636586 22.29296875 63.1640625 C22.30845261 64.35802643 22.32393646 65.55199036 22.33988953 66.78213501 C22.34199548 77.19797744 22.34199548 77.19797744 19 82 C15.73006444 85.18388462 13.43208453 86.25143723 9 87 C8.9906543 86.32420898 8.98130859 85.64841797 8.97167969 84.95214844 C8.91792699 81.8840289 8.83429008 78.81742613 8.75 75.75 C8.73582031 74.68652344 8.72164063 73.62304688 8.70703125 72.52734375 C8.67480469 71.50253906 8.64257812 70.47773438 8.609375 69.421875 C8.58842773 68.47924805 8.56748047 67.53662109 8.54589844 66.56542969 C7.8501289 63.29568626 6.54362585 62.10084213 4 60 C1.08412321 58.5420616 -1.46886579 58.86820914 -4.72730446 58.8613348 C-5.43028723 58.85849258 -6.13326999 58.85565036 -6.85755527 58.85272202 C-9.2368864 58.8443335 -11.6161691 58.84310357 -13.99551392 58.84178162 C-15.70903336 58.83721909 -17.42255169 58.83221953 -19.1360687 58.82681805 C-23.86320069 58.81319228 -28.59032546 58.80580579 -33.31747198 58.79939139 C-38.40815424 58.79140687 -43.49882138 58.77770243 -48.5894928 58.76467896 C-57.41557976 58.74288847 -66.24166824 58.72475342 -75.0677681 58.70907402 C-87.82895869 58.68639877 -100.59013256 58.65825272 -113.35130899 58.62875474 C-134.05353455 58.58105003 -154.75576695 58.53779367 -175.45800781 58.49731445 C-195.57292207 58.45797416 -215.68783026 58.41655147 -235.80273438 58.37231445 C-237.04181209 58.36959018 -238.28088981 58.36686591 -239.55751534 58.36405908 C-245.77336372 58.35037985 -251.989212 58.33665953 -258.20506024 58.32291877 C-309.80336084 58.20890877 -361.40167458 58.10210945 -413 58 C-413 57.67 -413 57.34 -413 57 C-310.7 56.67 -208.4 56.34 -103 56 C-105.64 53.69 -108.28 51.38 -111 49 C-111.33 48.01 -111.66 47.02 -112 46 C-110.08439774 46.01332367 -110.08439774 46.01332367 -108.13009644 46.0269165 C-96.09420819 46.10800764 -84.05837538 46.16796814 -72.02227592 46.20724869 C-65.83439624 46.22812214 -59.64673712 46.25643601 -53.45898438 46.30175781 C-47.48730425 46.34522322 -41.51583627 46.36913893 -35.54401016 46.37950897 C-33.26582627 46.38689901 -30.98765397 46.40132997 -28.70956039 46.42292023 C-25.51819531 46.45196262 -22.32770647 46.45595554 -19.13623047 46.45410156 C-18.19467606 46.46848267 -17.25312164 46.48286377 -16.28303528 46.49768066 C-10.53849982 46.46157709 -7.41771579 45.74615786 -3 42 C-0.12736319 38.36735685 -0.64915689 33.73303494 -0.5859375 29.296875 C-0.56657135 28.45908508 -0.5472052 27.62129517 -0.5272522 26.75811768 C-0.46759276 24.08884787 -0.42112587 21.41953461 -0.375 18.75 C-0.33680764 16.93748146 -0.29775518 15.12498082 -0.2578125 13.3125 C-0.16190248 8.87514585 -0.0778212 4.43770675 0 0 Z " fill="#F9C447" transform="translate(462,356)"/>
<path d="M0 0 C0.99 0 1.98 0 3 0 C4.9225717 5.74274163 6.84305467 11.48617625 8.76171875 17.23022461 C9.41285679 19.17865225 10.06453625 21.12689905 10.71679688 23.07495117 C13.91818234 32.6373717 17.11161669 42.1942867 20.03417969 51.84643555 C22.0288698 58.35943156 24.15182403 64.83225926 26.25 71.3125 C26.71362493 72.74671788 27.17716704 74.18096253 27.640625 75.61523438 C28.75946606 79.07713082 29.87941341 82.53866811 31 86 C24.17099649 84.98332614 17.37646128 83.94786582 10.625 82.5 C3.1154642 80.95737377 -4.39247359 79.9172195 -12 79 C-11.67 78.34 -11.34 77.68 -11 77 C-11.60648809 74.48669133 -11.60648809 74.48669133 -12.64648438 71.58813477 C-13.03018188 70.45678604 -13.41387939 69.32543732 -13.8092041 68.1598053 C-14.44505432 66.31919777 -14.44505432 66.31919777 -15.09375 64.44140625 C-15.52446879 63.1738061 -15.95426653 61.90589264 -16.38317871 60.63768005 C-17.97886933 55.92556615 -19.58955959 51.21861678 -21.20269775 46.51245117 C-22.56474008 42.53805655 -23.91967863 38.56139198 -25.26448059 34.58112907 C-25.89947067 32.71136834 -26.54507959 30.84522485 -27.1907959 28.97914124 C-27.57449341 27.84464035 -27.95819092 26.71013947 -28.35351562 25.54125977 C-28.6962854 24.54135513 -29.03905518 23.5414505 -29.39221191 22.51124573 C-30 20 -30 20 -29 17 C-27.02 18.98 -25.04 20.96 -23 23 C-17.94444694 22.27777813 -15.65761112 21.05978572 -12.5 17 C-11.31346368 15.34742006 -10.14771744 13.67977188 -9 12 C-8.36449219 11.09378906 -7.72898437 10.18757812 -7.07421875 9.25390625 C-5.86672432 7.53141419 -4.66793322 5.80276734 -3.48046875 4.06640625 C-2 2 -2 2 0 0 Z " fill="#F5A734" transform="translate(416,207)"/>
<path d="M0 0 C23.1 0 46.2 0 70 0 C70 0.33 70 0.66 70 1 C63.73 1 57.46 1 51 1 C51.020625 3.866875 51.04125 6.73375 51.0625 9.6875 C51.09963019 20.48151783 50.58933264 31.2252951 50 42 C44.41330092 42.09914961 38.82711814 42.17160105 33.23974609 42.21972656 C31.34056675 42.23979629 29.44144885 42.26705851 27.54248047 42.30175781 C24.80681161 42.35048109 22.07196229 42.37301507 19.3359375 42.390625 C18.49195404 42.41127014 17.64797058 42.43191528 16.77841187 42.45318604 C11.3646505 42.45522961 8.21328434 41.71410929 4 38 C0 32 0 32 0 0 Z " fill="#717886" transform="translate(392,470)"/>
<path d="M0 0 C16.83 0 33.66 0 51 0 C51.0825 4.99125 51.165 9.9825 51.25 15.125 C51.28641602 16.68879395 51.32283203 18.25258789 51.36035156 19.86376953 C51.3703418 21.10755371 51.38033203 22.35133789 51.390625 23.6328125 C51.41157227 24.90012207 51.43251953 26.16743164 51.45410156 27.47314453 C50.7503032 32.93931183 48.40190464 35.75781908 44.34716797 39.35058594 C39.89731569 41.54337966 36.33605729 41.50774098 31.4453125 41.390625 C30.24539673 41.38458252 30.24539673 41.38458252 29.02124023 41.37841797 C26.05559085 41.35761429 23.09027048 41.30176911 20.125 41.25 C13.48375 41.1675 6.8425 41.085 0 41 C0 27.47 0 13.94 0 0 Z " fill="#5E6370" transform="translate(69,471)"/>
<path d="M0 0 C1.0209375 -0.020625 2.041875 -0.04125 3.09375 -0.0625 C10.11647308 -0.09860655 16.2704987 0.25088791 21.8984375 4.93359375 C22.34445312 5.51238281 22.79046875 6.09117187 23.25 6.6875 C23.71148437 7.26371094 24.17296875 7.83992188 24.6484375 8.43359375 C29.17507888 15.13705949 28.50268448 22.43881539 27.875 30.25 C26.42697475 35.63508849 23.55226018 39.20978088 18.875 42.25 C18.31296875 42.6315625 17.7509375 43.013125 17.171875 43.40625 C13.79377468 44.64718481 11.14215575 43.96119262 7.625 43.375 C6.36171875 43.17132813 5.0984375 42.96765625 3.796875 42.7578125 C2.83265625 42.59023438 1.8684375 42.42265625 0.875 42.25 C-2.27609443 34.67311098 -5.03440501 26.9740697 -7.69921875 19.21533203 C-8.38389367 17.22413511 -9.07456461 15.23508236 -9.765625 13.24609375 C-10.20348279 11.97668586 -10.64099598 10.70715903 -11.078125 9.4375 C-11.66835449 7.72626953 -11.66835449 7.72626953 -12.27050781 5.98046875 C-13.125 3.25 -13.125 3.25 -13.125 1.25 C-9.2012827 -0.71185865 -4.31447467 0.02130605 0 0 Z " fill="#646976" transform="translate(446.125,250.75)"/>
<path d="M0 0 C1.05316406 -0.00773438 2.10632813 -0.01546875 3.19140625 -0.0234375 C4.19558594 -0.02085937 5.19976562 -0.01828125 6.234375 -0.015625 C7.14928711 -0.01336914 8.06419922 -0.01111328 9.00683594 -0.00878906 C11.25 0.25 11.25 0.25 13.25 2.25 C11.56340224 7.77966655 9.83960196 13.29575962 8.08032227 18.80273438 C7.48726819 20.67741446 6.90449237 22.5553785 6.33227539 24.43652344 C5.50750748 27.14147655 4.64639558 29.83243455 3.77734375 32.5234375 C3.52911362 33.36619232 3.28088348 34.20894714 3.02513123 35.07723999 C2.26988406 37.34715429 1.57334449 39.25615522 0.25 41.25 C-3.3359375 42.75854492 -3.3359375 42.75854492 -6.75 43.25 C-7.81541016 43.54197266 -7.81541016 43.54197266 -8.90234375 43.83984375 C-12.95976371 44.63001963 -15.39434367 44.27463316 -19 42.1875 C-23.43985046 39.05605341 -26.02946755 35.41159736 -27.75 30.25 C-29.02214531 13.91201958 -29.02214531 13.91201958 -24.171875 7.7265625 C-16.95847894 0.23572813 -9.93245219 -0.0740307 0 0 Z " fill="#6D7482" transform="translate(65.75,250.75)"/>
<path d="M0 0 C1.81724579 -0.00845947 1.81724579 -0.00845947 3.67120361 -0.01708984 C5.02087462 -0.0132009 6.37054503 -0.00910454 7.72021484 -0.00482178 C9.13596782 -0.00753064 10.55171938 -0.01109098 11.96746826 -0.01544189 C15.81863594 -0.02458065 19.66969678 -0.02101556 23.52086639 -0.01468372 C27.54516393 -0.00963139 31.56945212 -0.01431303 35.59375 -0.01745605 C42.35271858 -0.02109795 49.11164351 -0.01629077 55.87060547 -0.0067749 C63.69251568 0.00411009 71.51432164 0.00058467 79.33622932 -0.01042771 C86.04368548 -0.01949426 92.75111018 -0.02078898 99.45857048 -0.01555037 C103.46826767 -0.01242718 107.4779158 -0.01203088 111.48760986 -0.01862335 C115.25669502 -0.02438702 119.02564534 -0.02041803 122.79471588 -0.00883484 C124.1806745 -0.00618298 125.5666444 -0.00696227 126.95259857 -0.01136017 C128.83916325 -0.01679612 130.72575262 -0.0087821 132.61230469 0 C133.66976898 0.00075405 134.72723328 0.0015081 135.81674194 0.002285 C138.30615234 0.25396729 138.30615234 0.25396729 140.30615234 2.25396729 C140.55615234 4.75396729 140.55615234 4.75396729 140.30615234 7.25396729 C137.63323801 9.92688162 136.34835328 9.50527049 132.61230469 9.50793457 C130.7950589 9.51639404 130.7950589 9.51639404 128.94110107 9.52502441 C127.59143007 9.52113547 126.24175965 9.51703911 124.89208984 9.51275635 C123.47633687 9.51546521 122.06058531 9.51902556 120.64483643 9.52337646 C116.79366875 9.53251522 112.9426079 9.52895013 109.09143829 9.52261829 C105.06714076 9.51756596 101.04285257 9.5222476 97.01855469 9.52539062 C90.2595861 9.52903252 83.50066118 9.52422534 76.74169922 9.51470947 C68.91978901 9.50382448 61.09798305 9.5073499 53.27607536 9.51836228 C46.56861921 9.52742883 39.8611945 9.52872355 33.15373421 9.52348495 C29.14403702 9.52036175 25.13438889 9.51996545 21.12469482 9.52655792 C17.35560967 9.53232159 13.58665934 9.5283526 9.81758881 9.51676941 C8.43163019 9.51411755 7.04566029 9.51489684 5.65970612 9.51929474 C3.77314144 9.52473069 1.88655206 9.51671667 0 9.50793457 C-1.05746429 9.50718052 -2.11492859 9.50642647 -3.20443726 9.50564957 C-5.69384766 9.25396729 -5.69384766 9.25396729 -7.69384766 7.25396729 C-7.94384766 4.75396729 -7.94384766 4.75396729 -7.69384766 2.25396729 C-5.02093332 -0.41894705 -3.73604859 0.00266408 0 0 Z " fill="#787A7D" transform="translate(189.69384765625,388.74603271484375)"/>
<path d="M0 0 C1.81724579 -0.00845947 1.81724579 -0.00845947 3.67120361 -0.01708984 C5.02087462 -0.0132009 6.37054503 -0.00910454 7.72021484 -0.00482178 C9.13596782 -0.00753064 10.55171938 -0.01109098 11.96746826 -0.01544189 C15.81863594 -0.02458065 19.66969678 -0.02101556 23.52086639 -0.01468372 C27.54516393 -0.00963139 31.56945212 -0.01431303 35.59375 -0.01745605 C42.35271858 -0.02109795 49.11164351 -0.01629077 55.87060547 -0.0067749 C63.69251568 0.00411009 71.51432164 0.00058467 79.33622932 -0.01042771 C86.04368548 -0.01949426 92.75111018 -0.02078898 99.45857048 -0.01555037 C103.46826767 -0.01242718 107.4779158 -0.01203088 111.48760986 -0.01862335 C115.25669502 -0.02438702 119.02564534 -0.02041803 122.79471588 -0.00883484 C124.1806745 -0.00618298 125.5666444 -0.00696227 126.95259857 -0.01136017 C128.83916325 -0.01679612 130.72575262 -0.0087821 132.61230469 0 C133.66976898 0.00075405 134.72723328 0.0015081 135.81674194 0.002285 C138.30615234 0.25396729 138.30615234 0.25396729 140.30615234 2.25396729 C140.55615234 4.75396729 140.55615234 4.75396729 140.30615234 7.25396729 C137.63323801 9.92688162 136.34835328 9.50527049 132.61230469 9.50793457 C130.7950589 9.51639404 130.7950589 9.51639404 128.94110107 9.52502441 C127.59143007 9.52113547 126.24175965 9.51703911 124.89208984 9.51275635 C123.47633687 9.51546521 122.06058531 9.51902556 120.64483643 9.52337646 C116.79366875 9.53251522 112.9426079 9.52895013 109.09143829 9.52261829 C105.06714076 9.51756596 101.04285257 9.5222476 97.01855469 9.52539062 C90.2595861 9.52903252 83.50066118 9.52422534 76.74169922 9.51470947 C68.91978901 9.50382448 61.09798305 9.5073499 53.27607536 9.51836228 C46.56861921 9.52742883 39.8611945 9.52872355 33.15373421 9.52348495 C29.14403702 9.52036175 25.13438889 9.51996545 21.12469482 9.52655792 C17.35560967 9.53232159 13.58665934 9.5283526 9.81758881 9.51676941 C8.43163019 9.51411755 7.04566029 9.51489684 5.65970612 9.51929474 C3.77314144 9.52473069 1.88655206 9.51671667 0 9.50793457 C-1.05746429 9.50718052 -2.11492859 9.50642647 -3.20443726 9.50564957 C-5.69384766 9.25396729 -5.69384766 9.25396729 -7.69384766 7.25396729 C-7.94384766 4.75396729 -7.94384766 4.75396729 -7.69384766 2.25396729 C-5.02093332 -0.41894705 -3.73604859 0.00266408 0 0 Z " fill="#737881" transform="translate(189.69384765625,376.74603271484375)"/>
<path d="M0 0 C1.81724579 -0.00845947 1.81724579 -0.00845947 3.67120361 -0.01708984 C5.02087462 -0.0132009 6.37054503 -0.00910454 7.72021484 -0.00482178 C9.13596782 -0.00753064 10.55171938 -0.01109098 11.96746826 -0.01544189 C15.81863594 -0.02458065 19.66969678 -0.02101556 23.52086639 -0.01468372 C27.54516393 -0.00963139 31.56945212 -0.01431303 35.59375 -0.01745605 C42.35271858 -0.02109795 49.11164351 -0.01629077 55.87060547 -0.0067749 C63.69251568 0.00411009 71.51432164 0.00058467 79.33622932 -0.01042771 C86.04368548 -0.01949426 92.75111018 -0.02078898 99.45857048 -0.01555037 C103.46826767 -0.01242718 107.4779158 -0.01203088 111.48760986 -0.01862335 C115.25669502 -0.02438702 119.02564534 -0.02041803 122.79471588 -0.00883484 C124.1806745 -0.00618298 125.5666444 -0.00696227 126.95259857 -0.01136017 C128.83916325 -0.01679612 130.72575262 -0.0087821 132.61230469 0 C133.66976898 0.00075405 134.72723328 0.0015081 135.81674194 0.002285 C138.30615234 0.25396729 138.30615234 0.25396729 140.30615234 2.25396729 C140.05615234 5.31646729 140.05615234 5.31646729 139.30615234 8.25396729 C136.64547535 9.58430578 134.63092663 9.38292321 131.65026855 9.38768005 C130.44718552 9.39194504 129.24410248 9.39621002 128.00456238 9.40060425 C126.66433713 9.40025471 125.3241119 9.39979316 123.98388672 9.39923096 C122.57798676 9.40222179 121.17208762 9.40562414 119.76618958 9.40940857 C115.94191114 9.41825942 112.11765507 9.42058711 108.29336739 9.42122436 C105.10477698 9.42217246 101.91619182 9.42584953 98.72760344 9.42939645 C91.20804804 9.43754477 83.68850462 9.4399803 76.16894531 9.43927002 C68.4015733 9.43866878 60.63427063 9.44922886 52.86691618 9.46501368 C46.20617453 9.47806931 39.54545561 9.48345477 32.88470125 9.48281461 C28.90294236 9.48255908 24.9212451 9.48544033 20.9394989 9.49599266 C17.19668944 9.50564074 13.45400097 9.50577562 9.71118736 9.49847603 C8.33490002 9.49742614 6.95860528 9.49981687 5.5823307 9.50583649 C3.70891423 9.51350205 1.83545691 9.50773703 -0.03796387 9.50120544 C-1.08805382 9.50175021 -2.13814377 9.50229498 -3.22005463 9.50285625 C-5.69384766 9.25396729 -5.69384766 9.25396729 -7.69384766 7.25396729 C-7.94384766 4.75396729 -7.94384766 4.75396729 -7.69384766 2.25396729 C-5.02093332 -0.41894705 -3.73604859 0.00266408 0 0 Z " fill="#7E7E7D" transform="translate(189.69384765625,364.74603271484375)"/>
<path d="M0 0 C1.21012253 -0.00426498 2.42024506 -0.00852997 3.66703796 -0.01292419 C5.02034 -0.01257463 6.37364201 -0.01211307 7.72694397 -0.0115509 C9.14254852 -0.01454082 10.55815224 -0.01794295 11.97375488 -0.02172852 C15.82908324 -0.0305898 19.68438942 -0.03290752 23.53972697 -0.0335443 C26.75312046 -0.03449164 29.96650874 -0.03816792 33.17990023 -0.0417164 C40.75840967 -0.04986905 48.33690722 -0.05229989 55.91542053 -0.05158997 C63.74468753 -0.05098895 71.57388567 -0.06154357 79.40313524 -0.07733363 C86.1148117 -0.09038963 92.8264656 -0.09577468 99.53815466 -0.09513456 C103.55122739 -0.094879 107.56423898 -0.09776198 111.57729912 -0.10831261 C115.35046372 -0.11796107 119.1235083 -0.1180953 122.89667702 -0.11079597 C124.2842514 -0.10974606 125.67183312 -0.11213697 127.05939484 -0.11815643 C128.94819166 -0.12582179 130.83702899 -0.12005707 132.72583008 -0.11352539 C133.78459319 -0.11407016 134.8433563 -0.11461493 135.93420315 -0.1151762 C138.42640686 0.13371277 138.42640686 0.13371277 140.42640686 2.13371277 C140.17640686 5.19621277 140.17640686 5.19621277 139.42640686 8.13371277 C136.77753441 9.458149 134.78274896 9.26567832 131.81521606 9.27415466 C130.62199234 9.27986481 129.42876862 9.28557495 128.1993866 9.29145813 C126.22553482 9.29313492 126.22553482 9.29313492 124.21180725 9.29484558 C122.81738147 9.29947288 121.42295696 9.30449742 120.02853394 9.30989075 C116.23518397 9.32302371 112.44185171 9.32946124 108.64848256 9.33390141 C106.28019359 9.33683019 103.91190949 9.34093458 101.54362297 9.34540558 C94.13846581 9.35908177 86.73331973 9.3687483 79.32815081 9.37260747 C70.77098467 9.37709117 62.21397803 9.39465294 53.65686041 9.42360806 C47.04790735 9.44519742 40.43899927 9.45531025 33.83001131 9.45664859 C29.88004108 9.45769843 25.93022076 9.46364428 21.98028755 9.4814682 C18.26616106 9.49790199 14.55229792 9.50012748 10.83814812 9.49132919 C8.82173125 9.49018715 6.80532329 9.50394001 4.78895569 9.51808167 C2.99489037 9.50972794 2.99489037 9.50972794 1.1645813 9.50120544 C-0.39810942 9.50340528 -0.39810942 9.50340528 -1.99236965 9.50564957 C-4.57359314 9.13371277 -4.57359314 9.13371277 -6.44785404 7.77480698 C-7.57359314 6.13371277 -7.57359314 6.13371277 -7.32359314 3.50871277 C-5.96892521 -0.78106902 -4.25432163 0.00673628 0 0 Z " fill="#868278" transform="translate(189.57359313964844,352.8662872314453)"/>
<path d="M0 0 C1.29461655 0.00222061 2.58923309 0.00444122 3.92308044 0.00672913 C4.99131546 0.00651009 4.99131546 0.00651009 6.08113098 0.00628662 C8.4457143 0.00698581 10.81021979 0.01477846 13.17478943 0.02259827 C14.81003781 0.02446243 16.44528675 0.02588634 18.08053589 0.02688599 C22.39273103 0.03071134 26.7048927 0.04054177 31.01707458 0.05158997 C35.41404263 0.06180371 39.81101607 0.06638353 44.20799255 0.07142639 C52.84147149 0.08216402 61.47492317 0.09924065 70.10838318 0.12025452 C70.10838318 2.76025452 70.10838318 5.40025452 70.10838318 8.12025452 C60.75530707 8.1665335 51.40227019 8.20210104 42.04910469 8.22387886 C37.70635569 8.23432952 33.36368485 8.24851199 29.02098083 8.27113342 C24.83239343 8.29281626 20.64388134 8.30481348 16.45524216 8.310009 C14.85479928 8.31371298 13.25436067 8.32094565 11.65394974 8.33171463 C9.41747786 8.34616915 7.18131981 8.34823503 4.94480896 8.3473053 C3.67017792 8.35174652 2.39554688 8.35618774 1.08229065 8.36076355 C-1.89161682 8.12025452 -1.89161682 8.12025452 -3.89161682 6.12025452 C-4.07911682 3.55775452 -4.07911682 3.55775452 -3.89161682 1.12025452 C-2.89161682 0.12025452 -2.89161682 0.12025452 0 0 Z " fill="#6F7583" transform="translate(185.89161682128906,389.87974548339844)"/>
<path d="M0 0 C1.27463104 0.00444122 2.54926208 0.00888245 3.86251831 0.01345825 C4.56506744 0.0131662 5.26761658 0.01287415 5.99145508 0.01257324 C8.31822984 0.0139688 10.64468607 0.02954031 12.97140503 0.04519653 C14.58280258 0.04892587 16.1942024 0.05177321 17.80560303 0.05377197 C22.05042767 0.06141472 26.29511583 0.08106864 30.53988647 0.10317993 C34.86990513 0.1236246 39.19994579 0.13277073 43.52999878 0.14285278 C52.02875939 0.16431399 60.52740899 0.19845758 69.02609253 0.24050903 C69.02609253 2.88050903 69.02609253 5.52050903 69.02609253 8.24050903 C59.52534928 8.26363387 50.02461565 8.28142484 40.52385044 8.29232121 C36.11272249 8.29754973 31.70161373 8.30464681 27.29049683 8.31594849 C23.03708138 8.32677847 18.78368444 8.3327861 14.53025627 8.33538628 C12.9038762 8.33724033 11.27749719 8.34086055 9.65112495 8.34623909 C7.3809906 8.35345101 5.11093368 8.35449991 2.84078979 8.35403442 C0.89886497 8.35736534 0.89886497 8.35736534 -1.08229065 8.36076355 C-3.97390747 8.24050903 -3.97390747 8.24050903 -4.97390747 7.24050903 C-5.16140747 4.80300903 -5.16140747 4.80300903 -4.97390747 2.24050903 C-2.97390747 0.24050903 -2.97390747 0.24050903 0 0 Z " fill="#6E7482" transform="translate(186.97390747070313,364.7594909667969)"/>
<path d="M0 0 C1.27685165 0.00222061 2.55370331 0.00444122 3.86924744 0.00672913 C4.57165054 0.0065831 5.27405365 0.00643707 5.9977417 0.00628662 C8.32985983 0.00698579 10.66189904 0.01477835 12.9940033 0.02259827 C14.60683142 0.02446243 16.21966012 0.02588634 17.83248901 0.02688599 C22.08550062 0.03071129 26.33847828 0.04054167 30.59147644 0.05158997 C34.92812135 0.06180383 39.26477171 0.06638355 43.60142517 0.07142639 C52.11641474 0.08216393 60.63137667 0.09924049 69.14634705 0.12025452 C69.14634705 2.76025452 69.14634705 5.40025452 69.14634705 8.12025452 C59.79327094 8.1665335 50.44023406 8.20210104 41.08706856 8.22387886 C36.74431956 8.23432952 32.40164871 8.24851199 28.0589447 8.27113342 C23.8703573 8.29281626 19.68184521 8.30481348 15.49320602 8.310009 C13.89276315 8.31371298 12.29232453 8.32094565 10.6919136 8.33171463 C8.45544172 8.34616915 6.21928367 8.34823503 3.98277283 8.3473053 C2.70814178 8.35174652 1.43351074 8.35618774 0.12025452 8.36076355 C-2.85365295 8.12025452 -2.85365295 8.12025452 -4.85365295 6.12025452 C-4.12849718 0.17397716 -4.12849718 0.17397716 0 0 Z " fill="#6E7583" transform="translate(186.85365295410156,352.87974548339844)"/>
<path d="M0 0 C2.5625 0.4375 2.5625 0.4375 4.0234375 2.3359375 C6.13172762 6.58462367 7.42314184 10.95592034 8.75 15.5 C9.02263672 16.39783203 9.29527344 17.29566406 9.57617188 18.22070312 C10.75517796 22.19504695 11.5625 25.24450094 11.5625 29.4375 C9.5825 29.7675 7.6025 30.0975 5.5625 30.4375 C5.2325 28.4575 4.9025 26.4775 4.5625 24.4375 C1.5925 24.7675 -1.3775 25.0975 -4.4375 25.4375 C-5.4275 27.9125 -5.4275 27.9125 -6.4375 30.4375 C-8.0875 30.1075 -9.7375 29.7775 -11.4375 29.4375 C-10.90784483 22.89200839 -9.65001839 17.19225921 -7.5 11 C-7.23509766 10.19884766 -6.97019531 9.39769531 -6.69726562 8.57226562 C-4.03262373 0.72380426 -4.03262373 0.72380426 0 0 Z " fill="#5D616D" transform="translate(249.4375,112.5625)"/>
<path d="M0 0 C1.890625 0.18359375 1.890625 0.18359375 4 1 C6.00993676 3.50184234 7.40049844 6.20087226 9 9 C11.97 4.545 11.97 4.545 15 0 C17.475 0.495 17.475 0.495 20 1 C20.33 1.99 20.66 2.98 21 4 C19.58822202 6.6426719 17.92682331 9.04579496 16.25 11.52734375 C14.8120221 13.84745933 14.8120221 13.84745933 15.14453125 16.06640625 C16.43584857 18.98513719 18.2704188 21.42440545 20.13671875 24 C21 26 21 26 20.14453125 28.25 C19.76683594 28.8275 19.38914062 29.405 19 30 C17.68 30 16.36 30 15 30 C12.59714988 27.22239344 10.92297379 24.14668438 9 21 C7.02 23.97 5.04 26.94 3 30 C1.35 29.67 -0.3 29.34 -2 29 C-1.64937855 25.26003782 -0.41275449 23.01340861 1.6875 20 C3.77323604 16.9607492 3.77323604 16.9607492 3.5625 13.375 C2.35238771 11.53562932 1.09223501 9.72912902 -0.1875 7.9375 C-2 5 -2 5 -1.8125 2.6875 C-1 1 -1 1 0 0 Z " fill="#5B606C" transform="translate(264,113)"/>
<path d="M0 0 C0.83265381 0.00523682 1.66530762 0.01047363 2.52319336 0.01586914 C3.42231445 0.0190918 4.32143555 0.02231445 5.24780273 0.02563477 C6.66609375 0.03820312 6.66609375 0.03820312 8.11303711 0.05102539 C9.06243164 0.05553711 10.01182617 0.06004883 10.98999023 0.06469727 C13.34356776 0.07652429 15.69702188 0.09300514 18.05053711 0.11352539 C18.05053711 2.09352539 18.05053711 4.07352539 18.05053711 6.11352539 C15.74053711 6.11352539 13.43053711 6.11352539 11.05053711 6.11352539 C11.05053711 13.70352539 11.05053711 21.29352539 11.05053711 29.11352539 C9.40053711 29.44352539 7.75053711 29.77352539 6.05053711 30.11352539 C5.05053711 29.11352539 5.05053711 29.11352539 4.93701172 26.88867188 C4.94224854 25.93033447 4.94748535 24.97199707 4.95288086 23.98461914 C4.95610352 22.95014648 4.95932617 21.91567383 4.96264648 20.84985352 C4.97102539 19.76124023 4.9794043 18.67262695 4.98803711 17.55102539 C4.99254883 16.45854492 4.99706055 15.36606445 5.00170898 14.24047852 C5.01353884 11.53144044 5.03002168 8.8225094 5.05053711 6.11352539 C2.74053711 6.11352539 0.43053711 6.11352539 -1.94946289 6.11352539 C-2.33165056 4.45737882 -2.66341391 2.78895515 -2.94946289 1.11352539 C-1.94946289 0.11352539 -1.94946289 0.11352539 0 0 Z " fill="#5B606C" transform="translate(220.949462890625,112.886474609375)"/>
<path d="M0 0 C0.02465881 3.96930989 0.04284023 7.93859034 0.05493164 11.90795898 C0.05997057 13.25920386 0.06680177 14.61044326 0.07543945 15.96166992 C0.08752419 17.90020434 0.09269828 19.838778 0.09765625 21.77734375 C0.10289307 22.94515381 0.10812988 24.11296387 0.11352539 25.31616211 C0 28 0 28 -1 29 C-3.5 29.125 -3.5 29.125 -6 29 C-7 28 -7 28 -7.11352539 25.31616211 C-7.10828857 24.14835205 -7.10305176 22.98054199 -7.09765625 21.77734375 C-7.09443359 20.51728516 -7.09121094 19.25722656 -7.08789062 17.95898438 C-7.07953403 16.61848891 -7.07106907 15.27799412 -7.0625 13.9375 C-7.0574866 12.59310058 -7.05292342 11.2486994 -7.04882812 9.90429688 C-7.03699488 6.60282059 -7.02050971 3.30143197 -7 0 C-4.3333581 -1.33332095 -2.83319697 -0.67102033 0 0 Z " fill="#666975" transform="translate(294,114)"/>
<path d="M0 0 C2.29633824 3.44450737 2.54016485 5.93812283 3 10 C1.35 10 -0.3 10 -2 10 C-1.85950482 8.52031676 -1.71245174 7.04125484 -1.5625 5.5625 C-1.48128906 4.73878906 -1.40007812 3.91507812 -1.31640625 3.06640625 C-1 1 -1 1 0 0 Z " fill="#E1E0E7" transform="translate(249,122)"/>
</svg>
