<?xml version="1.0" encoding="UTF-8"?>
<svg version="1.1" xmlns="http://www.w3.org/2000/svg" width="512" height="367">
<path d="M0 0 C0.33 0 0.66 0 1 0 C1.99 6.93 1.99 6.93 3 14 C5.10375 14.309375 7.2075 14.61875 9.375 14.9375 C15.75 15.875 15.75 15.875 18 17 C20.5317239 17.12221229 23.03778521 17.18564445 25.57080078 17.20532227 C26.35137848 17.21522186 27.13195618 17.22512146 27.93618774 17.23532104 C30.52253155 17.26696978 33.10889375 17.29170676 35.6953125 17.31640625 C37.48607874 17.33697287 39.27684008 17.35796926 41.06759644 17.37937927 C45.78578743 17.43463013 50.50402245 17.4840261 55.22229004 17.53222656 C60.03495207 17.5824196 64.84755 17.63811712 69.66015625 17.69335938 C79.10671816 17.80097783 88.55333438 17.90190608 98 18 C98 25.26 98 32.52 98 40 C96.35 40 94.7 40 93 40 C93 46.6 93 53.2 93 60 C95.97 60 98.94 60 102 60 C102 67.59 102 75.18 102 83 C99.03 83 96.06 83 93 83 C93 96.86 93 110.72 93 125 C90.69 125 88.38 125 86 125 C86 131.6 86 138.2 86 145 C88.31 145 90.62 145 93 145 C93 152.59 93 160.18 93 168 C90.69 168 88.38 168 86 168 C86 174.6 86 181.2 86 188 C88.31 188 90.62 188 93 188 C93 190.97 93 193.94 93 197 C93.75801407 196.96447021 94.51602814 196.92894043 95.29701233 196.89233398 C163.80359057 193.82825843 163.80359057 193.82825843 187.0625 210.90527344 C191.70130919 214.21320087 196.70701181 216.74580224 201.75 219.375 C203.48023232 220.322512 205.20817701 221.27421568 206.93359375 222.23046875 C213.00146633 225.56585195 219.13379077 228.77675657 225.27832031 231.96826172 C230.89817969 234.89817969 230.89817969 234.89817969 232 236 C232.08775605 238.14558827 232.10695219 240.29404421 232.09765625 242.44140625 C232.09443359 243.74658203 232.09121094 245.05175781 232.08789062 246.39648438 C232.07953401 247.7851569 232.07106905 249.17382877 232.0625 250.5625 C232.05748666 251.95507656 232.05292347 253.34765481 232.04882812 254.74023438 C232.03699434 258.1601987 232.0205088 261.58007844 232 265 C235.96 265 239.92 265 244 265 C244 274.9 244 284.8 244 295 C241.36 295 238.72 295 236 295 C236 304.24 236 313.48 236 323 C79.58 323 -76.84 323 -238 323 C-238 313.43 -238 303.86 -238 294 C-235.03 294 -232.06 294 -229 294 C-229 284.76 -229 275.52 -229 266 C-232.96 266 -236.92 266 -241 266 C-241 255.77 -241 245.54 -241 235 C-237.40158203 233.15535156 -237.40158203 233.15535156 -233.73046875 231.2734375 C-231.37035141 230.06234772 -229.01048198 228.85077617 -226.65063477 227.63916016 C-225.02849664 226.80662658 -223.40610707 225.97458274 -221.78344727 225.14306641 C-212.79449034 220.53632992 -203.82773332 215.91093745 -195 211 C-195.99 210.67 -196.98 210.34 -198 210 C-198 202.74 -198 195.48 -198 188 C-195.03 188 -192.06 188 -189 188 C-189 181.4 -189 174.8 -189 168 C-190.65 168 -192.3 168 -194 168 C-194 160.41 -194 152.82 -194 145 C-166.28 145 -138.56 145 -110 145 C-110 152.26 -110 159.52 -110 167 C-108.35 167 -106.7 167 -105 167 C-105 174.26 -105 181.52 -105 189 C-107.97 189 -110.94 189 -114 189 C-114 191.64 -114 194.28 -114 197 C-106.74 197 -99.48 197 -92 197 C-92 194.36 -92 191.72 -92 189 C-94.31 189 -96.62 189 -99 189 C-99 181.74 -99 174.48 -99 167 C-96.69 167 -94.38 167 -92 167 C-92 160.07 -92 153.14 -92 146 C-94.64 146 -97.28 146 -100 146 C-100 138.74 -100 131.48 -100 124 C-95.05 124 -90.1 124 -85 124 C-85 119.71 -85 115.42 -85 111 C-88.63 110.67 -92.26 110.34 -96 110 C-96 109.34 -96 108.68 -96 108 C-92.37 107.67 -88.74 107.34 -85 107 C-84.87625 105.741875 -84.7525 104.48375 -84.625 103.1875 C-84.30131941 99.89674737 -83.93395001 98.90092502 -82 96 C-81.67 98.31 -81.34 100.62 -81 103 C-54.6 103 -28.2 103 -1 103 C-1 110.26 -1 117.52 -1 125 C-5.95 125 -10.9 125 -16 125 C-16 131.6 -16 138.2 -16 145 C-13.36 145 -10.72 145 -8 145 C-8 145.99 -8 146.98 -8 148 C-6.906875 147.505 -5.81375 147.01 -4.6875 146.5 C-1 145 -1 145 2 145 C2 138.07 2 131.14 2 124 C4.31 124 6.62 124 9 124 C9 110.14 9 96.28 9 82 C11.97 82 14.94 82 18 82 C18 75.07 18 68.14 18 61 C15.03 61 12.06 61 9 61 C9 53.74 9 46.48 9 39 C10.65 39 12.3 39 14 39 C14 32.07 14 25.14 14 18 C10.37 18.66 6.74 19.32 3 20 C2.34 24.95 1.68 29.9 1 35 C-2.71626694 31.28373306 -2.3126247 25.00802001 -3 20 C-7.62 19.34 -12.24 18.68 -17 18 C-14.22957891 15.22957891 -12.23466195 15.60203894 -8.375 15.375 C-7.18648437 15.30023438 -5.99796875 15.22546875 -4.7734375 15.1484375 C-3.85820312 15.09945312 -2.94296875 15.05046875 -2 15 C-1.93941406 14.08476563 -1.87882813 13.16953125 -1.81640625 12.2265625 C-1.73261719 11.03804687 -1.64882813 9.84953125 -1.5625 8.625 C-1.44068359 6.84996094 -1.44068359 6.84996094 -1.31640625 5.0390625 C-1 2 -1 2 0 0 Z " fill="#FDB729" transform="translate(268,44)"/>
<path d="M0 0 C27.72 0 55.44 0 84 0 C84 7.26 84 14.52 84 22 C85.65 22 87.3 22 89 22 C89 29.26 89 36.52 89 44 C86.03 44 83.06 44 80 44 C80 46.64 80 49.28 80 52 C81.2473291 51.99419922 82.4946582 51.98839844 83.77978516 51.98242188 C99.64964252 51.93299669 115.50852704 52.19538662 131.375 52.5 C133.97265279 52.54836315 136.57030904 52.59654131 139.16796875 52.64453125 C145.44535375 52.76089558 151.7226928 52.87951537 158 53 C156.89344743 54.74015867 155.78672468 56.48020912 154.67993164 58.22021484 C154.06364395 59.18921722 153.44735626 60.1582196 152.81239319 61.15658569 C150.36938991 64.98934699 147.90739776 68.80953386 145.4375 72.625 C144.99470703 73.31078125 144.55191406 73.9965625 144.09570312 74.703125 C140.77574546 79.83440544 137.39094193 84.91358711 134 90 C133.505 133.56 133.505 133.56 133 178 C74.59 178 16.18 178 -44 178 C-44 168.43 -44 158.86 -44 149 C-41.03 149 -38.06 149 -35 149 C-35 139.76 -35 130.52 -35 121 C-38.96 121 -42.92 121 -47 121 C-47 110.77 -47 100.54 -47 90 C-43.40158203 88.15535156 -43.40158203 88.15535156 -39.73046875 86.2734375 C-37.37035141 85.06234772 -35.01048198 83.85077617 -32.65063477 82.63916016 C-31.02849664 81.80662658 -29.40610707 80.97458274 -27.78344727 80.14306641 C-18.79449034 75.53632992 -9.82773332 70.91093745 -1 66 C-1.99 65.67 -2.98 65.34 -4 65 C-4 57.74 -4 50.48 -4 43 C-1.03 43 1.94 43 5 43 C5 36.4 5 29.8 5 23 C3.35 23 1.7 23 0 23 C0 15.41 0 7.82 0 0 Z " fill="#1BB594" transform="translate(74,189)"/>
<path d="M0 0 C63.47600945 -2.57076008 63.47600945 -2.57076008 86.33203125 14.21044922 C90.97084044 17.51837665 95.97654306 20.05097802 101.01953125 22.68017578 C102.74976357 23.62768778 104.47770826 24.57939146 106.203125 25.53564453 C112.27099758 28.87102773 118.40332202 32.08193235 124.54785156 35.2734375 C130.16771094 38.20335547 130.16771094 38.20335547 131.26953125 39.30517578 C131.3572873 41.45076405 131.37648344 43.59921999 131.3671875 45.74658203 C131.36396484 47.05175781 131.36074219 48.35693359 131.35742188 49.70166016 C131.34906526 51.09033268 131.3406003 52.47900455 131.33203125 53.86767578 C131.32701791 55.26025234 131.32245472 56.6528306 131.31835938 58.04541016 C131.30652559 61.46537448 131.29004005 64.88525422 131.26953125 68.30517578 C135.22953125 68.30517578 139.18953125 68.30517578 143.26953125 68.30517578 C143.26953125 78.20517578 143.26953125 88.10517578 143.26953125 98.30517578 C140.62953125 98.30517578 137.98953125 98.30517578 135.26953125 98.30517578 C135.26953125 107.54517578 135.26953125 116.78517578 135.26953125 126.30517578 C74.54953125 126.30517578 13.82953125 126.30517578 -48.73046875 126.30517578 C-49.06046875 97.26517578 -49.39046875 68.22517578 -49.73046875 38.30517578 C-52.37046875 34.67517578 -55.01046875 31.04517578 -57.73046875 27.30517578 C-58.06046875 25.98517578 -58.39046875 24.66517578 -58.73046875 23.30517578 C-57.5078125 21.80517578 -57.5078125 21.80517578 -55.66796875 20.30517578 C-50.15298933 15.22122682 -47.07912796 8.35115342 -44.73046875 1.30517578 C-35.61253477 0.94887323 -26.49632516 0.70995798 -17.37319946 0.53578186 C-11.57882815 0.4166032 -5.79083119 0.23659834 0 0 Z " fill="#19B493" transform="translate(368.73046875,240.69482421875)"/>
<path d="M0 0 C2.24191284 -0.0025177 2.24191284 -0.0025177 5.80441284 0.6224823 C6.44056519 1.99920105 6.44056519 1.99920105 7.08956909 3.4037323 C13.53549567 17.03512965 21.01251401 25.72945631 35.59371948 31.01383972 C39.55780099 32.10522075 43.46372457 32.15193149 47.55441284 32.1224823 C48.86949829 32.11825256 48.86949829 32.11825256 50.21115112 32.11393738 C57.57162181 31.93138468 63.34726383 30.1930242 69.80441284 26.6224823 C71.80230701 25.61828167 73.80208002 24.61780299 75.80441284 23.6224823 C85.99457733 34.6858625 87.20319987 43.53893431 86.78097534 58.2396698 C86.76623186 59.97279124 86.75605515 61.70595758 86.75045776 63.43913269 C86.69849754 69.79260471 86.55888459 76.14511709 86.42941284 82.4974823 C86.22316284 96.7287323 86.01691284 110.9599823 85.80441284 125.6224823 C48.51441284 125.6224823 11.22441284 125.6224823 -27.19558716 125.6224823 C-27.56683716 111.6593573 -27.93808716 97.6962323 -28.32058716 83.3099823 C-28.48445923 78.96157166 -28.6483313 74.61316101 -28.81716919 70.13298035 C-29.3271245 46.68777491 -27.30788053 31.19558712 -11.42526245 13.24031067 C-8.54774559 9.86186122 -6.18574119 6.23020914 -3.83087158 2.474823 C-2.19558716 0.6224823 -2.19558716 0.6224823 0 0 Z " fill="#C2CBD6" transform="translate(234.19558715820313,241.3775177001953)"/>
<path d="M0 0 C59.07 0 118.14 0 179 0 C179 20.46 179 40.92 179 62 C120.92 62 62.84 62 3 62 C3 52.43 3 42.86 3 33 C5.97 33 8.94 33 12 33 C12 23.76 12 14.52 12 5 C8.04 5 4.08 5 0 5 C0 3.35 0 1.7 0 0 Z " fill="#19B493" transform="translate(27,305)"/>
<path d="M0 0 C63.47600945 -2.57076008 63.47600945 -2.57076008 86.33203125 14.21044922 C90.97084044 17.51837665 95.97654306 20.05097802 101.01953125 22.68017578 C102.74976357 23.62768778 104.47770826 24.57939146 106.203125 25.53564453 C112.27099758 28.87102773 118.40332202 32.08193235 124.54785156 35.2734375 C130.16771094 38.20335547 130.16771094 38.20335547 131.26953125 39.30517578 C131.26953125 47.55517578 131.26953125 55.80517578 131.26953125 64.30517578 C74.50953125 64.30517578 17.74953125 64.30517578 -40.73046875 64.30517578 C-43.70046875 55.72517578 -46.67046875 47.14517578 -49.73046875 38.30517578 C-52.37046875 34.67517578 -55.01046875 31.04517578 -57.73046875 27.30517578 C-58.06046875 25.98517578 -58.39046875 24.66517578 -58.73046875 23.30517578 C-57.5078125 21.80517578 -57.5078125 21.80517578 -55.66796875 20.30517578 C-50.15298933 15.22122682 -47.07912796 8.35115342 -44.73046875 1.30517578 C-35.61253477 0.94887323 -26.49632516 0.70995798 -17.37319946 0.53578186 C-11.57882815 0.4166032 -5.79083119 0.23659834 0 0 Z " fill="#19B493" transform="translate(368.73046875,240.69482421875)"/>
<path d="M0 0 C27.72 0 55.44 0 84 0 C84 7.26 84 14.52 84 22 C85.65 22 87.3 22 89 22 C89 29.26 89 36.52 89 44 C86.03 44 83.06 44 80 44 C80 46.97 80 49.94 80 53 C79.35758865 52.98810135 78.71517731 52.9762027 78.05329895 52.96394348 C71.2532956 52.84923668 64.45596853 52.81473868 57.6550293 52.82299805 C55.13080904 52.81610171 52.60655421 52.79000248 50.08276367 52.74291992 C32.98121634 52.4405083 20.63764644 54.13397885 6.37870789 64.00907898 C4 65 4 65 -4 65 C-4 57.74 -4 50.48 -4 43 C-1.03 43 1.94 43 5 43 C5 36.4 5 29.8 5 23 C3.35 23 1.7 23 0 23 C0 15.41 0 7.82 0 0 Z " fill="#FDBC2C" transform="translate(74,189)"/>
<path d="M0 0 C3.21790931 3.21790931 2.07531808 12.73387892 2.09765625 17.00390625 C2.09107779 19.52345616 2.07925373 22.0429972 2.0625 24.5625 C2.05798828 25.85736328 2.05347656 27.15222656 2.04882812 28.48632812 C2.03712601 31.657601 2.02073113 34.82877546 2 38 C0.02 38 -1.96 38 -4 38 C-4.98643638 32.87716234 -5.30967053 27.82251071 -5.5625 22.625 C-5.60568359 21.79355469 -5.64886719 20.96210938 -5.69335938 20.10546875 C-5.79861805 18.07046772 -5.89973072 16.03525297 -6 14 C-13.15830845 22.62647767 -20.27333107 31.27641402 -27.16967773 40.11425781 C-30.57338749 44.47210892 -34.0502874 48.76405485 -37.5625 53.03515625 C-45.11725809 62.22435719 -52.65875858 71.42847147 -59.94750977 80.83105469 C-62.30884994 83.87485052 -64.71337634 86.86520681 -67.19921875 89.80859375 C-67.71983887 90.43685059 -68.24045898 91.06510742 -68.77685547 91.71240234 C-69.77830748 92.91892116 -70.79375807 94.11399658 -71.82470703 95.29541016 C-73.37056439 97.09537602 -73.37056439 97.09537602 -75 100 C-74.42240539 102.67054941 -74.42240539 102.67054941 -73 105 C-72.29961127 109.60953515 -72.50554647 113.70543698 -74.6875 117.875 C-78.06003425 122.43247871 -80.37362976 123.63275511 -85.875 124.875 C-90.21786067 125.27650976 -93.17804618 124.13147425 -97 122 C-99.80040163 119.65371755 -101.80902457 117.47367834 -103 114 C-103.0777346 111.66796188 -103.08967728 109.33160941 -103 107 C-103.90579803 106.74374596 -103.90579803 106.74374596 -104.82989502 106.48231506 C-111.0931546 104.66346889 -117.1238719 102.49198367 -123.171875 100.05859375 C-124.09792542 99.69024918 -125.02397583 99.3219046 -125.97808838 98.94239807 C-128.90365541 97.77805646 -131.82694202 96.60812456 -134.75 95.4375 C-137.68768911 94.26420828 -140.62585796 93.09214481 -143.5647583 91.92189026 C-145.3841873 91.19708104 -147.20287237 90.47040069 -149.02069092 89.74156189 C-151.3423885 88.81497491 -153.66960998 87.90445277 -156 87 C-157.69817871 86.33109741 -157.69817871 86.33109741 -159.43066406 85.64868164 C-160.27854492 85.4346167 -161.12642578 85.22055176 -162 85 C-164.79311693 86.71767582 -164.79311693 86.71767582 -167 89 C-169.64458379 90.32229189 -171.67761301 90.09677194 -174.625 90.0625 C-176.12933594 90.04896484 -176.12933594 90.04896484 -177.6640625 90.03515625 C-178.43492187 90.02355469 -179.20578125 90.01195313 -180 90 C-180.26627197 90.72421143 -180.53254395 91.44842285 -180.80688477 92.19458008 C-182.0035955 95.00845424 -183.39689594 97.34443439 -185.08984375 99.88671875 C-186.01228882 101.28204834 -186.01228882 101.28204834 -186.95336914 102.70556641 C-187.60813232 103.68960449 -188.26289551 104.67364258 -188.9375 105.6875 C-190.29051764 107.75034839 -191.64206342 109.81416287 -192.9921875 111.87890625 C-194.92970117 114.83902236 -196.8675154 117.79884743 -198.81347656 120.75341797 C-200.41552984 123.19897307 -201.99238479 125.65885995 -203.5625 128.125 C-204.04517334 128.85162842 -204.52784668 129.57825684 -205.02514648 130.3269043 C-206.49933828 132.57908402 -206.49933828 132.57908402 -208 136 C-207.49181009 138.81202329 -207.49181009 138.81202329 -206 141 C-204.31731832 146.04804504 -204.43787581 150.32083946 -206.5625 155.1875 C-208.8488616 159.31899552 -211.50061586 161.54888017 -216 163 C-221.3246146 163.89601832 -225.43654781 162.86542347 -230 160 C-231.875 158.4375 -231.875 158.4375 -233 157 C-233 156.34 -233 155.68 -233 155 C-233.5593222 155.13780884 -234.11864441 155.27561768 -234.69491577 155.41760254 C-240.50133543 156.84774137 -246.30853763 158.27466792 -252.11621094 159.69970703 C-254.28536008 160.23240638 -256.45430634 160.76593252 -258.62304688 161.30029297 C-261.73515065 162.06694011 -264.84796499 162.83063909 -267.9609375 163.59375 C-268.934935 163.83436157 -269.9089325 164.07497314 -270.91244507 164.32287598 C-271.81322784 164.54310425 -272.71401062 164.76333252 -273.64208984 164.99023438 C-274.43706879 165.18564819 -275.23204773 165.38106201 -276.05111694 165.58239746 C-278 166 -278 166 -280 166 C-280 163.69 -280 161.38 -280 159 C-269.55656672 155.98567571 -259.06930487 153.22802997 -248.5 150.6875 C-246.8439978 150.28797119 -246.8439978 150.28797119 -245.15454102 149.88037109 C-237.25710589 148 -237.25710589 148 -235 148 C-234.9071875 146.453125 -234.9071875 146.453125 -234.8125 144.875 C-233.7940677 140.01786134 -232.47334741 138.47334741 -229 135 C-225.91787441 133.05306059 -224.23306317 132.94580895 -220.6875 133.5 C-217.71310449 133.52901849 -216.47719326 133.43149324 -214.24609375 131.4140625 C-212.3196372 128.69381301 -210.66221611 125.89037174 -209 123 C-207.72500916 120.90090429 -206.43668726 118.81027622 -205.14892578 116.71899414 C-204.21114376 115.18957476 -203.27988327 113.65613868 -202.35498047 112.11889648 C-199.92942848 108.09204571 -197.44552467 104.12932491 -194.8125 100.234375 C-194.29977539 99.47068604 -193.78705078 98.70699707 -193.25878906 97.92016602 C-192.27316278 96.4616624 -191.2755581 95.01116295 -190.26464844 93.57006836 C-187.59410457 89.72732191 -187.59410457 89.72732191 -187.1328125 85.1953125 C-187.79283657 83.52444077 -188.45779336 81.85551661 -189.125 80.1875 C-190.2188292 76.20283647 -190.28562056 72.90197116 -189 69 C-186.69280708 65.15968866 -184.13929708 62.60762511 -180.1875 60.5 C-174.28345617 59.57387548 -169.81782886 59.92276808 -164.625 63 C-161.42417653 66.65808397 -159.79995251 70.20028492 -159 75 C-159.495 76.485 -159.495 76.485 -160 78 C-159.30825684 78.11537109 -158.61651367 78.23074219 -157.90380859 78.34960938 C-154.62559287 79.08385914 -151.66845947 80.18296877 -148.5390625 81.40625 C-147.91985931 81.64735001 -147.30065613 81.88845001 -146.66268921 82.13685608 C-145.33631125 82.65383797 -144.01061478 83.17257114 -142.68554688 83.69290161 C-140.60811378 84.50661419 -138.52722294 85.31085614 -136.4453125 86.11303711 C-129.94213332 88.62637378 -123.48100931 91.1923128 -117.0859375 93.97265625 C-116.05001465 94.41222656 -115.0140918 94.85179688 -113.94677734 95.3046875 C-112.02612587 96.12450493 -110.11660132 96.97105831 -108.22119141 97.84765625 C-105.74270441 98.89181854 -103.6743994 99.70947701 -101 100 C-98.76940916 99.0452869 -97.29437813 97.95365021 -95.52758789 96.30004883 C-92.93843176 94.09655572 -90.29416242 94.11978772 -87 94 C-84.9957652 94.30684518 -82.99470305 94.6363094 -81 95 C-80.35675781 94.175 -79.71351563 93.35 -79.05078125 92.5 C-72.78485405 84.48393856 -66.41678859 76.55797006 -59.98828125 68.671875 C-57.64278467 65.79387546 -55.31398453 62.90344164 -53 60 C-50.14744972 56.42080007 -47.26580822 52.86657196 -44.37402344 49.3190918 C-39.15321455 42.91400273 -33.98747604 36.47282226 -28.90112305 29.96044922 C-25.29425294 25.35052444 -21.60476111 20.81605296 -17.875 16.3046875 C-16.19464872 14.23925572 -14.57992553 12.142774 -13 10 C-14.10794922 10.19916016 -14.10794922 10.19916016 -15.23828125 10.40234375 C-22.14813917 11.60520339 -29.0061957 12.47684141 -36 13 C-36.625 10.625 -36.625 10.625 -37 8 C-34.40903654 5.40903654 -32.4980773 5.26189026 -28.92578125 4.4921875 C-27.08790039 4.09580078 -27.08790039 4.09580078 -25.21289062 3.69140625 C-23.92576172 3.42199219 -22.63863281 3.15257812 -21.3125 2.875 C-20.04470703 2.59785156 -18.77691406 2.32070313 -17.47070312 2.03515625 C-11.53581993 0.77426531 -6.09905045 -0.27208012 0 0 Z " fill="#FE576B" transform="translate(280,0)"/>
<path d="M0 0 C21.36567134 -0.02332696 42.73134058 -0.04097817 64.09702206 -0.05181217 C74.01675275 -0.05697556 83.93647555 -0.06401907 93.85620117 -0.07543945 C102.49896979 -0.08538498 111.14173268 -0.09185311 119.78450686 -0.09408849 C124.36372463 -0.09539583 128.94292605 -0.09848308 133.5221386 -0.10573006 C137.82711706 -0.11248821 142.13207233 -0.11461738 146.43705559 -0.11310768 C148.02178066 -0.1133841 149.60650646 -0.11539044 151.19122696 -0.11920547 C153.34540411 -0.12413953 155.4994923 -0.12299937 157.65367126 -0.12025452 C158.86214187 -0.12117631 160.07061247 -0.1220981 161.31570339 -0.12304783 C164 0 164 0 165 1 C165.08767112 3.07262076 165.10695873 5.14820294 165.09765625 7.22265625 C165.09443359 8.48271484 165.09121094 9.74277344 165.08789062 11.04101562 C165.07953403 12.38151109 165.07106907 13.72200588 165.0625 15.0625 C165.0574866 16.40689942 165.05292342 17.7513006 165.04882812 19.09570312 C165.03699488 22.39717941 165.02050971 25.69856803 165 29 C164.67 27.68 164.34 26.36 164 25 C112.52 25 61.04 25 8 25 C0 2 0 2 0 0 Z " fill="#19B493" transform="translate(339,338)"/>
<path d="M0 0 C6.59436651 5.41767658 12.22726874 12.00135451 13.35693359 20.69091797 C14.39725646 32.43320201 12.78660831 41.25715924 5.49609375 50.8359375 C0.06713301 56.87098174 -8.11370447 61.22827078 -16.19921875 62.0703125 C-27.76035979 62.67657455 -36.3046659 60.29326687 -45.40625 52.609375 C-53.02474717 44.70975247 -55.53736293 36.45858334 -55.36499023 25.62426758 C-54.90454271 15.67930755 -51.34420382 9.15050557 -44.5390625 1.99609375 C-31.12130251 -9.53603429 -14.23971545 -10.21435419 0 0 Z " fill="#FBE277" transform="translate(302.8984375,203.2734375)"/>
<path d="M0 0 C13.08427204 -0.1482691 26.16719444 -0.23013905 39.25235367 -0.23059464 C45.33060002 -0.2328211 51.4070543 -0.25668198 57.48486328 -0.33251953 C63.3665233 -0.4050714 69.2456923 -0.4174851 75.12770844 -0.39070892 C77.35531166 -0.39065374 79.58302704 -0.41114355 81.81021881 -0.4539566 C97.74772898 -0.74137445 107.98518057 2.25845533 120.98075676 11.58106804 C123.77888029 13.54732293 126.68595239 15.22382215 129.66015625 16.91015625 C130.57474609 17.44447266 131.48933594 17.97878906 132.43164062 18.52929688 C134.25041341 19.58923499 136.07083542 20.64634639 137.89257812 21.70117188 C138.78525391 22.22388672 139.67792969 22.74660156 140.59765625 23.28515625 C141.37633057 23.73769775 142.15500488 24.19023926 142.95727539 24.65649414 C144.9187635 25.94657052 146.37358856 27.32179627 148 29 C127.89470702 29.34087272 107.789305 29.62996687 87.68240166 29.85746098 C78.34632589 29.96429832 69.01104827 30.08806049 59.67578125 30.25170898 C51.53894797 30.39430579 43.40240845 30.50510487 35.26463902 30.5777635 C30.95556364 30.61734711 26.64801795 30.67281671 22.33974838 30.76637459 C18.28317774 30.8539641 14.22834504 30.89897295 10.17086983 30.91156769 C8.68317326 30.92364975 7.19550829 30.95119578 5.70842171 30.99547386 C-5.56517175 31.3182165 -5.56517175 31.3182165 -9.24953842 27.93328667 C-10.77667584 25.67168905 -11.97247756 23.52348267 -13 21 C-11.64919616 18.19766661 -10.33367655 16.12876852 -8.1875 13.875 C-5.65643079 11.02795432 -3.95761783 8.18400427 -2.30078125 4.7578125 C-1.86548096 3.86465332 -1.43018066 2.97149414 -0.98168945 2.05126953 C-0.49575317 1.03589111 -0.49575317 1.03589111 0 0 Z " fill="#46EAC6" transform="translate(323,245)"/>
<path d="M0 0 C1.17188873 -0.00087616 2.34377747 -0.00175232 3.55117798 -0.00265503 C7.39337717 0.00149802 11.23379245 0.04804712 15.07568359 0.09521484 C17.75185092 0.10641513 20.42792168 0.11524671 23.10409546 0.12094116 C29.40810757 0.13951429 35.71148778 0.18864706 42.01522291 0.2490381 C49.19781614 0.31634006 56.38044119 0.34915134 63.56327176 0.37921071 C78.3255432 0.44175443 93.08732108 0.54714064 107.84912109 0.68115234 C103.25567438 3.14144909 98.37582848 3.98282688 93.31201172 5.00537109 C88.15107318 6.13189361 84.36294523 7.94654152 79.84912109 10.68115234 C79.18912109 10.68115234 78.52912109 10.68115234 77.84912109 10.68115234 C77.43102909 13.51267208 77.43102909 13.51267208 77.84912109 16.68115234 C82.78614591 22.46938834 92.51374626 24.88813885 99.84912109 25.68115234 C98.73707104 27.65346146 98.73707104 27.65346146 96.84912109 29.68115234 C94.07490253 30.15772629 94.07490253 30.15772629 90.641922 30.12420654 C89.34201828 30.12129105 88.04211456 30.11837555 86.70281982 30.1153717 C85.25914915 30.09177154 83.81548473 30.06778705 82.37182617 30.04345703 C80.8541731 30.03246857 79.33650633 30.02324936 77.8188324 30.01567078 C73.6948654 29.99004701 69.57152757 29.93960805 65.44785905 29.884799 C61.13981023 29.8317308 56.83160377 29.80136374 52.52336121 29.76861572 C44.36341399 29.70312636 36.2038158 29.61714381 28.04414433 29.52384591 C18.7553884 29.41863233 9.46647438 29.33619179 0.17747653 29.25568914 C-18.93226265 29.08956396 -38.04161447 28.89475858 -57.15087891 28.68115234 C-54.21824126 25.58982508 -50.86518515 23.57714337 -47.20947266 21.44287109 C-46.5271608 21.03962112 -45.84484894 20.63637115 -45.14186096 20.22090149 C-42.95985125 18.93254912 -40.77423529 17.65046534 -38.58837891 16.36865234 C-37.14476953 15.5181651 -35.70140756 14.66725774 -34.25830078 13.81591797 C-32.20168842 12.60269795 -30.14479703 11.39000109 -28.08580017 10.18083191 C-27.45557449 9.81057388 -26.82534882 9.44031586 -26.17602539 9.05883789 C-25.56513754 8.70744059 -24.95424969 8.35604328 -24.32485008 7.99399757 C-22.12051149 6.69818879 -22.12051149 6.69818879 -19.99747753 5.16040325 C-13.25484493 0.58999887 -8.0317484 -0.1595179 0 0 Z " fill="#46EAC6" transform="translate(113.15087890625,245.31884765625)"/>
<path d="M0 0 C1.69946788 2.54920182 2.56531331 4.32099564 3.5078125 7.16015625 C3.77207031 7.95357422 4.03632813 8.74699219 4.30859375 9.56445312 C4.57800781 10.38880859 4.84742188 11.21316406 5.125 12.0625 C5.40214844 12.89072266 5.67929687 13.71894531 5.96484375 14.57226562 C8 20.73287408 8 20.73287408 8 23 C64.76 23 121.52 23 180 23 C180 24.32 180 25.64 180 27 C123.9 27 67.8 27 10 27 C12.31 34.26 14.62 41.52 17 49 C17 49.99 17 50.98 17 52 C74.75 52 132.5 52 192 52 C192 53.65 192 55.3 192 57 C134.91 56.67 77.82 56.34 19 56 C21.31 62.6 23.62 69.2 26 76 C26.33 77.65 26.66 79.3 27 81 C78.48 81 129.96 81 183 81 C183 82.32 183 83.64 183 85 C122.61 85 62.22 85 0 85 C0 56.95 0 28.9 0 0 Z " fill="#00AD88" transform="translate(320,282)"/>
<path d="M0 0 C13.49871532 -0.02708657 26.99263309 0.26043428 40.48828125 0.51953125 C43.08593404 0.5678944 45.68359029 0.61607256 48.28125 0.6640625 C54.558635 0.78042683 60.83597405 0.89904662 67.11328125 1.01953125 C66.01608995 2.74880053 64.91821783 4.47763786 63.82006836 6.20629883 C62.9031144 7.65048943 62.9031144 7.65048943 61.96763611 9.12385559 C59.25810985 13.35492777 56.47318093 17.53374616 53.67578125 21.70703125 C53.13501953 22.51591797 52.59425781 23.32480469 52.03710938 24.15820312 C50.73025079 26.11270845 49.42230793 28.06647765 48.11328125 30.01953125 C40.06363457 29.31922633 33.16845021 27.8487189 26.42578125 23.14453125 C25.11328125 21.01953125 25.11328125 21.01953125 25.20703125 18.0859375 C26.11328125 15.01953125 26.11328125 15.01953125 28.34375 13.2265625 C29.31957031 12.76636719 30.29539063 12.30617187 31.30078125 11.83203125 C32.24308594 11.36410156 33.18539062 10.89617187 34.15625 10.4140625 C37.78531264 8.95161606 41.53860817 8.23203471 45.3605957 7.43237305 C46.62426468 7.16651901 47.88793365 6.90066498 49.18989563 6.62675476 C50.15461288 6.426371 51.11933014 6.22598724 52.11328125 6.01953125 C37.49083689 5.61830493 22.86914126 5.32067664 8.24226856 5.13872433 C1.44679783 5.05190286 -5.34517553 4.93362417 -12.13842773 4.73706055 C-55.63792434 3.31067692 -55.63792434 3.31067692 -92.88671875 23.01953125 C-100.31171875 27.47453125 -100.31171875 27.47453125 -107.88671875 32.01953125 C-57.39671875 32.34953125 -6.90671875 32.67953125 45.11328125 33.01953125 C43.11328125 38.01953125 43.11328125 38.01953125 41.11328125 40.01953125 C38.07167625 40.26562691 38.07167625 40.26562691 34.07723999 40.26004028 C33.34457527 40.26174913 32.61191055 40.26345798 31.85704386 40.26521862 C29.38946129 40.26852628 26.92214758 40.25748903 24.45458984 40.24658203 C22.69077053 40.24601819 20.92695075 40.24633394 19.16313171 40.24746704 C14.36377562 40.24804262 9.56451879 40.23625519 4.76518583 40.22231913 C-0.24633059 40.20984588 -5.25784911 40.20864396 -10.26937866 40.20626831 C-19.76435492 40.2000435 -29.25928532 40.18361918 -38.75424135 40.16356933 C-49.5618145 40.14124143 -60.3693898 40.13022474 -71.17698026 40.12017846 C-93.41358539 40.09925379 -115.65014918 40.06405842 -137.88671875 40.01953125 C-137.88671875 39.35953125 -137.88671875 38.69953125 -137.88671875 38.01953125 C-133.19578639 35.60130143 -128.5041819 33.18438184 -123.81201172 30.76855469 C-122.22362065 29.95053488 -120.63539804 29.13218787 -119.04736328 28.31347656 C-104.54147742 20.83545814 -104.54147742 20.83545814 -98.8984375 18.02734375 C-98.26163559 17.71004807 -97.62483368 17.39275238 -96.96873474 17.06584167 C-95.67765442 16.42722201 -94.3833683 15.79504552 -93.08607483 15.16914368 C-89.31900236 13.32974081 -85.74125099 11.3407766 -82.18530273 9.11791992 C-67.65260081 0.29731745 -55.19824715 -0.49503097 -38.44921875 -0.16796875 C-36.08138971 -0.16098209 -33.71354045 -0.15901161 -31.34570312 -0.16210938 C-26.69806227 -0.15973209 -22.0524673 -0.12630227 -17.40527344 -0.06201172 C-11.60259123 0.01819553 -5.80304203 0.0216224 0 0 Z " fill="#03DBAA" transform="translate(164.88671875,240.98046875)"/>
<path d="M0 0 C63.47600945 -2.57076008 63.47600945 -2.57076008 86.33203125 14.21044922 C90.97089795 17.51841766 95.97668166 20.05061158 101.01953125 22.68017578 C102.74970618 23.62910043 104.47764879 24.58210882 106.203125 25.53955078 C109.71449732 27.47036177 113.24803754 29.34971522 116.8046875 31.19580078 C118.1364502 31.88730225 118.1364502 31.88730225 119.49511719 32.59277344 C121.17672794 33.46214525 122.86085132 34.32668002 124.54785156 35.18554688 C130.16059181 38.0872969 130.16059181 38.0872969 131.26953125 40.30517578 C107.85229795 40.3985294 84.43509245 40.46911094 61.01771069 40.51242447 C50.14512609 40.53306834 39.27265697 40.56122377 28.40014648 40.60693359 C18.92600645 40.64674552 9.45195002 40.67259531 -0.02227134 40.68152976 C-5.04095696 40.68675409 -10.05940336 40.69907092 -15.07801247 40.72809601 C-19.79839303 40.755176 -24.51843502 40.76363586 -29.23888588 40.75760651 C-30.97436867 40.75871008 -32.70986238 40.76670806 -34.44527817 40.78199768 C-36.80934229 40.80181027 -39.17211706 40.79714792 -41.53620911 40.78619385 C-42.22784128 40.79784521 -42.91947344 40.80949658 -43.63206416 40.82150102 C-46.78723254 40.78180276 -48.34332959 40.6710526 -50.68010998 38.46261215 C-51.73046875 36.30517578 -51.73046875 36.30517578 -51.73046875 33.30517578 C-1.24046875 32.97517578 49.24953125 32.64517578 101.26953125 32.30517578 C95.98953125 29.33517578 90.70953125 26.36517578 85.26953125 23.30517578 C80.81935985 20.67724039 76.38051699 18.03923195 71.95703125 15.36767578 C70.86197266 14.70960938 69.76691406 14.05154297 68.63867188 13.37353516 C60.7390253 8.61817181 60.7390253 8.61817181 57.26953125 6.30517578 C55.26214101 5.99585463 55.26214101 5.99585463 53.03645325 6.02670288 C52.17408554 6.0155394 51.31171783 6.00437592 50.42321777 5.99287415 C49.00873352 5.98963387 49.00873352 5.98963387 47.56567383 5.98632812 C46.57037155 5.9762825 45.57506927 5.96623688 44.54960632 5.95588684 C41.25443101 5.92495583 37.95933731 5.90799207 34.6640625 5.89111328 C32.38147779 5.87240962 30.09890005 5.85283682 27.81632996 5.83242798 C21.80433251 5.78101609 15.79231262 5.74143882 9.7802124 5.70428467 C3.64703784 5.66430177 -2.48604265 5.6131834 -8.61914062 5.56298828 C-20.656184 5.46612176 -32.69328039 5.38175132 -44.73046875 5.30517578 C-44.73046875 3.98517578 -44.73046875 2.66517578 -44.73046875 1.30517578 C-35.61253477 0.94887323 -26.49632516 0.70995798 -17.37319946 0.53578186 C-11.57882815 0.4166032 -5.79083119 0.23659834 0 0 Z " fill="#02DAAA" transform="translate(368.73046875,240.69482421875)"/>
<path d="M0 0 C2.05078125 0.03255208 4.1015625 0.06510417 6.15234375 0.09765625 C6.78849609 1.474375 6.78849609 1.474375 7.4375 2.87890625 C13.88342658 16.5103036 21.36044492 25.20463026 35.94165039 30.48901367 C39.9057319 31.5803947 43.81165548 31.62710544 47.90234375 31.59765625 C49.2174292 31.59342651 49.2174292 31.59342651 50.55908203 31.58911133 C57.91955272 31.40655863 63.69519474 29.66819815 70.15234375 26.09765625 C72.15045963 25.09389686 74.15001412 24.09298337 76.15234375 23.09765625 C77.65806121 25.21880584 79.15703054 27.3441924 80.65234375 29.47265625 C81.29623047 30.37757813 81.29623047 30.37757813 81.953125 31.30078125 C85.15234375 35.87109375 85.15234375 35.87109375 85.15234375 38.09765625 C48.19234375 38.09765625 11.23234375 38.09765625 -26.84765625 38.09765625 C-22.34709636 30.22167644 -22.34709636 30.22167644 -20.57348633 27.56494141 C-20.1766011 26.96807526 -19.77971588 26.37120911 -19.37080383 25.7562561 C-18.95711044 25.13930878 -18.54341705 24.52236145 -18.1171875 23.88671875 C-17.46335335 22.90631119 -17.46335335 22.90631119 -16.79631042 21.90609741 C-15.88394057 20.53904144 -14.97046016 19.17272604 -14.0559082 17.80712891 C-12.65111013 15.7091464 -11.25010073 13.60867177 -9.84960938 11.5078125 C-8.95985444 10.17563494 -8.06988817 8.8435985 -7.1796875 7.51171875 C-6.75992142 6.88262604 -6.34015533 6.25353333 -5.90766907 5.6053772 C-2.22910398 0.11781734 -2.22910398 0.11781734 0 0 Z " fill="#F0F4F6" transform="translate(233.84765625,241.90234375)"/>
<path d="M0 0 C0.33 0 0.66 0 1 0 C1.66 4.62 2.32 9.24 3 14 C6.155625 14.4640625 6.155625 14.4640625 9.375 14.9375 C15.75 15.875 15.75 15.875 18 17 C20.5317239 17.12221229 23.03778521 17.18564445 25.57080078 17.20532227 C26.35137848 17.21522186 27.13195618 17.22512146 27.93618774 17.23532104 C30.52253155 17.26696978 33.10889375 17.29170676 35.6953125 17.31640625 C37.48607874 17.33697287 39.27684008 17.35796926 41.06759644 17.37937927 C45.78578743 17.43463013 50.50402245 17.4840261 55.22229004 17.53222656 C60.03495207 17.5824196 64.84755 17.63811712 69.66015625 17.69335938 C79.1067161 17.80097781 88.55333156 17.90241459 98 18 C98 18.99 98 19.98 98 21 C94.37 21.33 90.74 21.66 87 22 C87 26.62 87 31.24 87 36 C62.91 36 38.82 36 14 36 C14 30.06 14 24.12 14 18 C10.37 18.66 6.74 19.32 3 20 C2.34 24.95 1.68 29.9 1 35 C-2.71626694 31.28373306 -2.3126247 25.00802001 -3 20 C-7.62 19.34 -12.24 18.68 -17 18 C-14.22957891 15.22957891 -12.23466195 15.60203894 -8.375 15.375 C-7.18648438 15.30023438 -5.99796875 15.22546875 -4.7734375 15.1484375 C-3.40058594 15.07496094 -3.40058594 15.07496094 -2 15 C-1.93941406 14.08476563 -1.87882812 13.16953125 -1.81640625 12.2265625 C-1.73261719 11.03804687 -1.64882813 9.84953125 -1.5625 8.625 C-1.48128906 7.44164062 -1.40007812 6.25828125 -1.31640625 5.0390625 C-1 2 -1 2 0 0 Z " fill="#FFC32D" transform="translate(268,44)"/>
<path d="M0 0 C2 2 2 2 2 7 C28.4 7 54.8 7 82 7 C82 7.99 82 8.98 82 10 C78.37 10.33 74.74 10.66 71 11 C71 15.62 71 20.24 71 25 C47.57 25 24.14 25 0 25 C-0.33 21.7 -0.66 18.4 -1 15 C-4.96 14.67 -8.92 14.34 -13 14 C-13 13.34 -13 12.68 -13 12 C-7.555 11.505 -7.555 11.505 -2 11 C-1.7834375 9.1128125 -1.7834375 9.1128125 -1.5625 7.1875 C-1.26251314 4.57332877 -0.84186703 2.52560108 0 0 Z " fill="#FEC32E" transform="translate(185,140)"/>
<path d="M0 0 C3.21790931 3.21790931 2.07531808 12.73387892 2.09765625 17.00390625 C2.09107779 19.52345616 2.07925373 22.0429972 2.0625 24.5625 C2.05798828 25.85736328 2.05347656 27.15222656 2.04882812 28.48632812 C2.03712601 31.657601 2.02073113 34.82877546 2 38 C0.02 38 -1.96 38 -4 38 C-4.98643638 32.87716234 -5.30967053 27.82251071 -5.5625 22.625 C-5.60568359 21.79355469 -5.64886719 20.96210938 -5.69335938 20.10546875 C-5.79861805 18.07046772 -5.89973072 16.03525297 -6 14 C-13.15830845 22.62647767 -20.27333107 31.27641402 -27.16967773 40.11425781 C-30.57338749 44.47210892 -34.0502874 48.76405485 -37.5625 53.03515625 C-46.0316505 63.33657489 -54.40083318 73.71006031 -62.60888672 84.22070312 C-65.1287776 87.44375766 -67.65889317 90.65878237 -70.1875 93.875 C-71.1185308 95.05986345 -72.0495244 96.24475613 -72.98046875 97.4296875 C-73.64691406 98.27789062 -74.31335938 99.12609375 -75 100 C-77.4375 99.1875 -77.4375 99.1875 -80 98 C-80.33 97.01 -80.66 96.02 -81 95 C-79.53769505 92.79420245 -78.05971688 90.83899865 -76.375 88.8125 C-75.88153076 88.20245117 -75.38806152 87.59240234 -74.87963867 86.96386719 C-73.26221768 84.96829857 -71.63100397 82.98447527 -70 81 C-68.88295028 79.62464273 -67.76706853 78.24833605 -66.65234375 76.87109375 C-64.43571187 74.13413943 -62.21429186 71.40120656 -59.98828125 68.671875 C-57.64278467 65.79387546 -55.31398453 62.90344164 -53 60 C-50.14744972 56.42080007 -47.26580822 52.86657196 -44.37402344 49.3190918 C-39.15321455 42.91400273 -33.98747604 36.47282226 -28.90112305 29.96044922 C-25.29425294 25.35052444 -21.60476111 20.81605296 -17.875 16.3046875 C-16.19464872 14.23925572 -14.57992553 12.142774 -13 10 C-13.73863281 10.13277344 -14.47726562 10.26554688 -15.23828125 10.40234375 C-22.14813917 11.60520339 -29.0061957 12.47684141 -36 13 C-36.625 10.625 -36.625 10.625 -37 8 C-34.40903654 5.40903654 -32.4980773 5.26189026 -28.92578125 4.4921875 C-27.70052734 4.22792969 -26.47527344 3.96367188 -25.21289062 3.69140625 C-23.92576172 3.42199219 -22.63863281 3.15257812 -21.3125 2.875 C-20.04470703 2.59785156 -18.77691406 2.32070313 -17.47070312 2.03515625 C-11.53581993 0.77426531 -6.09905045 -0.27208012 0 0 Z " fill="#4F98C2" transform="translate(280,0)"/>
<path d="M0 0 C24.09 0 48.18 0 73 0 C73 4.62 73 9.24 73 14 C48.91 14 24.82 14 0 14 C0 9.38 0 4.76 0 0 Z " fill="#FFC32E" transform="translate(74,194)"/>
<path d="M0 0 C24.09 0 48.18 0 73 0 C73 4.62 73 9.24 73 14 C48.91 14 24.82 14 0 14 C0 9.38 0 4.76 0 0 Z " fill="#FFC32E" transform="translate(277,130)"/>
<path d="M0 0 C24.09 0 48.18 0 73 0 C73 10.92186892 73 10.92186892 70 14 C66.98176575 14.60127258 66.98176575 14.60127258 63.23364258 14.56762695 C62.55045456 14.56835709 61.86726654 14.56908722 61.16337585 14.56983948 C58.9062851 14.56635724 56.65126111 14.52747226 54.39453125 14.48828125 C52.82941312 14.47895523 51.2642804 14.47183812 49.69914246 14.46684265 C45.5805732 14.44775576 41.46288626 14.39864169 37.34466553 14.34332275 C33.14200782 14.29216595 28.93920747 14.26933632 24.73632812 14.24414062 C16.49043547 14.19052314 8.24542915 14.10257472 0 14 C0 9.38 0 4.76 0 0 Z " fill="#FEC32E" transform="translate(176,194)"/>
<path d="M0 0 C23.76 0 47.52 0 72 0 C71.34 4.62 70.68 9.24 70 14 C46.9 14 23.8 14 0 14 C0 9.38 0 4.76 0 0 Z " fill="#FEC32D" transform="translate(169,215)"/>
<path d="M0 0 C9.37035938 -0.02312504 18.74070901 -0.04091591 28.11109066 -0.05181217 C32.46168459 -0.05704065 36.81225907 -0.06413765 41.1628418 -0.07543945 C45.35790258 -0.08626959 49.55294459 -0.0922771 53.74801826 -0.09487724 C55.35206968 -0.09673126 56.95612003 -0.10035144 58.5601635 -0.10573006 C60.79916515 -0.11294219 63.0380883 -0.11399087 65.27709961 -0.11352539 C66.55395126 -0.115746 67.83080292 -0.11796661 69.14634705 -0.12025452 C72 0 72 0 73 1 C73.09854655 2.64340867 73.12972411 4.2911461 73.125 5.9375 C73.12886719 7.28134766 73.12886719 7.28134766 73.1328125 8.65234375 C73 11 73 11 72 13 C48.24 13 24.48 13 0 13 C0 8.71 0 4.42 0 0 Z " fill="#FEC32D" transform="translate(168,173)"/>
<path d="M0 0 C59.07 0 118.14 0 179 0 C179 1.32 179 2.64 179 4 C119.93 4.33 60.86 4.66 0 5 C0 3.35 0 1.7 0 0 Z " fill="#00AD88" transform="translate(27,305)"/>
<path d="M0 0 C3.0363779 2.70286271 4.87608025 5.2284525 5.5234375 9.30078125 C5.62720114 15.14267402 4.68558161 18.46036269 1.1875 23.1875 C-2.61011675 26.35218062 -6.91416154 27.34581132 -11.8125 27.1875 C-17.3493445 25.43416591 -20.78324548 23.12991906 -24.0625 18.375 C-25.70572109 13.58227182 -25.2045359 9.52109627 -23.125 5 C-20.77237592 0.72551399 -18.14212965 -2.01552144 -13.4375 -3.625 C-7.98892402 -4.014184 -4.25169488 -3.50035587 0 0 Z " fill="#FE576B" transform="translate(201.8125,97.8125)"/>
<path d="M0 0 C57.75 0 115.5 0 175 0 C175 1.32 175 2.64 175 4 C117.25 4 59.5 4 0 4 C0 2.68 0 1.36 0 0 Z " fill="#00AD88" transform="translate(31,363)"/>
<path d="M0 0 C55.11 0 110.22 0 167 0 C167 1.32 167 2.64 167 4 C111.89 4 56.78 4 0 4 C0 2.68 0 1.36 0 0 Z " fill="#00AD88" transform="translate(39,334)"/>
<path d="M0 0 C1.98 0 3.96 0 6 0 C6 0.99 6 1.98 6 3 C7.423125 3.4021875 7.423125 3.4021875 8.875 3.8125 C12 5 12 5 14 8 C14.07905064 10.33199388 14.08798769 12.66832622 14 15 C11.69 15 9.38 15 7 15 C6.67 13.35 6.34 11.7 6 10 C4.35 10 2.7 10 1 10 C0.55013422 13.27921824 0.55013422 13.27921824 1 17 C3.29095055 19.88355019 3.29095055 19.88355019 6.375 22.25 C13.78955513 28.41921641 13.78955513 28.41921641 14.3359375 32.5234375 C14.44162437 40.23857868 14.44162437 40.23857868 12.1875 44.125 C10 46 10 46 7 47 C6.67 47.99 6.34 48.98 6 50 C4.02 50 2.04 50 0 50 C-0.495 48.515 -0.495 48.515 -1 47 C-1.804375 46.54625 -2.60875 46.0925 -3.4375 45.625 C-6.54303888 43.65563388 -7.09895247 42.5222767 -8 39 C-8.125 35.6875 -8.125 35.6875 -8 33 C-5.69 33 -3.38 33 -1 33 C-0.67 34.98 -0.34 36.96 0 39 C1.98 39 3.96 39 6 39 C6.41890218 36.21061788 6.41890218 36.21061788 6 33 C3.99797192 30.58578967 1.8837685 28.70480537 -0.5625 26.75390625 C-4.52940094 23.57046824 -7.54573299 21.0733126 -8.31640625 15.859375 C-8.52404587 11.8137514 -8.32416607 9.55571327 -6.25 6 C-4.04691751 4.04170446 -2.89094238 3.30974383 0 3 C0 2.01 0 1.02 0 0 Z " fill="#FAAB22" transform="translate(279,206)"/>
<path d="M0 0 C0.33 0 0.66 0 1 0 C1.66 4.62 2.32 9.24 3 14 C6.155625 14.4640625 6.155625 14.4640625 9.375 14.9375 C15.75 15.875 15.75 15.875 18 17 C20.5317239 17.12221229 23.03778521 17.18564445 25.57080078 17.20532227 C26.35137848 17.21522186 27.13195618 17.22512146 27.93618774 17.23532104 C30.52253155 17.26696978 33.10889375 17.29170676 35.6953125 17.31640625 C37.48607874 17.33697287 39.27684008 17.35796926 41.06759644 17.37937927 C45.78578743 17.43463013 50.50402245 17.4840261 55.22229004 17.53222656 C60.03495207 17.5824196 64.84755 17.63811712 69.66015625 17.69335938 C79.1067161 17.80097781 88.55333156 17.90241459 98 18 C98 18.99 98 19.98 98 21 C73.25 21 48.5 21 23 21 C23 25.95 23 30.9 23 36 C20.03 36 17.06 36 14 36 C14 30.06 14 24.12 14 18 C10.37 18.66 6.74 19.32 3 20 C2.34 24.95 1.68 29.9 1 35 C-2.71626694 31.28373306 -2.3126247 25.00802001 -3 20 C-7.62 19.34 -12.24 18.68 -17 18 C-14.22957891 15.22957891 -12.23466195 15.60203894 -8.375 15.375 C-7.18648438 15.30023438 -5.99796875 15.22546875 -4.7734375 15.1484375 C-3.40058594 15.07496094 -3.40058594 15.07496094 -2 15 C-1.93941406 14.08476563 -1.87882812 13.16953125 -1.81640625 12.2265625 C-1.73261719 11.03804687 -1.64882813 9.84953125 -1.5625 8.625 C-1.48128906 7.44164062 -1.40007812 6.25828125 -1.31640625 5.0390625 C-1 2 -1 2 0 0 Z " fill="#FFCD41" transform="translate(268,44)"/>
<path d="M0 0 C24.75 0 49.5 0 75 0 C75 6.27 75 12.54 75 19 C47.61 19 20.22 19 -8 19 C-8.33 17.68 -8.66 16.36 -9 15 C15.09 15 39.18 15 64 15 C64 10.38 64 5.76 64 1 C42.88 1 21.76 1 0 1 C0 0.67 0 0.34 0 0 Z " fill="#FEB227" transform="translate(291,65)"/>
<path d="M0 0 C14.52 0 29.04 0 44 0 C44 4.62 44 9.24 44 14 C39.74295879 14.23150073 35.50811622 14.42955152 31.24975586 14.54931641 C29.80694271 14.59924074 28.36462615 14.66721814 26.92358398 14.75439453 C14.96699651 15.45894215 14.96699651 15.45894215 10.12841797 11.87011719 C7.87062821 9.3499444 5.94222148 6.76629832 4 4 C2.68 2.68 1.36 1.36 0 0 Z " fill="#FEC32D" transform="translate(306,194)"/>
<path d="M0 0 C25.08 0 50.16 0 76 0 C76 6.27 76 12.54 76 19 C48.28 18.67 20.56 18.34 -8 18 C-8 13.71 -8 9.42 -8 5 C-7.67 5 -7.34 5 -7 5 C-6.67 8.3 -6.34 11.6 -6 15 C17.43 15 40.86 15 65 15 C65 10.38 65 5.76 65 1 C43.55 1 22.1 1 0 1 C0 0.67 0 0.34 0 0 Z " fill="#FDB026" transform="translate(191,150)"/>
<path d="M0 0 C25.08 0 50.16 0 76 0 C76 6.27 76 12.54 76 19 C48.28 18.67 20.56 18.34 -8 18 C-8 17.01 -8 16.02 -8 15 C16.09 15 40.18 15 65 15 C65 10.38 65 5.76 65 1 C43.55 1 22.1 1 0 1 C0 0.67 0 0.34 0 0 Z " fill="#FDAE24" transform="translate(285,150)"/>
<path d="M0 0 C4.48257885 0.6050573 8.3526011 1.75444637 12.55859375 3.40625 C13.1766539 3.64703278 13.79471405 3.88781555 14.4315033 4.13589478 C16.43577412 4.91826523 18.43668772 5.70883128 20.4375 6.5 C21.82160171 7.04325369 23.20588066 7.58605599 24.59033203 8.12841797 C26.68991037 8.95135214 28.78918132 9.77502251 30.88745117 10.60128784 C35.28945126 12.33437856 39.70086122 14.04033262 44.12109375 15.7265625 C45.71642944 16.33854492 45.71642944 16.33854492 47.34399414 16.96289062 C49.32962928 17.72419737 51.31704313 18.48088471 53.30639648 19.23242188 C54.62039429 19.73999023 54.62039429 19.73999023 55.9609375 20.2578125 C57.10248291 20.69311279 57.10248291 20.69311279 58.26708984 21.13720703 C60 22 60 22 61 24 C60.0625 26.625 60.0625 26.625 59 29 C52.9740514 28.37483319 47.69776515 26.0860667 42.125 23.8515625 C41.08230957 23.43836761 40.03961914 23.02517273 38.96533203 22.59945679 C36.76548538 21.72633811 34.56677658 20.85034784 32.36914062 19.97167969 C29.01432085 18.63072419 25.65595222 17.29899968 22.296875 15.96875 C20.15603463 15.1177291 18.01540254 14.26618401 15.875 13.4140625 C14.87484863 13.0170816 13.87469727 12.62010071 12.84423828 12.21109009 C8.11899944 10.31863841 3.50318267 8.3757321 -1 6 C-0.67 4.02 -0.34 2.04 0 0 Z " fill="#5098C2" transform="translate(119,78)"/>
<path d="M0 0 C2.91517292 1.07401108 4.77810176 1.77810176 7 4 C6.265625 5.16276042 5.53125 6.32552083 4.796875 7.48828125 C4.31686035 8.24834473 3.8368457 9.0084082 3.34228516 9.79150391 C2.26918953 11.49048971 1.19594421 13.18938098 0.12255859 14.88818359 C-2.67435984 19.31521285 -5.46899475 23.74364375 -8.2578125 28.17578125 C-9.04236816 29.42137817 -9.04236816 29.42137817 -9.84277344 30.69213867 C-10.8339516 32.26592618 -11.8242459 33.84027084 -12.81347656 35.4152832 C-16.12389632 40.66834795 -19.53378024 45.84849599 -23 51 C-24.98 50.34 -26.96 49.68 -29 49 C-28.36572746 45.88331597 -27.30341406 43.54996861 -25.6640625 40.83203125 C-25.18203369 40.02926758 -24.70000488 39.22650391 -24.20336914 38.39941406 C-23.42207642 37.1188916 -23.42207642 37.1188916 -22.625 35.8125 C-21.82340454 34.48750488 -21.82340454 34.48750488 -21.00561523 33.13574219 C-16.62625199 25.93632954 -12.09327621 18.84327603 -7.47265625 11.796875 C-4.92081542 7.90233565 -2.45281636 3.95746324 0 0 Z " fill="#5098C2" transform="translate(94,86)"/>
<path d="M0 0 C3.3 0 6.6 0 10 0 C10.495 8.91 10.495 8.91 11 18 C-16.72 17.67 -44.44 17.34 -73 17 C-73 16.01 -73 15.02 -73 14 C-48.91 14 -24.82 14 0 14 C0 9.38 0 4.76 0 0 Z " fill="#FDAD24" transform="translate(359,109)"/>
<path d="M0 0 C3.3 0 6.6 0 10 0 C10.495 8.415 10.495 8.415 11 17 C-16.72 17 -44.44 17 -73 17 C-73 16.01 -73 15.02 -73 14 C-48.91 14 -24.82 14 0 14 C0 9.38 0 4.76 0 0 Z " fill="#FEB228" transform="translate(350,88)"/>
<path d="M0 0 C27.72 0 55.44 0 84 0 C84 0.99 84 1.98 84 3 C59.25 3 34.5 3 9 3 C9 7.95 9 12.9 9 18 C6.03 18 3.06 18 0 18 C0 12.06 0 6.12 0 0 Z " fill="#FFCC41" transform="translate(70,232)"/>
<path d="M0 0 C27.72 0 55.44 0 84 0 C84 0.99 84 1.98 84 3 C59.25 3 34.5 3 9 3 C9 7.95 9 12.9 9 18 C6.03 18 3.06 18 0 18 C0 12.06 0 6.12 0 0 Z " fill="#FFCC40" transform="translate(270,168)"/>
<path d="M0 0 C2 2 2 2 2 7 C28.4 7 54.8 7 82 7 C82 7.99 82 8.98 82 10 C57.91 10.33 33.82 10.66 9 11 C9.33 11.99 9.66 12.98 10 14 C7.36 14.33 4.72 14.66 2 15 C2.04125 16.093125 2.0825 17.18625 2.125 18.3125 C2 22 2 22 0 25 C-0.33 21.7 -0.66 18.4 -1 15 C-4.96 14.67 -8.92 14.34 -13 14 C-13 13.34 -13 12.68 -13 12 C-7.555 11.505 -7.555 11.505 -2 11 C-1.7834375 9.1128125 -1.7834375 9.1128125 -1.5625 7.1875 C-1.26251314 4.57332877 -0.84186703 2.52560108 0 0 Z " fill="#FECC43" transform="translate(185,140)"/>
<path d="M0 0 C27.72 0 55.44 0 84 0 C84 0.99 84 1.98 84 3 C58.92 3 33.84 3 8 3 C8 7.95 8 12.9 8 18 C5.36 18 2.72 18 0 18 C0 12.06 0 6.12 0 0 Z " fill="#FFCC40" transform="translate(277,147)"/>
<path d="M0 0 C6.55581223 1.59360653 11.13255086 3.26064162 16 8 C16 10.1875 16 10.1875 15 13 C9.45342659 17.96729681 1.66024799 20.62636496 -5.6796875 21.21484375 C-8 21 -8 21 -9.9375 18.75 C-11 16 -11 16 -10.25 14.04296875 C-9.00197228 12.00322344 -7.66778883 10.331177 -6.0625 8.5625 C-3.68145353 5.8612639 -1.73164816 3.17468829 0 0 Z " fill="#03DBAA" transform="translate(321,250)"/>
<path d="M0 0 C0.495 1.485 0.495 1.485 1 3 C-2.96 3 -6.92 3 -11 3 C-11 2.34 -11 1.68 -11 1 C-16.94 1.495 -16.94 1.495 -23 2 C-18.3777141 4.31114295 -14.03555972 5.12006475 -8.99609375 6.12109375 C-6.04090082 6.98800172 -4.86404254 7.6185364 -3 10 C-8.37330889 13.39366878 -12.86946489 13.32712342 -19 13 C-19 13.66 -19 14.32 -19 15 C-26.46182899 15.25105219 -34.16083344 15.41958328 -41 12 C-41 11.34 -41 10.68 -41 10 C-32.60995285 9.86394518 -24.35619957 10.24524649 -16 11 C-16 10.34 -16 9.68 -16 9 C-16.61746094 8.89042969 -17.23492187 8.78085937 -17.87109375 8.66796875 C-23.77712501 7.5622734 -29.35197559 6.04638565 -35 4 C-34 1 -34 1 -31.9375 -0.125 C-21.46838474 -3.24345986 -10.4937563 -2.54945923 0 0 Z " fill="#05DDAD" transform="translate(174,253)"/>
<path d="M0 0 C0.495 3.465 0.495 3.465 1 7 C-5.22883116 8.56985589 -11.45857097 10.1360648 -17.68896484 11.69970703 C-19.80962024 12.23238967 -21.93006396 12.76591571 -24.05029297 13.30029297 C-27.09287523 14.06698387 -30.13619874 14.83066668 -33.1796875 15.59375 C-34.60787308 15.95466736 -34.60787308 15.95466736 -36.06491089 16.32287598 C-36.94567291 16.54310425 -37.82643494 16.76333252 -38.73388672 16.99023438 C-39.51110077 17.18564819 -40.28831482 17.38106201 -41.08908081 17.58239746 C-43 18 -43 18 -45 18 C-45 15.69 -45 13.38 -45 11 C-34.55656672 7.98567571 -24.06930487 5.22802997 -13.5 2.6875 C-11.8439978 2.28797119 -11.8439978 2.28797119 -10.15454102 1.88037109 C-2.25710589 0 -2.25710589 0 0 0 Z " fill="#5098C2" transform="translate(45,148)"/>
<path d="M0 0 C0 1.32 0 2.64 0 4 C-1.14339844 4.26554687 -2.28679687 4.53109375 -3.46484375 4.8046875 C-4.95583291 5.16102453 -6.44671279 5.51781904 -7.9375 5.875 C-8.69224609 6.04902344 -9.44699219 6.22304688 -10.22460938 6.40234375 C-12.16593545 6.87244065 -14.08549544 7.4304297 -16 8 C-16.33 8.66 -16.66 9.32 -17 10 C-16.18917969 9.9278125 -15.37835938 9.855625 -14.54296875 9.78125 C-7.33964043 9.17747859 -0.22747819 8.86964468 7 9 C7 9.66 7 10.32 7 11 C4.59454362 12.20272819 3.05003047 12.10071472 0.375 12.0625 C-0.85089844 12.04896484 -0.85089844 12.04896484 -2.1015625 12.03515625 C-3.04128906 12.01775391 -3.04128906 12.01775391 -4 12 C-4 12.66 -4 13.32 -4 14 C-5.64574566 14.02688151 -7.29161413 14.04634123 -8.9375 14.0625 C-9.85402344 14.07410156 -10.77054687 14.08570313 -11.71484375 14.09765625 C-14 14 -14 14 -15 13 C-17.74403381 12.75507797 -20.4869967 12.61614703 -23.23828125 12.4765625 C-26.31014507 11.94648133 -27.77029354 11.15026324 -30 9 C-30 8.34 -30 7.68 -30 7 C-25.82303897 5.06967626 -21.71528166 4.40360226 -17.1875 3.875 C-16.14819336 3.74544922 -16.14819336 3.74544922 -15.08789062 3.61328125 C-13.39266294 3.40283919 -11.69642245 3.20058328 -10 3 C-10 2.01 -10 1.02 -10 0 C-14.29 0 -18.58 0 -23 0 C-23 0.66 -23 1.32 -23 2 C-26.63 2 -30.26 2 -34 2 C-34 1.01 -34 0.02 -34 -1 C-24.03359994 -5.98320003 -10.05256468 -2.64707032 0 0 Z " fill="#04DCAC" transform="translate(382,254)"/>
<path d="M0 0 C20.79 0 41.58 0 63 0 C63 0.99 63 1.98 63 3 C44.85 3 26.7 3 8 3 C8 4.98 8 6.96 8 9 C26.48 9 44.96 9 64 9 C64 9.33 64 9.66 64 10 C42.88 10 21.76 10 0 10 C0 6.7 0 3.4 0 0 Z " fill="#F7CB40" transform="translate(176,232)"/>
<path d="M0 0 C18.15 0 36.3 0 55 0 C55.495 2.475 55.495 2.475 56 5 C37.52 5 19.04 5 0 5 C0 3.35 0 1.7 0 0 Z " fill="#FEC22D" transform="translate(184,236)"/>
<path d="M0 0 C6.6 0 13.2 0 20 0 C20 4.62 20 9.24 20 14 C14.39 14 8.78 14 3 14 C2.01 9.38 1.02 4.76 0 0 Z " fill="#FEC32D" transform="translate(323,215)"/>
<path d="M0 0 C27.72 0 55.44 0 84 0 C84 0.99 84 1.98 84 3 C56.28 3 28.56 3 0 3 C0 2.01 0 1.02 0 0 Z " fill="#FFCF43" transform="translate(74,189)"/>
<path d="M0 0 C27.39 0 54.78 0 83 0 C83.495 1.485 83.495 1.485 84 3 C56.28 3 28.56 3 0 3 C0 2.01 0 1.02 0 0 Z " fill="#FFCD42" transform="translate(168,168)"/>
<path d="M0 0 C-3 1 -3 1 -6 0 C-16.0419204 -0.95812818 -24.77986491 1.39152977 -32.96484375 7.28125 C-40.03749235 13.25431216 -43.99001683 21.39388561 -45.3828125 30.50390625 C-45.67960873 36.66737456 -43.96585209 41.81312719 -41.77734375 47.53125 C-41 50 -41 50 -42 52 C-48.42738259 43.00166437 -48.80548581 34.64915004 -48 24 C-46.35063059 15.74208334 -41.29622948 9.41140433 -35 4 C-23.04589863 -3.47889845 -13.17273433 -4.53487575 0 0 Z " fill="#F7CD55" transform="translate(296,199)"/>
<path d="M0 0 C0.33 0 0.66 0 1 0 C1.66 4.62 2.32 9.24 3 14 C6.3203125 14.45572917 9.640625 14.91145833 12.9609375 15.3671875 C16 16 16 16 18 18 C13.05 18.66 8.1 19.32 3 20 C2.34 24.95 1.68 29.9 1 35 C-2.71626694 31.28373306 -2.3126247 25.00802001 -3 20 C-7.62 19.34 -12.24 18.68 -17 18 C-14.22957891 15.22957891 -12.23466195 15.60203894 -8.375 15.375 C-7.18648438 15.30023438 -5.99796875 15.22546875 -4.7734375 15.1484375 C-3.40058594 15.07496094 -3.40058594 15.07496094 -2 15 C-1.93941406 14.08476563 -1.87882812 13.16953125 -1.81640625 12.2265625 C-1.73261719 11.03804687 -1.64882813 9.84953125 -1.5625 8.625 C-1.48128906 7.44164062 -1.40007812 6.25828125 -1.31640625 5.0390625 C-1 2 -1 2 0 0 Z " fill="#ECF0F1" transform="translate(268,44)"/>
<path d="M0 0 C0.495 1.98 0.495 1.98 1 4 C0.34 4.33 -0.32 4.66 -1 5 C-1 4.34 -1 3.68 -1 3 C-28.39 3 -55.78 3 -84 3 C-84 2.34 -84 1.68 -84 1 C-74.37666041 0.8689003 -64.75331217 0.73846073 -55.12995243 0.60884857 C-50.6607679 0.54863497 -46.19158661 0.48819963 -41.72241211 0.42724609 C-37.40413038 0.36835888 -33.08584095 0.31006908 -28.7675457 0.25218201 C-27.12544915 0.23006679 -25.48335542 0.20774146 -23.84126472 0.18519592 C-15.89395055 0.07620828 -7.94829314 -0.03177728 0 0 Z " fill="#FED045" transform="translate(260,189)"/>
<path d="M0 0 C0 0.99 0 1.98 0 3 C-27.72 3 -55.44 3 -84 3 C-84 2.34 -84 1.68 -84 1 C-74.37666041 0.8689003 -64.75331217 0.73846073 -55.12995243 0.60884857 C-50.6607679 0.54863497 -46.19158661 0.48819963 -41.72241211 0.42724609 C-37.40413038 0.36835888 -33.08584095 0.31006908 -28.7675457 0.25218201 C-27.12544915 0.23006679 -25.48335542 0.20774146 -23.84126472 0.18519592 C-15.89395055 0.07620828 -7.94829314 -0.03177728 0 0 Z " fill="#FFD046" transform="translate(370,104)"/>
<path d="M0 0 C27.72 0.33 55.44 0.66 84 1 C84 1.66 84 2.32 84 3 C56.28 3 28.56 3 0 3 C0 2.01 0 1.02 0 0 Z " fill="#FFD046" transform="translate(277,83)"/>
<path d="M0 0 C8.25 0 16.5 0 25 0 C25 1.65 25 3.3 25 5 C28.63 5 32.26 5 36 5 C36 5.33 36 5.66 36 6 C24.12 6 12.24 6 0 6 C0 4.02 0 2.04 0 0 Z " fill="#F7C130" transform="translate(325,236)"/>
<path d="M0 0 C3.4375 1 3.4375 1 5.4375 2.6875 C6.82656225 5.89970645 6.49271374 7.6936636 5.4375 11 C3.31318495 13.27605184 1.99643694 13.90218604 -1.0625 14.4375 C-4.46084723 13.84278924 -5.57491034 12.79734842 -7.5625 10 C-8.17225382 6.34147708 -8.00793026 4.69487121 -6 1.5625 C-3.5625 0 -3.5625 0 0 0 Z " fill="#FF8290" transform="translate(60.5625,141)"/>
<path d="M0 0 C2.4375 1.5625 2.4375 1.5625 4 4 C3.9375 7.625 3.9375 7.625 3 11 C-0.49124017 13.32749345 -1.89222251 13.50299316 -6 13 C-8.4375 11.4375 -8.4375 11.4375 -10 9 C-9.9375 5.375 -9.9375 5.375 -9 2 C-5.50875983 -0.32749345 -4.10777749 -0.50299316 0 0 Z " fill="#FF8291" transform="translate(195,103)"/>
<path d="M0 0 C1.9375 1.0625 1.9375 1.0625 3 3 C3.36528977 6.4093712 3.6140629 8.88023824 1.9375 11.9375 C-1.11976176 13.6140629 -3.5906288 13.36528977 -7 13 C-8.9375 11.9375 -8.9375 11.9375 -10 10 C-10.36528977 6.5906288 -10.6140629 4.11976176 -8.9375 1.0625 C-5.88023824 -0.6140629 -3.4093712 -0.36528977 0 0 Z " fill="#FF8391" transform="translate(109,69)"/>
<path d="M0 0 C24.75 0 49.5 0 75 0 C75 1.98 75 3.96 75 6 C71.37 6 67.74 6 64 6 C64 4.35 64 2.7 64 1 C42.88 1 21.76 1 0 1 C0 0.67 0 0.34 0 0 Z " fill="#FDAE24" transform="translate(79,235)"/>
<path d="M0 0 C3.3 0 6.6 0 10 0 C10 4.29 10 8.58 10 13 C6.7 13 3.4 13 0 13 C0 8.71 0 4.42 0 0 Z " fill="#FAAA20" transform="translate(241,173)"/>
<path d="M0 0 C3.3 0 6.6 0 10 0 C10 4.29 10 8.58 10 13 C6.7 13 3.4 13 0 13 C0 8.71 0 4.42 0 0 Z " fill="#FAAA20" transform="translate(350,88)"/>
<path d="M0 0 C3.3 0 6.6 0 10 0 C10 4.29 10 8.58 10 13 C6.7 13 3.4 13 0 13 C0 8.71 0 4.42 0 0 Z " fill="#FAAA20" transform="translate(356,67)"/>
<path d="M0 0 C0 0.99 0 1.98 0 3 C-7.7884635 3.04629055 -15.57689492 3.08185242 -23.36546135 3.10362434 C-26.98180873 3.11407249 -30.59806216 3.12825032 -34.21435547 3.15087891 C-37.70268811 3.1725708 -41.19093024 3.18456085 -44.6793251 3.18975449 C-46.66139971 3.19526169 -48.64343779 3.21088034 -50.62545776 3.22659302 C-51.82655182 3.22674408 -53.02764587 3.22689514 -54.26513672 3.22705078 C-55.32658905 3.231492 -56.38804138 3.23593323 -57.48165894 3.24050903 C-60 3 -60 3 -62 1 C-54.2953453 0.85668224 -46.59067246 0.71437177 -38.88598633 0.57275391 C-36.2661904 0.52448215 -33.64639867 0.47598176 -31.02661133 0.42724609 C-27.25603302 0.35714238 -23.48544026 0.28786707 -19.71484375 0.21875 C-18.54791489 0.19687622 -17.38098602 0.17500244 -16.17869568 0.15246582 C-10.78482002 0.05434824 -5.39478062 -0.02726358 0 0 Z " fill="#FED046" transform="translate(361,189)"/>
<path d="M0 0 C2 2 2 2 2.1953125 4.1640625 C2.17210937 4.97617188 2.14890625 5.78828125 2.125 6.625 C2.10695312 7.44226563 2.08890625 8.25953125 2.0703125 9.1015625 C2.03550781 10.04128906 2.03550781 10.04128906 2 11 C4.64 11.33 7.28 11.66 10 12 C10 12.66 10 13.32 10 14 C7.36 14.33 4.72 14.66 2 15 C2.04125 16.093125 2.0825 17.18625 2.125 18.3125 C2 22 2 22 0 25 C-0.33 21.7 -0.66 18.4 -1 15 C-4.96 14.67 -8.92 14.34 -13 14 C-13 13.34 -13 12.68 -13 12 C-7.555 11.505 -7.555 11.505 -2 11 C-1.7834375 9.1128125 -1.7834375 9.1128125 -1.5625 7.1875 C-1.26251314 4.57332877 -0.84186703 2.52560108 0 0 Z " fill="#EDEEE8" transform="translate(185,140)"/>
<path d="M0 0 C2.97 0 5.94 0 9 0 C9 4.29 9 8.58 9 13 C6.03 13 3.06 13 0 13 C0 8.71 0 4.42 0 0 Z " fill="#FFD65C" transform="translate(270,173)"/>
<path d="M0 0 C2.64 0 5.28 0 8 0 C8 4.62 8 9.24 8 14 C5.36 14 2.72 14 0 14 C0 9.38 0 4.76 0 0 Z " fill="#FFD75F" transform="translate(169,215)"/>
<path d="M0 0 C2.64 0 5.28 0 8 0 C8 4.62 8 9.24 8 14 C5.36 14 2.72 14 0 14 C0 9.38 0 4.76 0 0 Z " fill="#FFD75E" transform="translate(79,215)"/>
<path d="M0 0 C2.64 0 5.28 0 8 0 C8 4.62 8 9.24 8 14 C5.36 14 2.72 14 0 14 C0 9.38 0 4.76 0 0 Z " fill="#FFD65C" transform="translate(74,194)"/>
<path d="M0 0 C2.64 0 5.28 0 8 0 C8 4.62 8 9.24 8 14 C5.36 14 2.72 14 0 14 C0 9.38 0 4.76 0 0 Z " fill="#FFD65E" transform="translate(277,130)"/>
<path d="M0 0 C11.55 0 23.1 0 35 0 C35 0.99 35 1.98 35 3 C23.45 3 11.9 3 0 3 C0 2.01 0 1.02 0 0 Z " fill="#FFCC41" transform="translate(326,232)"/>
<path d="M0 0 C2.64 0 5.28 0 8 0 C8 4.29 8 8.58 8 13 C5.36 13 2.72 13 0 13 C0 8.71 0 4.42 0 0 Z " fill="#FFD75F" transform="translate(176,194)"/>
<path d="M0 0 C2.64 0 5.28 0 8 0 C8 4.29 8 8.58 8 13 C5.36 13 2.72 13 0 13 C0 8.71 0 4.42 0 0 Z " fill="#FFD760" transform="translate(168,173)"/>
<path d="M0 0 C2.64 0 5.28 0 8 0 C8 4.29 8 8.58 8 13 C5.36 13 2.72 13 0 13 C0 8.71 0 4.42 0 0 Z " fill="#FFD75F" transform="translate(277,152)"/>
<path d="M0 0 C2.64 0 5.28 0 8 0 C8 4.29 8 8.58 8 13 C5.36 13 2.72 13 0 13 C0 8.71 0 4.42 0 0 Z " fill="#FFD75F" transform="translate(286,109)"/>
<path d="M0 0 C2.64 0 5.28 0 8 0 C8 4.29 8 8.58 8 13 C5.36 13 2.72 13 0 13 C0 8.71 0 4.42 0 0 Z " fill="#FFD75F" transform="translate(277,88)"/>
<path d="M0 0 C2.31 0 4.62 0 7 0 C7 4.29 7 8.58 7 13 C4.69 13 2.38 13 0 13 C0 8.71 0 4.42 0 0 Z " fill="#FFD861" transform="translate(71,237)"/>
<path d="M0 0 C2.31 0 4.62 0 7 0 C7 4.29 7 8.58 7 13 C4.69 13 2.38 13 0 13 C0 8.71 0 4.42 0 0 Z " fill="#FFD861" transform="translate(283,67)"/>
<path d="M0 0 C4.29 0 8.58 0 13 0 C9.05285412 3.94714588 9.05285412 3.94714588 6.0546875 4.09765625 C4.03645833 4.06510417 2.01822917 4.03255208 0 4 C0 2.68 0 1.36 0 0 Z " fill="#F9B32A" transform="translate(70,250)"/>
<path d="M0 0 C1.32 0 2.64 0 4 0 C4 3.3 4 6.6 4 10 C2.35 10 0.7 10 -1 10 C-0.67 6.7 -0.34 3.4 0 0 Z " fill="#FED866" transform="translate(187,155)"/>
<path d="M0 0 C2.64 0 5.28 0 8 0 C8 1.65 8 3.3 8 5 C5.36 5 2.72 5 0 5 C0 3.35 0 1.7 0 0 Z " fill="#F8D761" transform="translate(176,237)"/>
</svg>
